<ttFont>
    <TTGlyph name="A" xMin="0" yMin="-46" xMax="610" yMax="766">
      <contour>
        <pt x="344" y="398" on="1"/>
        <pt x="343" y="400" on="0"/>
        <pt x="343" y="401" on="1"/>
        <pt x="330" y="442" on="0"/>
        <pt x="330" y="529" on="1"/>
        <pt x="330" y="533" on="1"/>
        <pt x="330" y="554" on="0"/>
        <pt x="321" y="554" on="1"/>
        <pt x="281" y="554" on="0"/>
        <pt x="281" y="531" on="1"/>
        <pt x="285" y="485" on="1"/>
        <pt x="285" y="479" on="0"/>
        <pt x="259" y="415" on="0"/>
        <pt x="259" y="377" on="0"/>
        <pt x="264" y="377" on="1"/>
        <pt x="273" y="377" on="0"/>
        <pt x="309" y="390" on="0"/>
        <pt x="344" y="390" on="0"/>
      </contour>
      <contour>
        <pt x="154" y="610" on="1"/>
        <pt x="141" y="668" on="1"/>
        <pt x="141" y="677" on="0"/>
        <pt x="294" y="760" on="0"/>
        <pt x="322" y="766" on="0"/>
        <pt x="396" y="766" on="0"/>
        <pt x="428" y="759" on="1"/>
        <pt x="496" y="744" on="0"/>
        <pt x="496" y="730" on="1"/>
        <pt x="496" y="729" on="0"/>
        <pt x="491" y="704" on="1"/>
        <pt x="475" y="626" on="0"/>
        <pt x="475" y="580" on="1"/>
        <pt x="475" y="575" on="0"/>
        <pt x="495" y="570" on="0"/>
        <pt x="495" y="569" on="1"/>
        <pt x="495" y="537" on="0"/>
        <pt x="534" y="214" on="0"/>
        <pt x="548" y="172" on="1"/>
        <pt x="548" y="171" on="1"/>
        <pt x="548" y="169" on="0"/>
        <pt x="517" y="147" on="0"/>
        <pt x="517" y="121" on="0"/>
        <pt x="548" y="111" on="0"/>
        <pt x="578" y="106" on="0"/>
        <pt x="578" y="98" on="1"/>
        <pt x="577" y="96" on="0"/>
        <pt x="577" y="86" on="0"/>
        <pt x="580" y="73" on="1"/>
        <pt x="583" y="53" on="0"/>
        <pt x="604" y="20" on="1"/>
        <pt x="610" y="10" on="1"/>
        <pt x="610" y="-7" on="0"/>
        <pt x="497" y="-46" on="0"/>
        <pt x="442" y="-46" on="0"/>
        <pt x="389" y="-25" on="0"/>
        <pt x="356" y="-1" on="0"/>
        <pt x="356" y="4" on="1"/>
        <pt x="356" y="5" on="0"/>
        <pt x="358" y="15" on="1"/>
        <pt x="363" y="40" on="0"/>
        <pt x="363" y="69" on="1"/>
        <pt x="341" y="206" on="1"/>
        <pt x="341" y="210" on="0"/>
        <pt x="377" y="216" on="0"/>
        <pt x="377" y="226" on="1"/>
        <pt x="377" y="239" on="0"/>
        <pt x="347" y="257" on="0"/>
        <pt x="304" y="257" on="0"/>
        <pt x="245" y="235" on="0"/>
        <pt x="236" y="216" on="0"/>
        <pt x="216" y="57" on="0"/>
        <pt x="216" y="18" on="1"/>
        <pt x="216" y="10" on="0"/>
        <pt x="110" y="-18" on="0"/>
        <pt x="75" y="-18" on="1"/>
        <pt x="57" y="-18" on="0"/>
        <pt x="16" y="8" on="1"/>
        <pt x="3" y="16" on="1"/>
        <pt x="0" y="19" on="0"/>
        <pt x="0" y="25" on="1"/>
        <pt x="0" y="27" on="1"/>
        <pt x="15" y="46" on="0"/>
        <pt x="36" y="108" on="1"/>
        <pt x="44" y="130" on="1"/>
        <pt x="57" y="130" on="0"/>
        <pt x="92" y="161" on="0"/>
        <pt x="92" y="174" on="0"/>
        <pt x="70" y="203" on="0"/>
        <pt x="70" y="206" on="1"/>
        <pt x="70" y="207" on="1"/>
        <pt x="107" y="299" on="1"/>
        <pt x="107" y="321" on="0"/>
        <pt x="154" y="587" on="0"/>
      </contour>
    </TTGlyph>
    <TTGlyph name="AE" xMin="0" yMin="-44" xMax="837" yMax="770">
      <contour>
        <pt x="280" y="533" on="1"/>
        <pt x="284" y="486" on="1"/>
        <pt x="284" y="481" on="0"/>
        <pt x="259" y="416" on="0"/>
        <pt x="259" y="379" on="0"/>
        <pt x="263" y="379" on="1"/>
        <pt x="273" y="379" on="0"/>
        <pt x="308" y="392" on="0"/>
        <pt x="344" y="392" on="0"/>
        <pt x="344" y="399" on="1"/>
        <pt x="344" y="400" on="0"/>
        <pt x="344" y="400" on="1"/>
        <pt x="330" y="441" on="0"/>
        <pt x="330" y="524" on="1"/>
        <pt x="330" y="535" on="1"/>
        <pt x="330" y="556" on="0"/>
        <pt x="320" y="556" on="1"/>
        <pt x="280" y="556" on="0"/>
      </contour>
      <contour>
        <pt x="153" y="611" on="1"/>
        <pt x="141" y="670" on="1"/>
        <pt x="141" y="679" on="0"/>
        <pt x="293" y="762" on="0"/>
        <pt x="323" y="768" on="0"/>
        <pt x="400" y="768" on="0"/>
        <pt x="437" y="754" on="1"/>
        <pt x="492" y="770" on="0"/>
        <pt x="560" y="770" on="1"/>
        <pt x="573" y="770" on="0"/>
        <pt x="590" y="749" on="0"/>
        <pt x="603" y="749" on="0"/>
        <pt x="709" y="768" on="0"/>
        <pt x="811" y="768" on="0"/>
        <pt x="811" y="752" on="1"/>
        <pt x="811" y="723" on="0"/>
        <pt x="788" y="626" on="0"/>
        <pt x="770" y="608" on="0"/>
        <pt x="732" y="608" on="1"/>
        <pt x="728" y="608" on="0"/>
        <pt x="715" y="637" on="0"/>
        <pt x="680" y="666" on="0"/>
        <pt x="637" y="666" on="0"/>
        <pt x="589" y="649" on="0"/>
        <pt x="578" y="638" on="0"/>
        <pt x="578" y="548" on="0"/>
        <pt x="583" y="526" on="1"/>
        <pt x="583" y="524" on="1"/>
        <pt x="583" y="516" on="0"/>
        <pt x="568" y="512" on="1"/>
        <pt x="542" y="505" on="0"/>
        <pt x="542" y="471" on="1"/>
        <pt x="542" y="465" on="0"/>
        <pt x="575" y="465" on="1"/>
        <pt x="735" y="474" on="1"/>
        <pt x="755" y="474" on="0"/>
        <pt x="766" y="472" on="0"/>
        <pt x="766" y="466" on="1"/>
        <pt x="766" y="439" on="0"/>
        <pt x="720" y="333" on="0"/>
        <pt x="707" y="333" on="1"/>
        <pt x="690" y="342" on="1"/>
        <pt x="673" y="351" on="0"/>
        <pt x="654" y="351" on="1"/>
        <pt x="581" y="351" on="0"/>
        <pt x="574" y="344" on="1"/>
        <pt x="570" y="338" on="0"/>
        <pt x="570" y="161" on="0"/>
        <pt x="601" y="130" on="0"/>
        <pt x="702" y="130" on="0"/>
        <pt x="730" y="157" on="0"/>
        <pt x="759" y="203" on="0"/>
        <pt x="776" y="236" on="0"/>
        <pt x="777" y="236" on="1"/>
        <pt x="786" y="236" on="0"/>
        <pt x="837" y="186" on="0"/>
        <pt x="837" y="163" on="0"/>
        <pt x="794" y="21" on="0"/>
        <pt x="785" y="12" on="1"/>
        <pt x="783" y="10" on="0"/>
        <pt x="778" y="10" on="1"/>
        <pt x="721" y="16" on="1"/>
        <pt x="684" y="16" on="0"/>
        <pt x="650" y="12" on="0"/>
        <pt x="649" y="12" on="1"/>
        <pt x="595" y="20" on="1"/>
        <pt x="595" y="11" on="0"/>
        <pt x="604" y="-9" on="1"/>
        <pt x="604" y="-25" on="0"/>
        <pt x="504" y="-44" on="0"/>
        <pt x="441" y="-44" on="0"/>
        <pt x="388" y="-24" on="0"/>
        <pt x="355" y="0" on="0"/>
        <pt x="355" y="5" on="1"/>
        <pt x="355" y="6" on="0"/>
        <pt x="356" y="16" on="1"/>
        <pt x="362" y="53" on="0"/>
        <pt x="362" y="71" on="1"/>
        <pt x="340" y="208" on="1"/>
        <pt x="340" y="211" on="0"/>
        <pt x="376" y="217" on="0"/>
        <pt x="376" y="227" on="1"/>
        <pt x="376" y="240" on="0"/>
        <pt x="346" y="258" on="0"/>
        <pt x="304" y="258" on="0"/>
        <pt x="244" y="236" on="0"/>
        <pt x="235" y="217" on="0"/>
        <pt x="215" y="58" on="0"/>
        <pt x="215" y="19" on="1"/>
        <pt x="215" y="15" on="0"/>
        <pt x="190" y="6" on="1"/>
        <pt x="126" y="-16" on="0"/>
        <pt x="74" y="-16" on="1"/>
        <pt x="57" y="-16" on="0"/>
        <pt x="16" y="10" on="1"/>
        <pt x="3" y="18" on="1"/>
        <pt x="0" y="21" on="0"/>
        <pt x="0" y="26" on="1"/>
        <pt x="0" y="28" on="1"/>
        <pt x="14" y="46" on="0"/>
        <pt x="36" y="110" on="1"/>
        <pt x="44" y="132" on="1"/>
        <pt x="56" y="132" on="0"/>
        <pt x="91" y="163" on="0"/>
        <pt x="91" y="176" on="0"/>
        <pt x="70" y="205" on="0"/>
        <pt x="70" y="208" on="1"/>
        <pt x="70" y="209" on="1"/>
        <pt x="107" y="301" on="1"/>
        <pt x="107" y="324" on="0"/>
        <pt x="153" y="588" on="0"/>
      </contour>
    </TTGlyph>
    <TTGlyph name="Aacute" xMin="0" yMin="-46" xMax="610" yMax="960">
      <contour>
        <pt x="356" y="868" on="1"/>
        <pt x="358" y="853" on="1"/>
        <pt x="358" y="850" on="0"/>
        <pt x="340" y="844" on="0"/>
        <pt x="294" y="805" on="0"/>
        <pt x="285" y="795" on="0"/>
        <pt x="275" y="795" on="0"/>
        <pt x="236" y="827" on="0"/>
        <pt x="236" y="844" on="0"/>
        <pt x="286" y="907" on="0"/>
        <pt x="286" y="909" on="1"/>
        <pt x="287" y="921" on="0"/>
        <pt x="287" y="922" on="1"/>
        <pt x="311" y="952" on="0"/>
        <pt x="314" y="955" on="0"/>
        <pt x="355" y="960" on="0"/>
        <pt x="379" y="960" on="0"/>
        <pt x="428" y="926" on="0"/>
        <pt x="428" y="917" on="1"/>
        <pt x="428" y="914" on="0"/>
        <pt x="420" y="908" on="1"/>
        <pt x="389" y="887" on="0"/>
        <pt x="380" y="877" on="1"/>
        <pt x="380" y="876" on="0"/>
        <pt x="356" y="876" on="0"/>
      </contour>
      <contour>
        <pt x="344" y="398" on="1"/>
        <pt x="343" y="400" on="0"/>
        <pt x="343" y="401" on="1"/>
        <pt x="330" y="442" on="0"/>
        <pt x="330" y="529" on="1"/>
        <pt x="330" y="533" on="1"/>
        <pt x="330" y="554" on="0"/>
        <pt x="321" y="554" on="1"/>
        <pt x="281" y="554" on="0"/>
        <pt x="281" y="531" on="1"/>
        <pt x="285" y="485" on="1"/>
        <pt x="285" y="479" on="0"/>
        <pt x="259" y="415" on="0"/>
        <pt x="259" y="377" on="0"/>
        <pt x="264" y="377" on="1"/>
        <pt x="273" y="377" on="0"/>
        <pt x="309" y="390" on="0"/>
        <pt x="344" y="390" on="0"/>
      </contour>
      <contour>
        <pt x="154" y="610" on="1"/>
        <pt x="141" y="668" on="1"/>
        <pt x="141" y="677" on="0"/>
        <pt x="294" y="760" on="0"/>
        <pt x="322" y="766" on="0"/>
        <pt x="396" y="766" on="0"/>
        <pt x="428" y="759" on="1"/>
        <pt x="496" y="744" on="0"/>
        <pt x="496" y="730" on="1"/>
        <pt x="496" y="729" on="0"/>
        <pt x="491" y="704" on="1"/>
        <pt x="475" y="626" on="0"/>
        <pt x="475" y="580" on="1"/>
        <pt x="475" y="575" on="0"/>
        <pt x="495" y="570" on="0"/>
        <pt x="495" y="569" on="1"/>
        <pt x="495" y="537" on="0"/>
        <pt x="534" y="214" on="0"/>
        <pt x="548" y="172" on="1"/>
        <pt x="548" y="171" on="1"/>
        <pt x="548" y="169" on="0"/>
        <pt x="517" y="147" on="0"/>
        <pt x="517" y="121" on="0"/>
        <pt x="548" y="111" on="0"/>
        <pt x="578" y="106" on="0"/>
        <pt x="578" y="98" on="1"/>
        <pt x="577" y="96" on="0"/>
        <pt x="577" y="86" on="0"/>
        <pt x="580" y="73" on="1"/>
        <pt x="583" y="53" on="0"/>
        <pt x="604" y="20" on="1"/>
        <pt x="610" y="10" on="1"/>
        <pt x="610" y="-7" on="0"/>
        <pt x="497" y="-46" on="0"/>
        <pt x="442" y="-46" on="0"/>
        <pt x="389" y="-25" on="0"/>
        <pt x="356" y="-1" on="0"/>
        <pt x="356" y="4" on="1"/>
        <pt x="356" y="5" on="0"/>
        <pt x="358" y="15" on="1"/>
        <pt x="363" y="40" on="0"/>
        <pt x="363" y="69" on="1"/>
        <pt x="341" y="206" on="1"/>
        <pt x="341" y="210" on="0"/>
        <pt x="377" y="216" on="0"/>
        <pt x="377" y="226" on="1"/>
        <pt x="377" y="239" on="0"/>
        <pt x="347" y="257" on="0"/>
        <pt x="304" y="257" on="0"/>
        <pt x="245" y="235" on="0"/>
        <pt x="236" y="216" on="0"/>
        <pt x="216" y="57" on="0"/>
        <pt x="216" y="18" on="1"/>
        <pt x="216" y="10" on="0"/>
        <pt x="110" y="-18" on="0"/>
        <pt x="75" y="-18" on="1"/>
        <pt x="57" y="-18" on="0"/>
        <pt x="16" y="8" on="1"/>
        <pt x="3" y="16" on="1"/>
        <pt x="0" y="19" on="0"/>
        <pt x="0" y="25" on="1"/>
        <pt x="0" y="27" on="1"/>
        <pt x="15" y="46" on="0"/>
        <pt x="36" y="108" on="1"/>
        <pt x="44" y="130" on="1"/>
        <pt x="57" y="130" on="0"/>
        <pt x="92" y="161" on="0"/>
        <pt x="92" y="174" on="0"/>
        <pt x="70" y="203" on="0"/>
        <pt x="70" y="206" on="1"/>
        <pt x="70" y="207" on="1"/>
        <pt x="107" y="299" on="1"/>
        <pt x="107" y="321" on="0"/>
        <pt x="154" y="587" on="0"/>
      </contour>
    </TTGlyph>
    <TTGlyph name="Acircumflex" xMin="0" yMin="-46" xMax="610" yMax="964">
      <contour>
        <pt x="229" y="913" on="1"/>
        <pt x="225" y="933" on="1"/>
        <pt x="243" y="962" on="0"/>
        <pt x="250" y="962" on="1"/>
        <pt x="271" y="962" on="1"/>
        <pt x="301" y="962" on="0"/>
        <pt x="303" y="959" on="1"/>
        <pt x="321" y="944" on="0"/>
        <pt x="326" y="944" on="0"/>
        <pt x="348" y="959" on="1"/>
        <pt x="350" y="964" on="0"/>
        <pt x="394" y="964" on="0"/>
        <pt x="401" y="958" on="0"/>
        <pt x="433" y="907" on="0"/>
        <pt x="433" y="903" on="1"/>
        <pt x="430" y="892" on="0"/>
        <pt x="430" y="872" on="0"/>
        <pt x="451" y="872" on="1"/>
        <pt x="478" y="838" on="0"/>
        <pt x="478" y="831" on="0"/>
        <pt x="474" y="827" on="0"/>
        <pt x="468" y="823" on="0"/>
        <pt x="457" y="812" on="0"/>
        <pt x="434" y="801" on="0"/>
        <pt x="422" y="799" on="1"/>
        <pt x="399" y="799" on="0"/>
        <pt x="399" y="803" on="1"/>
        <pt x="361" y="848" on="1"/>
        <pt x="344" y="851" on="0"/>
        <pt x="344" y="856" on="1"/>
        <pt x="344" y="869" on="0"/>
        <pt x="326" y="898" on="0"/>
        <pt x="320" y="898" on="1"/>
        <pt x="315" y="898" on="0"/>
        <pt x="292" y="870" on="1"/>
        <pt x="285" y="860" on="1"/>
        <pt x="285" y="844" on="0"/>
        <pt x="279" y="840" on="1"/>
        <pt x="263" y="840" on="0"/>
        <pt x="226" y="800" on="0"/>
        <pt x="225" y="800" on="1"/>
        <pt x="209" y="800" on="0"/>
        <pt x="178" y="815" on="0"/>
        <pt x="163" y="829" on="0"/>
        <pt x="163" y="831" on="1"/>
        <pt x="182" y="862" on="1"/>
        <pt x="202" y="893" on="0"/>
        <pt x="202" y="898" on="1"/>
        <pt x="229" y="904" on="0"/>
      </contour>
      <contour>
        <pt x="344" y="398" on="1"/>
        <pt x="343" y="400" on="0"/>
        <pt x="343" y="401" on="1"/>
        <pt x="330" y="442" on="0"/>
        <pt x="330" y="529" on="1"/>
        <pt x="330" y="533" on="1"/>
        <pt x="330" y="554" on="0"/>
        <pt x="321" y="554" on="1"/>
        <pt x="281" y="554" on="0"/>
        <pt x="281" y="531" on="1"/>
        <pt x="285" y="485" on="1"/>
        <pt x="285" y="479" on="0"/>
        <pt x="259" y="415" on="0"/>
        <pt x="259" y="377" on="0"/>
        <pt x="264" y="377" on="1"/>
        <pt x="273" y="377" on="0"/>
        <pt x="309" y="390" on="0"/>
        <pt x="344" y="390" on="0"/>
      </contour>
      <contour>
        <pt x="154" y="610" on="1"/>
        <pt x="141" y="668" on="1"/>
        <pt x="141" y="677" on="0"/>
        <pt x="294" y="760" on="0"/>
        <pt x="322" y="766" on="0"/>
        <pt x="396" y="766" on="0"/>
        <pt x="428" y="759" on="1"/>
        <pt x="496" y="744" on="0"/>
        <pt x="496" y="730" on="1"/>
        <pt x="496" y="729" on="0"/>
        <pt x="491" y="704" on="1"/>
        <pt x="475" y="626" on="0"/>
        <pt x="475" y="580" on="1"/>
        <pt x="475" y="575" on="0"/>
        <pt x="495" y="570" on="0"/>
        <pt x="495" y="569" on="1"/>
        <pt x="495" y="537" on="0"/>
        <pt x="534" y="214" on="0"/>
        <pt x="548" y="172" on="1"/>
        <pt x="548" y="171" on="1"/>
        <pt x="548" y="169" on="0"/>
        <pt x="517" y="147" on="0"/>
        <pt x="517" y="121" on="0"/>
        <pt x="548" y="111" on="0"/>
        <pt x="578" y="106" on="0"/>
        <pt x="578" y="98" on="1"/>
        <pt x="577" y="96" on="0"/>
        <pt x="577" y="86" on="0"/>
        <pt x="580" y="73" on="1"/>
        <pt x="583" y="53" on="0"/>
        <pt x="604" y="20" on="1"/>
        <pt x="610" y="10" on="1"/>
        <pt x="610" y="-7" on="0"/>
        <pt x="497" y="-46" on="0"/>
        <pt x="442" y="-46" on="0"/>
        <pt x="389" y="-25" on="0"/>
        <pt x="356" y="-1" on="0"/>
        <pt x="356" y="4" on="1"/>
        <pt x="356" y="5" on="0"/>
        <pt x="358" y="15" on="1"/>
        <pt x="363" y="40" on="0"/>
        <pt x="363" y="69" on="1"/>
        <pt x="341" y="206" on="1"/>
        <pt x="341" y="210" on="0"/>
        <pt x="377" y="216" on="0"/>
        <pt x="377" y="226" on="1"/>
        <pt x="377" y="239" on="0"/>
        <pt x="347" y="257" on="0"/>
        <pt x="304" y="257" on="0"/>
        <pt x="245" y="235" on="0"/>
        <pt x="236" y="216" on="0"/>
        <pt x="216" y="57" on="0"/>
        <pt x="216" y="18" on="1"/>
        <pt x="216" y="10" on="0"/>
        <pt x="110" y="-18" on="0"/>
        <pt x="75" y="-18" on="1"/>
        <pt x="57" y="-18" on="0"/>
        <pt x="16" y="8" on="1"/>
        <pt x="3" y="16" on="1"/>
        <pt x="0" y="19" on="0"/>
        <pt x="0" y="25" on="1"/>
        <pt x="0" y="27" on="1"/>
        <pt x="15" y="46" on="0"/>
        <pt x="36" y="108" on="1"/>
        <pt x="44" y="130" on="1"/>
        <pt x="57" y="130" on="0"/>
        <pt x="92" y="161" on="0"/>
        <pt x="92" y="174" on="0"/>
        <pt x="70" y="203" on="0"/>
        <pt x="70" y="206" on="1"/>
        <pt x="70" y="207" on="1"/>
        <pt x="107" y="299" on="1"/>
        <pt x="107" y="321" on="0"/>
        <pt x="154" y="587" on="0"/>
      </contour>
    </TTGlyph>
    <TTGlyph name="Adieresis" xMin="0" yMin="-46" xMax="610" yMax="943">
      <contour>
        <pt x="281" y="889" on="1"/>
        <pt x="281" y="869" on="0"/>
        <pt x="270" y="838" on="0"/>
        <pt x="260" y="828" on="1"/>
        <pt x="252" y="822" on="0"/>
        <pt x="212" y="809" on="0"/>
        <pt x="175" y="809" on="0"/>
        <pt x="167" y="817" on="1"/>
        <pt x="166" y="818" on="0"/>
        <pt x="166" y="828" on="1"/>
        <pt x="166" y="843" on="0"/>
        <pt x="155" y="843" on="1"/>
        <pt x="149" y="843" on="1"/>
        <pt x="145" y="843" on="0"/>
        <pt x="139" y="848" on="0"/>
        <pt x="139" y="897" on="0"/>
        <pt x="142" y="902" on="0"/>
        <pt x="163" y="924" on="0"/>
        <pt x="174" y="930" on="1"/>
        <pt x="217" y="943" on="0"/>
        <pt x="237" y="943" on="0"/>
        <pt x="266" y="934" on="0"/>
        <pt x="266" y="930" on="1"/>
        <pt x="262" y="920" on="0"/>
        <pt x="262" y="911" on="1"/>
        <pt x="281" y="895" on="0"/>
      </contour>
      <contour>
        <pt x="503" y="876" on="1"/>
        <pt x="502" y="846" on="0"/>
        <pt x="484" y="828" on="0"/>
        <pt x="474" y="828" on="0"/>
        <pt x="444" y="801" on="0"/>
        <pt x="442" y="801" on="1"/>
        <pt x="399" y="807" on="1"/>
        <pt x="385" y="812" on="0"/>
        <pt x="356" y="837" on="1"/>
        <pt x="353" y="840" on="0"/>
        <pt x="353" y="870" on="0"/>
        <pt x="360" y="906" on="0"/>
        <pt x="364" y="906" on="1"/>
        <pt x="377" y="906" on="0"/>
        <pt x="418" y="939" on="1"/>
        <pt x="428" y="943" on="0"/>
        <pt x="436" y="943" on="1"/>
        <pt x="487" y="931" on="0"/>
        <pt x="487" y="916" on="1"/>
        <pt x="481" y="907" on="0"/>
        <pt x="481" y="896" on="0"/>
        <pt x="503" y="882" on="0"/>
      </contour>
      <contour>
        <pt x="344" y="398" on="1"/>
        <pt x="343" y="400" on="0"/>
        <pt x="343" y="401" on="1"/>
        <pt x="330" y="442" on="0"/>
        <pt x="330" y="529" on="1"/>
        <pt x="330" y="533" on="1"/>
        <pt x="330" y="554" on="0"/>
        <pt x="321" y="554" on="1"/>
        <pt x="281" y="554" on="0"/>
        <pt x="281" y="531" on="1"/>
        <pt x="285" y="485" on="1"/>
        <pt x="285" y="479" on="0"/>
        <pt x="259" y="415" on="0"/>
        <pt x="259" y="377" on="0"/>
        <pt x="264" y="377" on="1"/>
        <pt x="273" y="377" on="0"/>
        <pt x="309" y="390" on="0"/>
        <pt x="344" y="390" on="0"/>
      </contour>
      <contour>
        <pt x="154" y="610" on="1"/>
        <pt x="141" y="668" on="1"/>
        <pt x="141" y="677" on="0"/>
        <pt x="294" y="760" on="0"/>
        <pt x="322" y="766" on="0"/>
        <pt x="396" y="766" on="0"/>
        <pt x="428" y="759" on="1"/>
        <pt x="496" y="744" on="0"/>
        <pt x="496" y="730" on="1"/>
        <pt x="496" y="729" on="0"/>
        <pt x="491" y="704" on="1"/>
        <pt x="475" y="626" on="0"/>
        <pt x="475" y="580" on="1"/>
        <pt x="475" y="575" on="0"/>
        <pt x="495" y="570" on="0"/>
        <pt x="495" y="569" on="1"/>
        <pt x="495" y="537" on="0"/>
        <pt x="534" y="214" on="0"/>
        <pt x="548" y="172" on="1"/>
        <pt x="548" y="171" on="1"/>
        <pt x="548" y="169" on="0"/>
        <pt x="517" y="147" on="0"/>
        <pt x="517" y="121" on="0"/>
        <pt x="548" y="111" on="0"/>
        <pt x="578" y="106" on="0"/>
        <pt x="578" y="98" on="1"/>
        <pt x="577" y="96" on="0"/>
        <pt x="577" y="86" on="0"/>
        <pt x="580" y="73" on="1"/>
        <pt x="583" y="53" on="0"/>
        <pt x="604" y="20" on="1"/>
        <pt x="610" y="10" on="1"/>
        <pt x="610" y="-7" on="0"/>
        <pt x="497" y="-46" on="0"/>
        <pt x="442" y="-46" on="0"/>
        <pt x="389" y="-25" on="0"/>
        <pt x="356" y="-1" on="0"/>
        <pt x="356" y="4" on="1"/>
        <pt x="356" y="5" on="0"/>
        <pt x="358" y="15" on="1"/>
        <pt x="363" y="40" on="0"/>
        <pt x="363" y="69" on="1"/>
        <pt x="341" y="206" on="1"/>
        <pt x="341" y="210" on="0"/>
        <pt x="377" y="216" on="0"/>
        <pt x="377" y="226" on="1"/>
        <pt x="377" y="239" on="0"/>
        <pt x="347" y="257" on="0"/>
        <pt x="304" y="257" on="0"/>
        <pt x="245" y="235" on="0"/>
        <pt x="236" y="216" on="0"/>
        <pt x="216" y="57" on="0"/>
        <pt x="216" y="18" on="1"/>
        <pt x="216" y="10" on="0"/>
        <pt x="110" y="-18" on="0"/>
        <pt x="75" y="-18" on="1"/>
        <pt x="57" y="-18" on="0"/>
        <pt x="16" y="8" on="1"/>
        <pt x="3" y="16" on="1"/>
        <pt x="0" y="19" on="0"/>
        <pt x="0" y="25" on="1"/>
        <pt x="0" y="27" on="1"/>
        <pt x="15" y="46" on="0"/>
        <pt x="36" y="108" on="1"/>
        <pt x="44" y="130" on="1"/>
        <pt x="57" y="130" on="0"/>
        <pt x="92" y="161" on="0"/>
        <pt x="92" y="174" on="0"/>
        <pt x="70" y="203" on="0"/>
        <pt x="70" y="206" on="1"/>
        <pt x="70" y="207" on="1"/>
        <pt x="107" y="299" on="1"/>
        <pt x="107" y="321" on="0"/>
        <pt x="154" y="587" on="0"/>
      </contour>
    </TTGlyph>
    <TTGlyph name="Agrave" xMin="0" yMin="-46" xMax="610" yMax="958">
      <contour>
        <pt x="261" y="881" on="1"/>
        <pt x="247" y="880" on="1"/>
        <pt x="246" y="880" on="1"/>
        <pt x="246" y="881" on="0"/>
        <pt x="207" y="921" on="0"/>
        <pt x="207" y="923" on="1"/>
        <pt x="207" y="928" on="0"/>
        <pt x="268" y="958" on="0"/>
        <pt x="284" y="958" on="1"/>
        <pt x="339" y="947" on="0"/>
        <pt x="341" y="945" on="1"/>
        <pt x="385" y="854" on="0"/>
        <pt x="404" y="835" on="1"/>
        <pt x="404" y="834" on="1"/>
        <pt x="404" y="823" on="0"/>
        <pt x="355" y="807" on="0"/>
        <pt x="337" y="807" on="1"/>
        <pt x="332" y="807" on="0"/>
        <pt x="277" y="852" on="0"/>
        <pt x="273" y="852" on="1"/>
        <pt x="272" y="852" on="0"/>
        <pt x="272" y="857" on="1"/>
        <pt x="272" y="867" on="1"/>
        <pt x="272" y="876" on="0"/>
        <pt x="267" y="881" on="0"/>
      </contour>
      <contour>
        <pt x="344" y="398" on="1"/>
        <pt x="343" y="400" on="0"/>
        <pt x="343" y="401" on="1"/>
        <pt x="330" y="442" on="0"/>
        <pt x="330" y="529" on="1"/>
        <pt x="330" y="533" on="1"/>
        <pt x="330" y="554" on="0"/>
        <pt x="321" y="554" on="1"/>
        <pt x="281" y="554" on="0"/>
        <pt x="281" y="531" on="1"/>
        <pt x="285" y="485" on="1"/>
        <pt x="285" y="479" on="0"/>
        <pt x="259" y="415" on="0"/>
        <pt x="259" y="377" on="0"/>
        <pt x="264" y="377" on="1"/>
        <pt x="273" y="377" on="0"/>
        <pt x="309" y="390" on="0"/>
        <pt x="344" y="390" on="0"/>
      </contour>
      <contour>
        <pt x="154" y="610" on="1"/>
        <pt x="141" y="668" on="1"/>
        <pt x="141" y="677" on="0"/>
        <pt x="294" y="760" on="0"/>
        <pt x="322" y="766" on="0"/>
        <pt x="396" y="766" on="0"/>
        <pt x="428" y="759" on="1"/>
        <pt x="496" y="744" on="0"/>
        <pt x="496" y="730" on="1"/>
        <pt x="496" y="729" on="0"/>
        <pt x="491" y="704" on="1"/>
        <pt x="475" y="626" on="0"/>
        <pt x="475" y="580" on="1"/>
        <pt x="475" y="575" on="0"/>
        <pt x="495" y="570" on="0"/>
        <pt x="495" y="569" on="1"/>
        <pt x="495" y="537" on="0"/>
        <pt x="534" y="214" on="0"/>
        <pt x="548" y="172" on="1"/>
        <pt x="548" y="171" on="1"/>
        <pt x="548" y="169" on="0"/>
        <pt x="517" y="147" on="0"/>
        <pt x="517" y="121" on="0"/>
        <pt x="548" y="111" on="0"/>
        <pt x="578" y="106" on="0"/>
        <pt x="578" y="98" on="1"/>
        <pt x="577" y="96" on="0"/>
        <pt x="577" y="86" on="0"/>
        <pt x="580" y="73" on="1"/>
        <pt x="583" y="53" on="0"/>
        <pt x="604" y="20" on="1"/>
        <pt x="610" y="10" on="1"/>
        <pt x="610" y="-7" on="0"/>
        <pt x="497" y="-46" on="0"/>
        <pt x="442" y="-46" on="0"/>
        <pt x="389" y="-25" on="0"/>
        <pt x="356" y="-1" on="0"/>
        <pt x="356" y="4" on="1"/>
        <pt x="356" y="5" on="0"/>
        <pt x="358" y="15" on="1"/>
        <pt x="363" y="40" on="0"/>
        <pt x="363" y="69" on="1"/>
        <pt x="341" y="206" on="1"/>
        <pt x="341" y="210" on="0"/>
        <pt x="377" y="216" on="0"/>
        <pt x="377" y="226" on="1"/>
        <pt x="377" y="239" on="0"/>
        <pt x="347" y="257" on="0"/>
        <pt x="304" y="257" on="0"/>
        <pt x="245" y="235" on="0"/>
        <pt x="236" y="216" on="0"/>
        <pt x="216" y="57" on="0"/>
        <pt x="216" y="18" on="1"/>
        <pt x="216" y="10" on="0"/>
        <pt x="110" y="-18" on="0"/>
        <pt x="75" y="-18" on="1"/>
        <pt x="57" y="-18" on="0"/>
        <pt x="16" y="8" on="1"/>
        <pt x="3" y="16" on="1"/>
        <pt x="0" y="19" on="0"/>
        <pt x="0" y="25" on="1"/>
        <pt x="0" y="27" on="1"/>
        <pt x="15" y="46" on="0"/>
        <pt x="36" y="108" on="1"/>
        <pt x="44" y="130" on="1"/>
        <pt x="57" y="130" on="0"/>
        <pt x="92" y="161" on="0"/>
        <pt x="92" y="174" on="0"/>
        <pt x="70" y="203" on="0"/>
        <pt x="70" y="206" on="1"/>
        <pt x="70" y="207" on="1"/>
        <pt x="107" y="299" on="1"/>
        <pt x="107" y="321" on="0"/>
        <pt x="154" y="587" on="0"/>
      </contour>
    </TTGlyph>
    <TTGlyph name="Aring" xMin="0" yMin="-46" xMax="610" yMax="966">
      <contour>
        <pt x="338" y="860" on="1"/>
        <pt x="345" y="865" on="0"/>
        <pt x="345" y="884" on="0"/>
        <pt x="339" y="884" on="0"/>
        <pt x="331" y="911" on="0"/>
        <pt x="323" y="911" on="1"/>
        <pt x="301" y="911" on="0"/>
        <pt x="301" y="905" on="1"/>
        <pt x="301" y="904" on="0"/>
        <pt x="284" y="887" on="0"/>
        <pt x="284" y="881" on="1"/>
        <pt x="288" y="863" on="0"/>
        <pt x="292" y="858" on="1"/>
        <pt x="308" y="850" on="0"/>
        <pt x="331" y="852" on="0"/>
      </contour>
      <contour>
        <pt x="388" y="916" on="1"/>
        <pt x="403" y="884" on="1"/>
        <pt x="403" y="845" on="0"/>
        <pt x="382" y="824" on="1"/>
        <pt x="379" y="821" on="0"/>
        <pt x="350" y="805" on="0"/>
        <pt x="338" y="797" on="1"/>
        <pt x="336" y="796" on="0"/>
        <pt x="323" y="796" on="1"/>
        <pt x="276" y="798" on="1"/>
        <pt x="267" y="800" on="0"/>
        <pt x="249" y="834" on="1"/>
        <pt x="248" y="835" on="0"/>
        <pt x="246" y="835" on="1"/>
        <pt x="239" y="834" on="1"/>
        <pt x="235" y="834" on="0"/>
        <pt x="228" y="881" on="0"/>
        <pt x="228" y="894" on="1"/>
        <pt x="228" y="899" on="0"/>
        <pt x="282" y="961" on="0"/>
        <pt x="290" y="962" on="1"/>
        <pt x="300" y="962" on="1"/>
        <pt x="332" y="959" on="1"/>
        <pt x="334" y="960" on="1"/>
        <pt x="340" y="966" on="0"/>
        <pt x="359" y="966" on="0"/>
        <pt x="388" y="934" on="0"/>
      </contour>
      <contour>
        <pt x="344" y="398" on="1"/>
        <pt x="343" y="400" on="0"/>
        <pt x="343" y="401" on="1"/>
        <pt x="330" y="442" on="0"/>
        <pt x="330" y="529" on="1"/>
        <pt x="330" y="533" on="1"/>
        <pt x="330" y="554" on="0"/>
        <pt x="321" y="554" on="1"/>
        <pt x="281" y="554" on="0"/>
        <pt x="281" y="531" on="1"/>
        <pt x="285" y="485" on="1"/>
        <pt x="285" y="479" on="0"/>
        <pt x="259" y="415" on="0"/>
        <pt x="259" y="377" on="0"/>
        <pt x="264" y="377" on="1"/>
        <pt x="273" y="377" on="0"/>
        <pt x="309" y="390" on="0"/>
        <pt x="344" y="390" on="0"/>
      </contour>
      <contour>
        <pt x="154" y="610" on="1"/>
        <pt x="141" y="668" on="1"/>
        <pt x="141" y="677" on="0"/>
        <pt x="294" y="760" on="0"/>
        <pt x="322" y="766" on="0"/>
        <pt x="396" y="766" on="0"/>
        <pt x="428" y="759" on="1"/>
        <pt x="496" y="744" on="0"/>
        <pt x="496" y="730" on="1"/>
        <pt x="496" y="729" on="0"/>
        <pt x="491" y="704" on="1"/>
        <pt x="475" y="626" on="0"/>
        <pt x="475" y="580" on="1"/>
        <pt x="475" y="575" on="0"/>
        <pt x="495" y="570" on="0"/>
        <pt x="495" y="569" on="1"/>
        <pt x="495" y="537" on="0"/>
        <pt x="534" y="214" on="0"/>
        <pt x="548" y="172" on="1"/>
        <pt x="548" y="171" on="1"/>
        <pt x="548" y="169" on="0"/>
        <pt x="517" y="147" on="0"/>
        <pt x="517" y="121" on="0"/>
        <pt x="548" y="111" on="0"/>
        <pt x="578" y="106" on="0"/>
        <pt x="578" y="98" on="1"/>
        <pt x="577" y="96" on="0"/>
        <pt x="577" y="86" on="0"/>
        <pt x="580" y="73" on="1"/>
        <pt x="583" y="53" on="0"/>
        <pt x="604" y="20" on="1"/>
        <pt x="610" y="10" on="1"/>
        <pt x="610" y="-7" on="0"/>
        <pt x="497" y="-46" on="0"/>
        <pt x="442" y="-46" on="0"/>
        <pt x="389" y="-25" on="0"/>
        <pt x="356" y="-1" on="0"/>
        <pt x="356" y="4" on="1"/>
        <pt x="356" y="5" on="0"/>
        <pt x="358" y="15" on="1"/>
        <pt x="363" y="40" on="0"/>
        <pt x="363" y="69" on="1"/>
        <pt x="341" y="206" on="1"/>
        <pt x="341" y="210" on="0"/>
        <pt x="377" y="216" on="0"/>
        <pt x="377" y="226" on="1"/>
        <pt x="377" y="239" on="0"/>
        <pt x="347" y="257" on="0"/>
        <pt x="304" y="257" on="0"/>
        <pt x="245" y="235" on="0"/>
        <pt x="236" y="216" on="0"/>
        <pt x="216" y="57" on="0"/>
        <pt x="216" y="18" on="1"/>
        <pt x="216" y="10" on="0"/>
        <pt x="110" y="-18" on="0"/>
        <pt x="75" y="-18" on="1"/>
        <pt x="57" y="-18" on="0"/>
        <pt x="16" y="8" on="1"/>
        <pt x="3" y="16" on="1"/>
        <pt x="0" y="19" on="0"/>
        <pt x="0" y="25" on="1"/>
        <pt x="0" y="27" on="1"/>
        <pt x="15" y="46" on="0"/>
        <pt x="36" y="108" on="1"/>
        <pt x="44" y="130" on="1"/>
        <pt x="57" y="130" on="0"/>
        <pt x="92" y="161" on="0"/>
        <pt x="92" y="174" on="0"/>
        <pt x="70" y="203" on="0"/>
        <pt x="70" y="206" on="1"/>
        <pt x="70" y="207" on="1"/>
        <pt x="107" y="299" on="1"/>
        <pt x="107" y="321" on="0"/>
        <pt x="154" y="587" on="0"/>
      </contour>
    </TTGlyph>
    <TTGlyph name="Atilde" xMin="0" yMin="-46" xMax="610" yMax="902">
      <contour>
        <pt x="344" y="398" on="1"/>
        <pt x="343" y="400" on="0"/>
        <pt x="343" y="401" on="1"/>
        <pt x="330" y="442" on="0"/>
        <pt x="330" y="529" on="1"/>
        <pt x="330" y="533" on="1"/>
        <pt x="330" y="554" on="0"/>
        <pt x="321" y="554" on="1"/>
        <pt x="281" y="554" on="0"/>
        <pt x="281" y="531" on="1"/>
        <pt x="285" y="485" on="1"/>
        <pt x="285" y="479" on="0"/>
        <pt x="259" y="415" on="0"/>
        <pt x="259" y="377" on="0"/>
        <pt x="264" y="377" on="1"/>
        <pt x="273" y="377" on="0"/>
        <pt x="309" y="390" on="0"/>
        <pt x="344" y="390" on="0"/>
      </contour>
      <contour>
        <pt x="154" y="610" on="1"/>
        <pt x="141" y="668" on="1"/>
        <pt x="141" y="677" on="0"/>
        <pt x="294" y="760" on="0"/>
        <pt x="322" y="766" on="0"/>
        <pt x="396" y="766" on="0"/>
        <pt x="428" y="759" on="1"/>
        <pt x="496" y="744" on="0"/>
        <pt x="496" y="730" on="1"/>
        <pt x="496" y="729" on="0"/>
        <pt x="491" y="704" on="1"/>
        <pt x="475" y="626" on="0"/>
        <pt x="475" y="580" on="1"/>
        <pt x="475" y="575" on="0"/>
        <pt x="495" y="570" on="0"/>
        <pt x="495" y="569" on="1"/>
        <pt x="495" y="537" on="0"/>
        <pt x="534" y="214" on="0"/>
        <pt x="548" y="172" on="1"/>
        <pt x="548" y="171" on="1"/>
        <pt x="548" y="169" on="0"/>
        <pt x="517" y="147" on="0"/>
        <pt x="517" y="121" on="0"/>
        <pt x="548" y="111" on="0"/>
        <pt x="578" y="106" on="0"/>
        <pt x="578" y="98" on="1"/>
        <pt x="577" y="96" on="0"/>
        <pt x="577" y="86" on="0"/>
        <pt x="580" y="73" on="1"/>
        <pt x="583" y="53" on="0"/>
        <pt x="604" y="20" on="1"/>
        <pt x="610" y="10" on="1"/>
        <pt x="610" y="-7" on="0"/>
        <pt x="497" y="-46" on="0"/>
        <pt x="442" y="-46" on="0"/>
        <pt x="389" y="-25" on="0"/>
        <pt x="356" y="-1" on="0"/>
        <pt x="356" y="4" on="1"/>
        <pt x="356" y="5" on="0"/>
        <pt x="358" y="15" on="1"/>
        <pt x="363" y="40" on="0"/>
        <pt x="363" y="69" on="1"/>
        <pt x="341" y="206" on="1"/>
        <pt x="341" y="210" on="0"/>
        <pt x="377" y="216" on="0"/>
        <pt x="377" y="226" on="1"/>
        <pt x="377" y="239" on="0"/>
        <pt x="347" y="257" on="0"/>
        <pt x="304" y="257" on="0"/>
        <pt x="245" y="235" on="0"/>
        <pt x="236" y="216" on="0"/>
        <pt x="216" y="57" on="0"/>
        <pt x="216" y="18" on="1"/>
        <pt x="216" y="10" on="0"/>
        <pt x="110" y="-18" on="0"/>
        <pt x="75" y="-18" on="1"/>
        <pt x="57" y="-18" on="0"/>
        <pt x="16" y="8" on="1"/>
        <pt x="3" y="16" on="1"/>
        <pt x="0" y="19" on="0"/>
        <pt x="0" y="25" on="1"/>
        <pt x="0" y="27" on="1"/>
        <pt x="15" y="46" on="0"/>
        <pt x="36" y="108" on="1"/>
        <pt x="44" y="130" on="1"/>
        <pt x="57" y="130" on="0"/>
        <pt x="92" y="161" on="0"/>
        <pt x="92" y="174" on="0"/>
        <pt x="70" y="203" on="0"/>
        <pt x="70" y="206" on="1"/>
        <pt x="70" y="207" on="1"/>
        <pt x="107" y="299" on="1"/>
        <pt x="107" y="321" on="0"/>
        <pt x="154" y="587" on="0"/>
      </contour>
      <contour>
        <pt x="469" y="843" on="1"/>
        <pt x="469" y="836" on="0"/>
        <pt x="400" y="793" on="0"/>
        <pt x="380" y="793" on="0"/>
        <pt x="311" y="829" on="0"/>
        <pt x="295" y="829" on="0"/>
        <pt x="225" y="807" on="0"/>
        <pt x="220" y="807" on="0"/>
        <pt x="207" y="846" on="0"/>
        <pt x="207" y="856" on="1"/>
        <pt x="272" y="902" on="0"/>
        <pt x="297" y="902" on="0"/>
        <pt x="389" y="869" on="0"/>
        <pt x="398" y="869" on="0"/>
        <pt x="449" y="891" on="0"/>
        <pt x="455" y="891" on="0"/>
        <pt x="469" y="859" on="0"/>
      </contour>
    </TTGlyph>
    <TTGlyph name="B" xMin="20" yMin="-32" xMax="554" yMax="786">
      <contour>
        <pt x="251" y="525" on="1"/>
        <pt x="233" y="484" on="1"/>
        <pt x="233" y="478" on="0"/>
        <pt x="243" y="459" on="0"/>
        <pt x="247" y="459" on="1"/>
        <pt x="278" y="469" on="0"/>
        <pt x="278" y="476" on="1"/>
        <pt x="278" y="478" on="0"/>
        <pt x="324" y="504" on="0"/>
        <pt x="324" y="520" on="1"/>
        <pt x="324" y="524" on="0"/>
        <pt x="316" y="538" on="0"/>
        <pt x="316" y="554" on="0"/>
        <pt x="322" y="570" on="1"/>
        <pt x="327" y="585" on="1"/>
        <pt x="327" y="599" on="0"/>
        <pt x="299" y="639" on="0"/>
        <pt x="275" y="639" on="0"/>
        <pt x="247" y="618" on="0"/>
        <pt x="246" y="613" on="1"/>
        <pt x="246" y="611" on="1"/>
      </contour>
      <contour>
        <pt x="249" y="230" on="1"/>
        <pt x="245" y="174" on="1"/>
        <pt x="245" y="155" on="0"/>
        <pt x="256" y="125" on="0"/>
        <pt x="262" y="125" on="1"/>
        <pt x="270" y="125" on="0"/>
        <pt x="313" y="136" on="0"/>
        <pt x="320" y="142" on="1"/>
        <pt x="330" y="152" on="0"/>
        <pt x="352" y="201" on="0"/>
        <pt x="352" y="220" on="0"/>
        <pt x="320" y="258" on="0"/>
        <pt x="320" y="263" on="1"/>
        <pt x="328" y="297" on="1"/>
        <pt x="328" y="308" on="0"/>
        <pt x="293" y="329" on="0"/>
        <pt x="275" y="329" on="0"/>
        <pt x="246" y="288" on="0"/>
        <pt x="246" y="282" on="1"/>
        <pt x="249" y="239" on="1"/>
      </contour>
      <contour>
        <pt x="516" y="140" on="1"/>
        <pt x="494" y="127" on="0"/>
        <pt x="494" y="104" on="0"/>
        <pt x="508" y="84" on="1"/>
        <pt x="508" y="77" on="0"/>
        <pt x="461" y="33" on="0"/>
        <pt x="425" y="8" on="0"/>
        <pt x="346" y="-26" on="0"/>
        <pt x="307" y="-26" on="0"/>
        <pt x="219" y="5" on="0"/>
        <pt x="213" y="5" on="0"/>
        <pt x="179" y="-32" on="0"/>
        <pt x="169" y="-32" on="1"/>
        <pt x="135" y="-32" on="0"/>
        <pt x="30" y="32" on="0"/>
        <pt x="30" y="44" on="1"/>
        <pt x="30" y="46" on="0"/>
        <pt x="37" y="62" on="1"/>
        <pt x="57" y="108" on="0"/>
        <pt x="57" y="186" on="1"/>
        <pt x="55" y="231" on="1"/>
        <pt x="55" y="232" on="0"/>
        <pt x="62" y="235" on="1"/>
        <pt x="85" y="244" on="0"/>
        <pt x="85" y="276" on="0"/>
        <pt x="52" y="304" on="0"/>
        <pt x="52" y="306" on="1"/>
        <pt x="52" y="307" on="1"/>
        <pt x="59" y="329" on="0"/>
        <pt x="59" y="383" on="1"/>
        <pt x="56" y="510" on="1"/>
        <pt x="56" y="524" on="1"/>
        <pt x="56" y="530" on="0"/>
        <pt x="41" y="554" on="0"/>
        <pt x="41" y="569" on="0"/>
        <pt x="67" y="603" on="0"/>
        <pt x="67" y="625" on="0"/>
        <pt x="20" y="703" on="0"/>
        <pt x="20" y="704" on="1"/>
        <pt x="20" y="717" on="0"/>
        <pt x="100" y="764" on="0"/>
        <pt x="121" y="764" on="1"/>
        <pt x="165" y="786" on="0"/>
        <pt x="188" y="786" on="1"/>
        <pt x="197" y="786" on="0"/>
        <pt x="236" y="718" on="0"/>
        <pt x="242" y="718" on="0"/>
        <pt x="267" y="733" on="1"/>
        <pt x="340" y="777" on="0"/>
        <pt x="409" y="777" on="0"/>
        <pt x="509" y="716" on="0"/>
        <pt x="509" y="698" on="1"/>
        <pt x="496" y="685" on="1"/>
        <pt x="483" y="672" on="0"/>
        <pt x="483" y="659" on="1"/>
        <pt x="483" y="648" on="0"/>
        <pt x="522" y="639" on="0"/>
        <pt x="522" y="637" on="1"/>
        <pt x="522" y="542" on="0"/>
        <pt x="476" y="496" on="1"/>
        <pt x="465" y="485" on="0"/>
        <pt x="420" y="455" on="0"/>
        <pt x="395" y="430" on="0"/>
        <pt x="395" y="414" on="1"/>
        <pt x="399" y="399" on="0"/>
        <pt x="405" y="399" on="1"/>
        <pt x="407" y="399" on="0"/>
        <pt x="450" y="422" on="0"/>
        <pt x="466" y="422" on="1"/>
        <pt x="472" y="422" on="0"/>
        <pt x="513" y="375" on="0"/>
        <pt x="554" y="287" on="0"/>
        <pt x="554" y="225" on="0"/>
        <pt x="540" y="159" on="0"/>
        <pt x="540" y="150" on="0"/>
        <pt x="535" y="147" on="1"/>
        <pt x="523" y="140" on="0"/>
      </contour>
    </TTGlyph>
    <TTGlyph name="C" xMin="15" yMin="-23" xMax="519" yMax="772">
      <contour>
        <pt x="223" y="578" on="1"/>
        <pt x="225" y="565" on="1"/>
        <pt x="225" y="562" on="0"/>
        <pt x="211" y="497" on="0"/>
        <pt x="211" y="471" on="1"/>
        <pt x="211" y="467" on="0"/>
        <pt x="235" y="444" on="0"/>
        <pt x="235" y="421" on="0"/>
        <pt x="203" y="393" on="0"/>
        <pt x="203" y="379" on="0"/>
        <pt x="216" y="365" on="0"/>
        <pt x="228" y="357" on="0"/>
        <pt x="228" y="355" on="1"/>
        <pt x="225" y="343" on="0"/>
        <pt x="225" y="306" on="1"/>
        <pt x="225" y="258" on="1"/>
        <pt x="225" y="226" on="0"/>
        <pt x="223" y="215" on="1"/>
        <pt x="223" y="213" on="1"/>
        <pt x="223" y="193" on="0"/>
        <pt x="277" y="126" on="0"/>
        <pt x="307" y="126" on="1"/>
        <pt x="322" y="126" on="0"/>
        <pt x="390" y="214" on="0"/>
        <pt x="390" y="254" on="1"/>
        <pt x="390" y="259" on="0"/>
        <pt x="402" y="259" on="1"/>
        <pt x="405" y="259" on="1"/>
        <pt x="412" y="258" on="0"/>
        <pt x="473" y="224" on="0"/>
        <pt x="490" y="207" on="0"/>
        <pt x="519" y="156" on="0"/>
        <pt x="519" y="153" on="1"/>
        <pt x="519" y="116" on="0"/>
        <pt x="413" y="-2" on="0"/>
        <pt x="396" y="-2" on="1"/>
        <pt x="394" y="-2" on="0"/>
        <pt x="376" y="15" on="0"/>
        <pt x="364" y="15" on="0"/>
        <pt x="342" y="6" on="1"/>
        <pt x="278" y="-23" on="0"/>
        <pt x="222" y="-23" on="1"/>
        <pt x="201" y="-23" on="0"/>
        <pt x="92" y="43" on="0"/>
        <pt x="77" y="67" on="1"/>
        <pt x="50" y="110" on="0"/>
        <pt x="16" y="205" on="0"/>
        <pt x="16" y="218" on="1"/>
        <pt x="31" y="232" on="1"/>
        <pt x="46" y="246" on="0"/>
        <pt x="46" y="272" on="0"/>
        <pt x="19" y="297" on="0"/>
        <pt x="20" y="303" on="0"/>
        <pt x="20" y="317" on="1"/>
        <pt x="15" y="413" on="1"/>
        <pt x="15" y="438" on="0"/>
        <pt x="37" y="527" on="0"/>
        <pt x="37" y="549" on="0"/>
        <pt x="26" y="579" on="0"/>
        <pt x="26" y="580" on="1"/>
        <pt x="26" y="605" on="0"/>
        <pt x="172" y="735" on="0"/>
        <pt x="214" y="750" on="1"/>
        <pt x="290" y="772" on="0"/>
        <pt x="407" y="772" on="1"/>
        <pt x="434" y="772" on="0"/>
        <pt x="497" y="701" on="0"/>
        <pt x="497" y="691" on="1"/>
        <pt x="497" y="690" on="0"/>
        <pt x="477" y="662" on="0"/>
        <pt x="477" y="641" on="0"/>
        <pt x="510" y="617" on="0"/>
        <pt x="511" y="607" on="0"/>
        <pt x="511" y="597" on="1"/>
        <pt x="511" y="558" on="0"/>
        <pt x="491" y="527" on="0"/>
        <pt x="443" y="478" on="0"/>
        <pt x="434" y="475" on="1"/>
        <pt x="392" y="461" on="0"/>
        <pt x="337" y="461" on="1"/>
        <pt x="333" y="461" on="0"/>
        <pt x="321" y="475" on="0"/>
        <pt x="321" y="481" on="0"/>
        <pt x="322" y="481" on="1"/>
        <pt x="338" y="498" on="0"/>
        <pt x="338" y="566" on="1"/>
        <pt x="338" y="577" on="0"/>
        <pt x="321" y="596" on="0"/>
        <pt x="321" y="600" on="1"/>
        <pt x="321" y="602" on="1"/>
        <pt x="322" y="609" on="1"/>
        <pt x="322" y="625" on="0"/>
        <pt x="310" y="655" on="0"/>
        <pt x="297" y="655" on="1"/>
        <pt x="273" y="655" on="0"/>
        <pt x="223" y="602" on="0"/>
      </contour>
    </TTGlyph>
    <TTGlyph name="Ccedilla" xMin="14" yMin="-186" xMax="518" yMax="772">
      <contour>
        <pt x="223" y="309" on="1"/>
        <pt x="224" y="252" on="1"/>
        <pt x="224" y="235" on="0"/>
        <pt x="222" y="215" on="1"/>
        <pt x="222" y="213" on="1"/>
        <pt x="222" y="193" on="0"/>
        <pt x="276" y="126" on="0"/>
        <pt x="306" y="126" on="1"/>
        <pt x="320" y="126" on="0"/>
        <pt x="389" y="214" on="0"/>
        <pt x="389" y="254" on="1"/>
        <pt x="389" y="259" on="0"/>
        <pt x="401" y="259" on="1"/>
        <pt x="404" y="259" on="1"/>
        <pt x="411" y="258" on="0"/>
        <pt x="472" y="224" on="0"/>
        <pt x="490" y="206" on="0"/>
        <pt x="518" y="157" on="0"/>
        <pt x="518" y="153" on="1"/>
        <pt x="518" y="116" on="0"/>
        <pt x="412" y="-2" on="0"/>
        <pt x="395" y="-2" on="1"/>
        <pt x="392" y="-2" on="0"/>
        <pt x="376" y="15" on="0"/>
        <pt x="363" y="15" on="0"/>
        <pt x="352" y="9" on="1"/>
        <pt x="311" y="-13" on="0"/>
        <pt x="279" y="-19" on="1"/>
        <pt x="265" y="-35" on="0"/>
        <pt x="265" y="-51" on="0"/>
        <pt x="270" y="-52" on="0"/>
        <pt x="286" y="-58" on="0"/>
        <pt x="297" y="-62" on="0"/>
        <pt x="314" y="-70" on="0"/>
        <pt x="319" y="-74" on="1"/>
        <pt x="332" y="-84" on="0"/>
        <pt x="332" y="-92" on="1"/>
        <pt x="332" y="-97" on="1"/>
        <pt x="332" y="-134" on="0"/>
        <pt x="319" y="-149" on="1"/>
        <pt x="308" y="-163" on="0"/>
        <pt x="277" y="-182" on="1"/>
        <pt x="270" y="-186" on="0"/>
        <pt x="258" y="-186" on="1"/>
        <pt x="234" y="-186" on="0"/>
        <pt x="206" y="-176" on="1"/>
        <pt x="196" y="-172" on="1"/>
        <pt x="194" y="-170" on="0"/>
        <pt x="194" y="-160" on="0"/>
        <pt x="210" y="-132" on="0"/>
        <pt x="215" y="-132" on="1"/>
        <pt x="216" y="-132" on="1"/>
        <pt x="229" y="-136" on="0"/>
        <pt x="243" y="-136" on="1"/>
        <pt x="266" y="-132" on="1"/>
        <pt x="275" y="-126" on="0"/>
        <pt x="275" y="-104" on="1"/>
        <pt x="274" y="-99" on="1"/>
        <pt x="272" y="-97" on="0"/>
        <pt x="214" y="-82" on="0"/>
        <pt x="201" y="-82" on="0"/>
        <pt x="201" y="-78" on="1"/>
        <pt x="201" y="-70" on="0"/>
        <pt x="220" y="-32" on="0"/>
        <pt x="228" y="-21" on="1"/>
        <pt x="197" y="-12" on="0"/>
        <pt x="88" y="47" on="0"/>
        <pt x="76" y="67" on="1"/>
        <pt x="49" y="110" on="0"/>
        <pt x="15" y="205" on="0"/>
        <pt x="15" y="218" on="1"/>
        <pt x="30" y="232" on="1"/>
        <pt x="45" y="246" on="0"/>
        <pt x="45" y="271" on="0"/>
        <pt x="18" y="297" on="0"/>
        <pt x="19" y="304" on="0"/>
        <pt x="19" y="318" on="1"/>
        <pt x="14" y="413" on="1"/>
        <pt x="14" y="438" on="0"/>
        <pt x="36" y="528" on="0"/>
        <pt x="36" y="549" on="0"/>
        <pt x="25" y="580" on="0"/>
        <pt x="25" y="581" on="1"/>
        <pt x="25" y="606" on="0"/>
        <pt x="171" y="735" on="0"/>
        <pt x="213" y="750" on="1"/>
        <pt x="289" y="772" on="0"/>
        <pt x="406" y="772" on="1"/>
        <pt x="433" y="772" on="0"/>
        <pt x="496" y="702" on="0"/>
        <pt x="496" y="691" on="1"/>
        <pt x="496" y="690" on="0"/>
        <pt x="476" y="662" on="0"/>
        <pt x="476" y="641" on="0"/>
        <pt x="509" y="618" on="0"/>
        <pt x="509" y="614" on="1"/>
        <pt x="509" y="600" on="1"/>
        <pt x="509" y="558" on="0"/>
        <pt x="497" y="538" on="1"/>
        <pt x="489" y="527" on="0"/>
        <pt x="442" y="479" on="0"/>
        <pt x="433" y="476" on="1"/>
        <pt x="391" y="461" on="0"/>
        <pt x="336" y="461" on="1"/>
        <pt x="332" y="461" on="0"/>
        <pt x="320" y="475" on="0"/>
        <pt x="320" y="480" on="1"/>
        <pt x="320" y="482" on="1"/>
        <pt x="337" y="498" on="0"/>
        <pt x="337" y="567" on="1"/>
        <pt x="337" y="578" on="0"/>
        <pt x="320" y="596" on="0"/>
        <pt x="320" y="600" on="1"/>
        <pt x="320" y="602" on="1"/>
        <pt x="321" y="609" on="1"/>
        <pt x="321" y="625" on="0"/>
        <pt x="309" y="655" on="0"/>
        <pt x="296" y="655" on="1"/>
        <pt x="272" y="655" on="0"/>
        <pt x="221" y="603" on="0"/>
        <pt x="221" y="580" on="1"/>
        <pt x="224" y="566" on="1"/>
        <pt x="224" y="562" on="0"/>
        <pt x="210" y="498" on="0"/>
        <pt x="210" y="472" on="1"/>
        <pt x="210" y="468" on="0"/>
        <pt x="234" y="444" on="0"/>
        <pt x="234" y="421" on="0"/>
        <pt x="202" y="393" on="0"/>
        <pt x="202" y="379" on="0"/>
        <pt x="215" y="365" on="0"/>
        <pt x="227" y="357" on="0"/>
        <pt x="227" y="355" on="1"/>
        <pt x="223" y="340" on="0"/>
      </contour>
    </TTGlyph>
    <TTGlyph name="D" xMin="10" yMin="-19" xMax="550" yMax="778">
      <contour>
        <pt x="258" y="407" on="1"/>
        <pt x="257" y="374" on="0"/>
        <pt x="240" y="332" on="0"/>
        <pt x="240" y="220" on="0"/>
        <pt x="248" y="172" on="1"/>
        <pt x="248" y="153" on="0"/>
        <pt x="226" y="134" on="1"/>
        <pt x="219" y="128" on="0"/>
        <pt x="219" y="121" on="0"/>
        <pt x="233" y="106" on="0"/>
        <pt x="259" y="106" on="0"/>
        <pt x="300" y="127" on="0"/>
        <pt x="311" y="137" on="1"/>
        <pt x="322" y="147" on="1"/>
        <pt x="342" y="167" on="0"/>
        <pt x="342" y="214" on="1"/>
        <pt x="338" y="257" on="1"/>
        <pt x="338" y="260" on="0"/>
        <pt x="367" y="276" on="0"/>
        <pt x="367" y="285" on="1"/>
        <pt x="367" y="301" on="0"/>
        <pt x="346" y="316" on="1"/>
        <pt x="334" y="320" on="0"/>
        <pt x="328" y="337" on="1"/>
        <pt x="328" y="339" on="0"/>
        <pt x="335" y="358" on="1"/>
        <pt x="356" y="415" on="0"/>
        <pt x="356" y="446" on="0"/>
        <pt x="354" y="452" on="1"/>
        <pt x="343" y="471" on="0"/>
        <pt x="335" y="599" on="0"/>
        <pt x="317" y="632" on="0"/>
        <pt x="286" y="656" on="0"/>
        <pt x="275" y="660" on="1"/>
        <pt x="264" y="664" on="1"/>
        <pt x="257" y="664" on="0"/>
        <pt x="241" y="654" on="0"/>
        <pt x="243" y="642" on="0"/>
        <pt x="243" y="564" on="0"/>
        <pt x="238" y="526" on="1"/>
        <pt x="238" y="525" on="1"/>
        <pt x="238" y="520" on="0"/>
        <pt x="261" y="495" on="0"/>
        <pt x="261" y="479" on="0"/>
        <pt x="232" y="446" on="0"/>
        <pt x="232" y="432" on="0"/>
        <pt x="258" y="411" on="0"/>
      </contour>
      <contour>
        <pt x="547" y="360" on="1"/>
        <pt x="550" y="316" on="1"/>
        <pt x="550" y="308" on="0"/>
        <pt x="547" y="307" on="1"/>
        <pt x="532" y="294" on="0"/>
        <pt x="532" y="255" on="1"/>
        <pt x="523" y="191" on="0"/>
        <pt x="515" y="187" on="1"/>
        <pt x="474" y="180" on="0"/>
        <pt x="474" y="156" on="1"/>
        <pt x="474" y="146" on="0"/>
        <pt x="493" y="129" on="0"/>
        <pt x="493" y="121" on="0"/>
        <pt x="440" y="60" on="0"/>
        <pt x="384" y="22" on="0"/>
        <pt x="302" y="-19" on="0"/>
        <pt x="282" y="-19" on="1"/>
        <pt x="280" y="-19" on="0"/>
        <pt x="271" y="-7" on="0"/>
        <pt x="265" y="-7" on="1"/>
        <pt x="265" y="-7" on="0"/>
        <pt x="169" y="-15" on="1"/>
        <pt x="117" y="-15" on="0"/>
        <pt x="61" y="-1" on="1"/>
        <pt x="41" y="4" on="1"/>
        <pt x="36" y="6" on="0"/>
        <pt x="26" y="22" on="0"/>
        <pt x="26" y="26" on="1"/>
        <pt x="27" y="28" on="1"/>
        <pt x="44" y="54" on="0"/>
        <pt x="44" y="134" on="1"/>
        <pt x="44" y="136" on="1"/>
        <pt x="44" y="138" on="0"/>
        <pt x="75" y="155" on="0"/>
        <pt x="75" y="183" on="0"/>
        <pt x="39" y="211" on="0"/>
        <pt x="39" y="214" on="1"/>
        <pt x="39" y="215" on="1"/>
        <pt x="49" y="257" on="0"/>
        <pt x="49" y="413" on="1"/>
        <pt x="49" y="441" on="1"/>
        <pt x="49" y="468" on="0"/>
        <pt x="39" y="490" on="1"/>
        <pt x="39" y="492" on="1"/>
        <pt x="49" y="518" on="1"/>
        <pt x="51" y="524" on="0"/>
        <pt x="51" y="541" on="1"/>
        <pt x="47" y="626" on="1"/>
        <pt x="42" y="657" on="0"/>
        <pt x="10" y="706" on="0"/>
        <pt x="10" y="709" on="0"/>
        <pt x="12" y="714" on="1"/>
        <pt x="19" y="731" on="0"/>
        <pt x="41" y="744" on="0"/>
        <pt x="188" y="778" on="0"/>
        <pt x="239" y="778" on="0"/>
        <pt x="374" y="754" on="0"/>
        <pt x="422" y="730" on="0"/>
        <pt x="514" y="641" on="0"/>
        <pt x="514" y="630" on="1"/>
        <pt x="514" y="627" on="0"/>
        <pt x="496" y="596" on="0"/>
        <pt x="496" y="582" on="0"/>
        <pt x="534" y="559" on="0"/>
        <pt x="536" y="549" on="1"/>
        <pt x="546" y="494" on="0"/>
        <pt x="548" y="466" on="1"/>
        <pt x="549" y="442" on="1"/>
        <pt x="549" y="424" on="0"/>
        <pt x="548" y="392" on="1"/>
      </contour>
    </TTGlyph>
    <TTGlyph name="E" xMin="20" yMin="-10" xMax="503" yMax="769">
      <contour>
        <pt x="238" y="464" on="1"/>
        <pt x="401" y="473" on="1"/>
        <pt x="432" y="473" on="0"/>
        <pt x="432" y="464" on="1"/>
        <pt x="432" y="437" on="0"/>
        <pt x="386" y="322" on="0"/>
        <pt x="373" y="322" on="1"/>
        <pt x="356" y="332" on="1"/>
        <pt x="339" y="341" on="0"/>
        <pt x="320" y="341" on="1"/>
        <pt x="248" y="341" on="0"/>
        <pt x="236" y="329" on="0"/>
        <pt x="236" y="160" on="0"/>
        <pt x="268" y="128" on="0"/>
        <pt x="368" y="128" on="0"/>
        <pt x="395" y="155" on="0"/>
        <pt x="424" y="201" on="0"/>
        <pt x="442" y="234" on="0"/>
        <pt x="443" y="234" on="1"/>
        <pt x="452" y="234" on="0"/>
        <pt x="503" y="184" on="0"/>
        <pt x="503" y="161" on="0"/>
        <pt x="460" y="20" on="0"/>
        <pt x="451" y="11" on="1"/>
        <pt x="450" y="9" on="0"/>
        <pt x="443" y="9" on="1"/>
        <pt x="386" y="15" on="1"/>
        <pt x="350" y="15" on="0"/>
        <pt x="302" y="10" on="0"/>
        <pt x="295" y="10" on="0"/>
        <pt x="270" y="22" on="0"/>
        <pt x="259" y="22" on="0"/>
        <pt x="252" y="16" on="0"/>
        <pt x="249" y="11" on="1"/>
        <pt x="242" y="-1" on="0"/>
        <pt x="231" y="-1" on="1"/>
        <pt x="189" y="4" on="1"/>
        <pt x="160" y="4" on="0"/>
        <pt x="93" y="-10" on="0"/>
        <pt x="63" y="-10" on="0"/>
        <pt x="20" y="1" on="0"/>
        <pt x="20" y="8" on="1"/>
        <pt x="20" y="10" on="0"/>
        <pt x="25" y="28" on="1"/>
        <pt x="41" y="84" on="0"/>
        <pt x="41" y="129" on="0"/>
        <pt x="39" y="136" on="1"/>
        <pt x="39" y="137" on="0"/>
        <pt x="64" y="154" on="0"/>
        <pt x="64" y="182" on="0"/>
        <pt x="28" y="205" on="0"/>
        <pt x="28" y="206" on="1"/>
        <pt x="37" y="248" on="1"/>
        <pt x="46" y="290" on="0"/>
        <pt x="46" y="320" on="0"/>
        <pt x="41" y="336" on="0"/>
        <pt x="41" y="337" on="1"/>
        <pt x="41" y="339" on="1"/>
        <pt x="49" y="377" on="0"/>
        <pt x="49" y="470" on="0"/>
        <pt x="42" y="551" on="0"/>
        <pt x="42" y="553" on="0"/>
        <pt x="62" y="569" on="0"/>
        <pt x="62" y="590" on="0"/>
        <pt x="52" y="609" on="1"/>
        <pt x="24" y="666" on="0"/>
        <pt x="24" y="741" on="1"/>
        <pt x="24" y="752" on="0"/>
        <pt x="162" y="769" on="0"/>
        <pt x="225" y="769" on="1"/>
        <pt x="238" y="769" on="0"/>
        <pt x="256" y="747" on="0"/>
        <pt x="269" y="747" on="0"/>
        <pt x="374" y="767" on="0"/>
        <pt x="404" y="767" on="1"/>
        <pt x="477" y="767" on="0"/>
        <pt x="477" y="750" on="1"/>
        <pt x="477" y="721" on="0"/>
        <pt x="453" y="624" on="0"/>
        <pt x="447" y="618" on="1"/>
        <pt x="437" y="606" on="0"/>
        <pt x="397" y="606" on="1"/>
        <pt x="393" y="606" on="0"/>
        <pt x="380" y="635" on="0"/>
        <pt x="345" y="664" on="0"/>
        <pt x="303" y="664" on="0"/>
        <pt x="255" y="647" on="0"/>
        <pt x="243" y="635" on="0"/>
        <pt x="243" y="546" on="0"/>
        <pt x="248" y="524" on="1"/>
        <pt x="248" y="521" on="1"/>
        <pt x="248" y="514" on="0"/>
        <pt x="208" y="502" on="0"/>
        <pt x="208" y="469" on="1"/>
        <pt x="208" y="464" on="0"/>
      </contour>
    </TTGlyph>
    <TTGlyph name="Eacute" xMin="20" yMin="-10" xMax="503" yMax="960">
      <contour>
        <pt x="278" y="868" on="1"/>
        <pt x="280" y="853" on="1"/>
        <pt x="280" y="850" on="0"/>
        <pt x="262" y="844" on="0"/>
        <pt x="216" y="805" on="0"/>
        <pt x="207" y="795" on="0"/>
        <pt x="197" y="795" on="0"/>
        <pt x="158" y="827" on="0"/>
        <pt x="158" y="844" on="0"/>
        <pt x="208" y="907" on="0"/>
        <pt x="208" y="909" on="1"/>
        <pt x="209" y="921" on="0"/>
        <pt x="209" y="922" on="1"/>
        <pt x="233" y="952" on="0"/>
        <pt x="236" y="955" on="0"/>
        <pt x="277" y="960" on="0"/>
        <pt x="301" y="960" on="0"/>
        <pt x="350" y="926" on="0"/>
        <pt x="350" y="917" on="1"/>
        <pt x="350" y="914" on="0"/>
        <pt x="342" y="908" on="1"/>
        <pt x="311" y="887" on="0"/>
        <pt x="302" y="877" on="1"/>
        <pt x="302" y="876" on="0"/>
        <pt x="278" y="876" on="0"/>
      </contour>
      <contour>
        <pt x="238" y="464" on="1"/>
        <pt x="401" y="473" on="1"/>
        <pt x="432" y="473" on="0"/>
        <pt x="432" y="464" on="1"/>
        <pt x="432" y="437" on="0"/>
        <pt x="386" y="322" on="0"/>
        <pt x="373" y="322" on="1"/>
        <pt x="356" y="332" on="1"/>
        <pt x="339" y="341" on="0"/>
        <pt x="320" y="341" on="1"/>
        <pt x="248" y="341" on="0"/>
        <pt x="236" y="329" on="0"/>
        <pt x="236" y="160" on="0"/>
        <pt x="268" y="128" on="0"/>
        <pt x="368" y="128" on="0"/>
        <pt x="395" y="155" on="0"/>
        <pt x="424" y="201" on="0"/>
        <pt x="442" y="234" on="0"/>
        <pt x="443" y="234" on="1"/>
        <pt x="452" y="234" on="0"/>
        <pt x="503" y="184" on="0"/>
        <pt x="503" y="161" on="0"/>
        <pt x="460" y="20" on="0"/>
        <pt x="451" y="11" on="1"/>
        <pt x="450" y="9" on="0"/>
        <pt x="443" y="9" on="1"/>
        <pt x="386" y="15" on="1"/>
        <pt x="350" y="15" on="0"/>
        <pt x="302" y="10" on="0"/>
        <pt x="295" y="10" on="0"/>
        <pt x="270" y="22" on="0"/>
        <pt x="259" y="22" on="0"/>
        <pt x="252" y="16" on="0"/>
        <pt x="249" y="11" on="1"/>
        <pt x="242" y="-1" on="0"/>
        <pt x="231" y="-1" on="1"/>
        <pt x="189" y="4" on="1"/>
        <pt x="160" y="4" on="0"/>
        <pt x="93" y="-10" on="0"/>
        <pt x="63" y="-10" on="0"/>
        <pt x="20" y="1" on="0"/>
        <pt x="20" y="8" on="1"/>
        <pt x="20" y="10" on="0"/>
        <pt x="25" y="28" on="1"/>
        <pt x="41" y="84" on="0"/>
        <pt x="41" y="129" on="0"/>
        <pt x="39" y="136" on="1"/>
        <pt x="39" y="137" on="0"/>
        <pt x="64" y="154" on="0"/>
        <pt x="64" y="182" on="0"/>
        <pt x="28" y="205" on="0"/>
        <pt x="28" y="206" on="1"/>
        <pt x="37" y="248" on="1"/>
        <pt x="46" y="290" on="0"/>
        <pt x="46" y="320" on="0"/>
        <pt x="41" y="336" on="0"/>
        <pt x="41" y="337" on="1"/>
        <pt x="41" y="339" on="1"/>
        <pt x="49" y="377" on="0"/>
        <pt x="49" y="470" on="0"/>
        <pt x="42" y="551" on="0"/>
        <pt x="42" y="553" on="0"/>
        <pt x="62" y="569" on="0"/>
        <pt x="62" y="590" on="0"/>
        <pt x="52" y="609" on="1"/>
        <pt x="24" y="666" on="0"/>
        <pt x="24" y="741" on="1"/>
        <pt x="24" y="752" on="0"/>
        <pt x="162" y="769" on="0"/>
        <pt x="225" y="769" on="1"/>
        <pt x="238" y="769" on="0"/>
        <pt x="256" y="747" on="0"/>
        <pt x="269" y="747" on="0"/>
        <pt x="374" y="767" on="0"/>
        <pt x="404" y="767" on="1"/>
        <pt x="477" y="767" on="0"/>
        <pt x="477" y="750" on="1"/>
        <pt x="477" y="721" on="0"/>
        <pt x="453" y="624" on="0"/>
        <pt x="447" y="618" on="1"/>
        <pt x="437" y="606" on="0"/>
        <pt x="397" y="606" on="1"/>
        <pt x="393" y="606" on="0"/>
        <pt x="380" y="635" on="0"/>
        <pt x="345" y="664" on="0"/>
        <pt x="303" y="664" on="0"/>
        <pt x="255" y="647" on="0"/>
        <pt x="243" y="635" on="0"/>
        <pt x="243" y="546" on="0"/>
        <pt x="248" y="524" on="1"/>
        <pt x="248" y="521" on="1"/>
        <pt x="248" y="514" on="0"/>
        <pt x="208" y="502" on="0"/>
        <pt x="208" y="469" on="1"/>
        <pt x="208" y="464" on="0"/>
      </contour>
    </TTGlyph>
    <TTGlyph name="Ecircumflex" xMin="20" yMin="-10" xMax="503" yMax="964">
      <contour>
        <pt x="166" y="913" on="1"/>
        <pt x="162" y="933" on="1"/>
        <pt x="180" y="962" on="0"/>
        <pt x="187" y="962" on="1"/>
        <pt x="208" y="962" on="1"/>
        <pt x="238" y="962" on="0"/>
        <pt x="240" y="959" on="1"/>
        <pt x="258" y="944" on="0"/>
        <pt x="262" y="944" on="0"/>
        <pt x="285" y="959" on="1"/>
        <pt x="288" y="964" on="0"/>
        <pt x="331" y="964" on="0"/>
        <pt x="338" y="958" on="0"/>
        <pt x="370" y="907" on="0"/>
        <pt x="370" y="903" on="1"/>
        <pt x="367" y="892" on="0"/>
        <pt x="367" y="872" on="0"/>
        <pt x="388" y="872" on="1"/>
        <pt x="415" y="838" on="0"/>
        <pt x="415" y="831" on="0"/>
        <pt x="411" y="827" on="0"/>
        <pt x="405" y="823" on="0"/>
        <pt x="394" y="812" on="0"/>
        <pt x="371" y="801" on="0"/>
        <pt x="359" y="799" on="1"/>
        <pt x="336" y="799" on="0"/>
        <pt x="336" y="803" on="1"/>
        <pt x="298" y="848" on="1"/>
        <pt x="281" y="851" on="0"/>
        <pt x="281" y="856" on="1"/>
        <pt x="281" y="869" on="0"/>
        <pt x="263" y="898" on="0"/>
        <pt x="257" y="898" on="1"/>
        <pt x="252" y="898" on="0"/>
        <pt x="230" y="870" on="1"/>
        <pt x="222" y="860" on="1"/>
        <pt x="222" y="844" on="0"/>
        <pt x="216" y="840" on="1"/>
        <pt x="200" y="840" on="0"/>
        <pt x="163" y="800" on="0"/>
        <pt x="162" y="800" on="1"/>
        <pt x="146" y="800" on="0"/>
        <pt x="115" y="815" on="0"/>
        <pt x="100" y="829" on="0"/>
        <pt x="100" y="831" on="1"/>
        <pt x="120" y="862" on="1"/>
        <pt x="139" y="893" on="0"/>
        <pt x="139" y="898" on="1"/>
        <pt x="166" y="904" on="0"/>
      </contour>
      <contour>
        <pt x="238" y="464" on="1"/>
        <pt x="401" y="473" on="1"/>
        <pt x="432" y="473" on="0"/>
        <pt x="432" y="464" on="1"/>
        <pt x="432" y="437" on="0"/>
        <pt x="386" y="322" on="0"/>
        <pt x="373" y="322" on="1"/>
        <pt x="356" y="332" on="1"/>
        <pt x="339" y="341" on="0"/>
        <pt x="320" y="341" on="1"/>
        <pt x="248" y="341" on="0"/>
        <pt x="236" y="329" on="0"/>
        <pt x="236" y="160" on="0"/>
        <pt x="268" y="128" on="0"/>
        <pt x="368" y="128" on="0"/>
        <pt x="395" y="155" on="0"/>
        <pt x="424" y="201" on="0"/>
        <pt x="442" y="234" on="0"/>
        <pt x="443" y="234" on="1"/>
        <pt x="452" y="234" on="0"/>
        <pt x="503" y="184" on="0"/>
        <pt x="503" y="161" on="0"/>
        <pt x="460" y="20" on="0"/>
        <pt x="451" y="11" on="1"/>
        <pt x="450" y="9" on="0"/>
        <pt x="443" y="9" on="1"/>
        <pt x="386" y="15" on="1"/>
        <pt x="350" y="15" on="0"/>
        <pt x="302" y="10" on="0"/>
        <pt x="295" y="10" on="0"/>
        <pt x="270" y="22" on="0"/>
        <pt x="259" y="22" on="0"/>
        <pt x="252" y="16" on="0"/>
        <pt x="249" y="11" on="1"/>
        <pt x="242" y="-1" on="0"/>
        <pt x="231" y="-1" on="1"/>
        <pt x="189" y="4" on="1"/>
        <pt x="160" y="4" on="0"/>
        <pt x="93" y="-10" on="0"/>
        <pt x="63" y="-10" on="0"/>
        <pt x="20" y="1" on="0"/>
        <pt x="20" y="8" on="1"/>
        <pt x="20" y="10" on="0"/>
        <pt x="25" y="28" on="1"/>
        <pt x="41" y="84" on="0"/>
        <pt x="41" y="129" on="0"/>
        <pt x="39" y="136" on="1"/>
        <pt x="39" y="137" on="0"/>
        <pt x="64" y="154" on="0"/>
        <pt x="64" y="182" on="0"/>
        <pt x="28" y="205" on="0"/>
        <pt x="28" y="206" on="1"/>
        <pt x="37" y="248" on="1"/>
        <pt x="46" y="290" on="0"/>
        <pt x="46" y="320" on="0"/>
        <pt x="41" y="336" on="0"/>
        <pt x="41" y="337" on="1"/>
        <pt x="41" y="339" on="1"/>
        <pt x="49" y="377" on="0"/>
        <pt x="49" y="470" on="0"/>
        <pt x="42" y="551" on="0"/>
        <pt x="42" y="553" on="0"/>
        <pt x="62" y="569" on="0"/>
        <pt x="62" y="590" on="0"/>
        <pt x="52" y="609" on="1"/>
        <pt x="24" y="666" on="0"/>
        <pt x="24" y="741" on="1"/>
        <pt x="24" y="752" on="0"/>
        <pt x="162" y="769" on="0"/>
        <pt x="225" y="769" on="1"/>
        <pt x="238" y="769" on="0"/>
        <pt x="256" y="747" on="0"/>
        <pt x="269" y="747" on="0"/>
        <pt x="374" y="767" on="0"/>
        <pt x="404" y="767" on="1"/>
        <pt x="477" y="767" on="0"/>
        <pt x="477" y="750" on="1"/>
        <pt x="477" y="721" on="0"/>
        <pt x="453" y="624" on="0"/>
        <pt x="447" y="618" on="1"/>
        <pt x="437" y="606" on="0"/>
        <pt x="397" y="606" on="1"/>
        <pt x="393" y="606" on="0"/>
        <pt x="380" y="635" on="0"/>
        <pt x="345" y="664" on="0"/>
        <pt x="303" y="664" on="0"/>
        <pt x="255" y="647" on="0"/>
        <pt x="243" y="635" on="0"/>
        <pt x="243" y="546" on="0"/>
        <pt x="248" y="524" on="1"/>
        <pt x="248" y="521" on="1"/>
        <pt x="248" y="514" on="0"/>
        <pt x="208" y="502" on="0"/>
        <pt x="208" y="469" on="1"/>
        <pt x="208" y="464" on="0"/>
      </contour>
    </TTGlyph>
    <TTGlyph name="Edieresis" xMin="20" yMin="-10" xMax="503" yMax="943">
      <contour>
        <pt x="214" y="889" on="1"/>
        <pt x="214" y="869" on="0"/>
        <pt x="204" y="838" on="0"/>
        <pt x="185" y="822" on="0"/>
        <pt x="145" y="809" on="0"/>
        <pt x="108" y="809" on="0"/>
        <pt x="100" y="817" on="1"/>
        <pt x="99" y="818" on="0"/>
        <pt x="99" y="828" on="1"/>
        <pt x="99" y="843" on="0"/>
        <pt x="88" y="843" on="1"/>
        <pt x="82" y="843" on="1"/>
        <pt x="78" y="843" on="0"/>
        <pt x="72" y="848" on="0"/>
        <pt x="72" y="897" on="0"/>
        <pt x="75" y="902" on="0"/>
        <pt x="96" y="924" on="0"/>
        <pt x="107" y="930" on="1"/>
        <pt x="150" y="943" on="0"/>
        <pt x="170" y="943" on="0"/>
        <pt x="199" y="934" on="0"/>
        <pt x="199" y="930" on="1"/>
        <pt x="195" y="920" on="0"/>
        <pt x="195" y="911" on="1"/>
        <pt x="214" y="895" on="0"/>
      </contour>
      <contour>
        <pt x="436" y="876" on="1"/>
        <pt x="435" y="846" on="0"/>
        <pt x="417" y="828" on="0"/>
        <pt x="406" y="828" on="0"/>
        <pt x="378" y="801" on="0"/>
        <pt x="375" y="801" on="1"/>
        <pt x="332" y="807" on="1"/>
        <pt x="318" y="812" on="0"/>
        <pt x="289" y="837" on="1"/>
        <pt x="286" y="840" on="0"/>
        <pt x="286" y="870" on="0"/>
        <pt x="293" y="906" on="0"/>
        <pt x="297" y="906" on="1"/>
        <pt x="310" y="906" on="0"/>
        <pt x="351" y="939" on="1"/>
        <pt x="361" y="943" on="0"/>
        <pt x="369" y="943" on="1"/>
        <pt x="420" y="931" on="0"/>
        <pt x="420" y="916" on="1"/>
        <pt x="414" y="907" on="0"/>
        <pt x="414" y="896" on="0"/>
        <pt x="436" y="882" on="0"/>
      </contour>
      <contour>
        <pt x="238" y="464" on="1"/>
        <pt x="401" y="473" on="1"/>
        <pt x="432" y="473" on="0"/>
        <pt x="432" y="464" on="1"/>
        <pt x="432" y="437" on="0"/>
        <pt x="386" y="322" on="0"/>
        <pt x="373" y="322" on="1"/>
        <pt x="356" y="332" on="1"/>
        <pt x="339" y="341" on="0"/>
        <pt x="320" y="341" on="1"/>
        <pt x="248" y="341" on="0"/>
        <pt x="236" y="329" on="0"/>
        <pt x="236" y="160" on="0"/>
        <pt x="268" y="128" on="0"/>
        <pt x="368" y="128" on="0"/>
        <pt x="395" y="155" on="0"/>
        <pt x="424" y="201" on="0"/>
        <pt x="442" y="234" on="0"/>
        <pt x="443" y="234" on="1"/>
        <pt x="452" y="234" on="0"/>
        <pt x="503" y="184" on="0"/>
        <pt x="503" y="161" on="0"/>
        <pt x="460" y="20" on="0"/>
        <pt x="451" y="11" on="1"/>
        <pt x="450" y="9" on="0"/>
        <pt x="443" y="9" on="1"/>
        <pt x="386" y="15" on="1"/>
        <pt x="350" y="15" on="0"/>
        <pt x="302" y="10" on="0"/>
        <pt x="295" y="10" on="0"/>
        <pt x="270" y="22" on="0"/>
        <pt x="259" y="22" on="0"/>
        <pt x="252" y="16" on="0"/>
        <pt x="249" y="11" on="1"/>
        <pt x="242" y="-1" on="0"/>
        <pt x="231" y="-1" on="1"/>
        <pt x="189" y="4" on="1"/>
        <pt x="160" y="4" on="0"/>
        <pt x="93" y="-10" on="0"/>
        <pt x="63" y="-10" on="0"/>
        <pt x="20" y="1" on="0"/>
        <pt x="20" y="8" on="1"/>
        <pt x="20" y="10" on="0"/>
        <pt x="25" y="28" on="1"/>
        <pt x="41" y="84" on="0"/>
        <pt x="41" y="129" on="0"/>
        <pt x="39" y="136" on="1"/>
        <pt x="39" y="137" on="0"/>
        <pt x="64" y="154" on="0"/>
        <pt x="64" y="182" on="0"/>
        <pt x="28" y="205" on="0"/>
        <pt x="28" y="206" on="1"/>
        <pt x="37" y="248" on="1"/>
        <pt x="46" y="290" on="0"/>
        <pt x="46" y="320" on="0"/>
        <pt x="41" y="336" on="0"/>
        <pt x="41" y="337" on="1"/>
        <pt x="41" y="339" on="1"/>
        <pt x="49" y="377" on="0"/>
        <pt x="49" y="470" on="0"/>
        <pt x="42" y="551" on="0"/>
        <pt x="42" y="553" on="0"/>
        <pt x="62" y="569" on="0"/>
        <pt x="62" y="590" on="0"/>
        <pt x="52" y="609" on="1"/>
        <pt x="24" y="666" on="0"/>
        <pt x="24" y="741" on="1"/>
        <pt x="24" y="752" on="0"/>
        <pt x="162" y="769" on="0"/>
        <pt x="225" y="769" on="1"/>
        <pt x="238" y="769" on="0"/>
        <pt x="256" y="747" on="0"/>
        <pt x="269" y="747" on="0"/>
        <pt x="374" y="767" on="0"/>
        <pt x="404" y="767" on="1"/>
        <pt x="477" y="767" on="0"/>
        <pt x="477" y="750" on="1"/>
        <pt x="477" y="721" on="0"/>
        <pt x="453" y="624" on="0"/>
        <pt x="447" y="618" on="1"/>
        <pt x="437" y="606" on="0"/>
        <pt x="397" y="606" on="1"/>
        <pt x="393" y="606" on="0"/>
        <pt x="380" y="635" on="0"/>
        <pt x="345" y="664" on="0"/>
        <pt x="303" y="664" on="0"/>
        <pt x="255" y="647" on="0"/>
        <pt x="243" y="635" on="0"/>
        <pt x="243" y="546" on="0"/>
        <pt x="248" y="524" on="1"/>
        <pt x="248" y="521" on="1"/>
        <pt x="248" y="514" on="0"/>
        <pt x="208" y="502" on="0"/>
        <pt x="208" y="469" on="1"/>
        <pt x="208" y="464" on="0"/>
      </contour>
    </TTGlyph>
    <TTGlyph name="Egrave" xMin="20" yMin="-10" xMax="503" yMax="958">
      <contour>
        <pt x="209" y="881" on="1"/>
        <pt x="195" y="880" on="1"/>
        <pt x="194" y="880" on="1"/>
        <pt x="194" y="881" on="0"/>
        <pt x="155" y="921" on="0"/>
        <pt x="155" y="923" on="1"/>
        <pt x="155" y="928" on="0"/>
        <pt x="216" y="958" on="0"/>
        <pt x="232" y="958" on="1"/>
        <pt x="287" y="947" on="0"/>
        <pt x="289" y="945" on="1"/>
        <pt x="333" y="854" on="0"/>
        <pt x="352" y="835" on="1"/>
        <pt x="352" y="834" on="1"/>
        <pt x="352" y="823" on="0"/>
        <pt x="303" y="807" on="0"/>
        <pt x="285" y="807" on="1"/>
        <pt x="280" y="807" on="0"/>
        <pt x="225" y="852" on="0"/>
        <pt x="221" y="852" on="1"/>
        <pt x="220" y="852" on="0"/>
        <pt x="220" y="857" on="1"/>
        <pt x="220" y="867" on="1"/>
        <pt x="220" y="876" on="0"/>
        <pt x="215" y="881" on="0"/>
      </contour>
      <contour>
        <pt x="238" y="464" on="1"/>
        <pt x="401" y="473" on="1"/>
        <pt x="432" y="473" on="0"/>
        <pt x="432" y="464" on="1"/>
        <pt x="432" y="437" on="0"/>
        <pt x="386" y="322" on="0"/>
        <pt x="373" y="322" on="1"/>
        <pt x="356" y="332" on="1"/>
        <pt x="339" y="341" on="0"/>
        <pt x="320" y="341" on="1"/>
        <pt x="248" y="341" on="0"/>
        <pt x="236" y="329" on="0"/>
        <pt x="236" y="160" on="0"/>
        <pt x="268" y="128" on="0"/>
        <pt x="368" y="128" on="0"/>
        <pt x="395" y="155" on="0"/>
        <pt x="424" y="201" on="0"/>
        <pt x="442" y="234" on="0"/>
        <pt x="443" y="234" on="1"/>
        <pt x="452" y="234" on="0"/>
        <pt x="503" y="184" on="0"/>
        <pt x="503" y="161" on="0"/>
        <pt x="460" y="20" on="0"/>
        <pt x="451" y="11" on="1"/>
        <pt x="450" y="9" on="0"/>
        <pt x="443" y="9" on="1"/>
        <pt x="386" y="15" on="1"/>
        <pt x="350" y="15" on="0"/>
        <pt x="302" y="10" on="0"/>
        <pt x="295" y="10" on="0"/>
        <pt x="270" y="22" on="0"/>
        <pt x="259" y="22" on="0"/>
        <pt x="252" y="16" on="0"/>
        <pt x="249" y="11" on="1"/>
        <pt x="242" y="-1" on="0"/>
        <pt x="231" y="-1" on="1"/>
        <pt x="189" y="4" on="1"/>
        <pt x="160" y="4" on="0"/>
        <pt x="93" y="-10" on="0"/>
        <pt x="63" y="-10" on="0"/>
        <pt x="20" y="1" on="0"/>
        <pt x="20" y="8" on="1"/>
        <pt x="20" y="10" on="0"/>
        <pt x="25" y="28" on="1"/>
        <pt x="41" y="84" on="0"/>
        <pt x="41" y="129" on="0"/>
        <pt x="39" y="136" on="1"/>
        <pt x="39" y="137" on="0"/>
        <pt x="64" y="154" on="0"/>
        <pt x="64" y="182" on="0"/>
        <pt x="28" y="205" on="0"/>
        <pt x="28" y="206" on="1"/>
        <pt x="37" y="248" on="1"/>
        <pt x="46" y="290" on="0"/>
        <pt x="46" y="320" on="0"/>
        <pt x="41" y="336" on="0"/>
        <pt x="41" y="337" on="1"/>
        <pt x="41" y="339" on="1"/>
        <pt x="49" y="377" on="0"/>
        <pt x="49" y="470" on="0"/>
        <pt x="42" y="551" on="0"/>
        <pt x="42" y="553" on="0"/>
        <pt x="62" y="569" on="0"/>
        <pt x="62" y="590" on="0"/>
        <pt x="52" y="609" on="1"/>
        <pt x="24" y="666" on="0"/>
        <pt x="24" y="741" on="1"/>
        <pt x="24" y="752" on="0"/>
        <pt x="162" y="769" on="0"/>
        <pt x="225" y="769" on="1"/>
        <pt x="238" y="769" on="0"/>
        <pt x="256" y="747" on="0"/>
        <pt x="269" y="747" on="0"/>
        <pt x="374" y="767" on="0"/>
        <pt x="404" y="767" on="1"/>
        <pt x="477" y="767" on="0"/>
        <pt x="477" y="750" on="1"/>
        <pt x="477" y="721" on="0"/>
        <pt x="453" y="624" on="0"/>
        <pt x="447" y="618" on="1"/>
        <pt x="437" y="606" on="0"/>
        <pt x="397" y="606" on="1"/>
        <pt x="393" y="606" on="0"/>
        <pt x="380" y="635" on="0"/>
        <pt x="345" y="664" on="0"/>
        <pt x="303" y="664" on="0"/>
        <pt x="255" y="647" on="0"/>
        <pt x="243" y="635" on="0"/>
        <pt x="243" y="546" on="0"/>
        <pt x="248" y="524" on="1"/>
        <pt x="248" y="521" on="1"/>
        <pt x="248" y="514" on="0"/>
        <pt x="208" y="502" on="0"/>
        <pt x="208" y="469" on="1"/>
        <pt x="208" y="464" on="0"/>
      </contour>
    </TTGlyph>
    <TTGlyph name="Eth" xMin="-15" yMin="-19" xMax="550" yMax="778">
      <contour>
        <pt x="243" y="327" on="1"/>
        <pt x="240" y="303" on="0"/>
        <pt x="240" y="220" on="0"/>
        <pt x="248" y="172" on="1"/>
        <pt x="248" y="153" on="0"/>
        <pt x="226" y="134" on="1"/>
        <pt x="219" y="128" on="0"/>
        <pt x="219" y="121" on="0"/>
        <pt x="233" y="106" on="0"/>
        <pt x="259" y="106" on="0"/>
        <pt x="300" y="127" on="0"/>
        <pt x="311" y="137" on="1"/>
        <pt x="322" y="147" on="1"/>
        <pt x="342" y="167" on="0"/>
        <pt x="342" y="214" on="1"/>
        <pt x="338" y="257" on="1"/>
        <pt x="338" y="260" on="0"/>
        <pt x="367" y="276" on="0"/>
        <pt x="367" y="285" on="1"/>
        <pt x="367" y="301" on="0"/>
        <pt x="346" y="316" on="1"/>
        <pt x="334" y="320" on="0"/>
        <pt x="328" y="337" on="1"/>
        <pt x="328" y="339" on="0"/>
        <pt x="335" y="358" on="1"/>
        <pt x="356" y="415" on="0"/>
        <pt x="356" y="446" on="0"/>
        <pt x="354" y="452" on="1"/>
        <pt x="343" y="471" on="0"/>
        <pt x="335" y="599" on="0"/>
        <pt x="317" y="632" on="0"/>
        <pt x="286" y="656" on="0"/>
        <pt x="275" y="660" on="1"/>
        <pt x="264" y="664" on="1"/>
        <pt x="257" y="664" on="0"/>
        <pt x="241" y="654" on="0"/>
        <pt x="243" y="642" on="0"/>
        <pt x="243" y="564" on="0"/>
        <pt x="238" y="526" on="1"/>
        <pt x="238" y="525" on="1"/>
        <pt x="238" y="520" on="0"/>
        <pt x="261" y="495" on="0"/>
        <pt x="261" y="479" on="0"/>
        <pt x="232" y="446" on="0"/>
        <pt x="232" y="436" on="0"/>
        <pt x="236" y="430" on="1"/>
        <pt x="306" y="424" on="1"/>
        <pt x="315" y="410" on="0"/>
        <pt x="315" y="386" on="1"/>
        <pt x="315" y="383" on="0"/>
        <pt x="293" y="335" on="0"/>
        <pt x="293" y="321" on="1"/>
        <pt x="279" y="317" on="0"/>
        <pt x="262" y="317" on="0"/>
        <pt x="260" y="319" on="1"/>
        <pt x="257" y="325" on="0"/>
      </contour>
      <contour>
        <pt x="547" y="360" on="1"/>
        <pt x="550" y="316" on="1"/>
        <pt x="550" y="308" on="0"/>
        <pt x="547" y="307" on="1"/>
        <pt x="532" y="294" on="0"/>
        <pt x="532" y="255" on="1"/>
        <pt x="523" y="191" on="0"/>
        <pt x="515" y="187" on="1"/>
        <pt x="474" y="180" on="0"/>
        <pt x="474" y="156" on="1"/>
        <pt x="474" y="146" on="0"/>
        <pt x="493" y="129" on="0"/>
        <pt x="493" y="121" on="0"/>
        <pt x="440" y="60" on="0"/>
        <pt x="384" y="22" on="0"/>
        <pt x="302" y="-19" on="0"/>
        <pt x="282" y="-19" on="1"/>
        <pt x="280" y="-19" on="0"/>
        <pt x="271" y="-7" on="0"/>
        <pt x="265" y="-7" on="1"/>
        <pt x="169" y="-15" on="1"/>
        <pt x="117" y="-15" on="0"/>
        <pt x="61" y="-1" on="1"/>
        <pt x="41" y="4" on="1"/>
        <pt x="36" y="6" on="0"/>
        <pt x="26" y="22" on="0"/>
        <pt x="26" y="26" on="1"/>
        <pt x="27" y="28" on="1"/>
        <pt x="44" y="54" on="0"/>
        <pt x="44" y="134" on="1"/>
        <pt x="44" y="136" on="1"/>
        <pt x="44" y="138" on="0"/>
        <pt x="75" y="155" on="0"/>
        <pt x="75" y="183" on="0"/>
        <pt x="39" y="211" on="0"/>
        <pt x="39" y="214" on="1"/>
        <pt x="39" y="215" on="1"/>
        <pt x="46" y="245" on="0"/>
        <pt x="48" y="323" on="1"/>
        <pt x="28" y="322" on="1"/>
        <pt x="25" y="322" on="1"/>
        <pt x="17" y="318" on="0"/>
        <pt x="-15" y="318" on="0"/>
        <pt x="-15" y="322" on="1"/>
        <pt x="-15" y="372" on="0"/>
        <pt x="-2" y="408" on="1"/>
        <pt x="3" y="420" on="1"/>
        <pt x="11" y="428" on="0"/>
        <pt x="49" y="428" on="1"/>
        <pt x="49" y="441" on="1"/>
        <pt x="49" y="468" on="0"/>
        <pt x="39" y="490" on="1"/>
        <pt x="39" y="492" on="1"/>
        <pt x="49" y="518" on="1"/>
        <pt x="51" y="524" on="0"/>
        <pt x="51" y="541" on="1"/>
        <pt x="47" y="626" on="1"/>
        <pt x="42" y="657" on="0"/>
        <pt x="10" y="706" on="0"/>
        <pt x="10" y="709" on="0"/>
        <pt x="12" y="714" on="1"/>
        <pt x="19" y="731" on="0"/>
        <pt x="41" y="744" on="0"/>
        <pt x="188" y="778" on="0"/>
        <pt x="239" y="778" on="0"/>
        <pt x="374" y="754" on="0"/>
        <pt x="422" y="730" on="0"/>
        <pt x="514" y="641" on="0"/>
        <pt x="514" y="630" on="1"/>
        <pt x="514" y="627" on="0"/>
        <pt x="496" y="596" on="0"/>
        <pt x="496" y="582" on="0"/>
        <pt x="534" y="559" on="0"/>
        <pt x="536" y="549" on="1"/>
        <pt x="546" y="494" on="0"/>
        <pt x="548" y="466" on="1"/>
        <pt x="549" y="442" on="1"/>
        <pt x="549" y="424" on="0"/>
        <pt x="548" y="392" on="1"/>
      </contour>
    </TTGlyph>
    <TTGlyph name="Euro" xMin="5" yMin="-23" xMax="579" yMax="777">
      <contour>
        <pt x="58" y="537" on="1"/>
        <pt x="88" y="536" on="1"/>
        <pt x="100" y="536" on="0"/>
        <pt x="106" y="542" on="0"/>
        <pt x="110" y="623" on="0"/>
        <pt x="115" y="625" on="1"/>
        <pt x="129" y="630" on="0"/>
        <pt x="184" y="727" on="0"/>
        <pt x="212" y="744" on="1"/>
        <pt x="286" y="777" on="0"/>
        <pt x="369" y="777" on="1"/>
        <pt x="389" y="759" on="0"/>
        <pt x="408" y="759" on="0"/>
        <pt x="421" y="776" on="0"/>
        <pt x="423" y="776" on="1"/>
        <pt x="425" y="776" on="1"/>
        <pt x="540" y="776" on="0"/>
        <pt x="562" y="755" on="1"/>
        <pt x="579" y="684" on="0"/>
        <pt x="579" y="658" on="0"/>
        <pt x="578" y="657" on="1"/>
        <pt x="541" y="630" on="0"/>
        <pt x="534" y="630" on="1"/>
        <pt x="475" y="653" on="0"/>
        <pt x="434" y="653" on="1"/>
        <pt x="420" y="653" on="0"/>
        <pt x="340" y="617" on="0"/>
        <pt x="310" y="587" on="1"/>
        <pt x="301" y="548" on="0"/>
        <pt x="301" y="539" on="1"/>
        <pt x="301" y="527" on="0"/>
        <pt x="343" y="527" on="1"/>
        <pt x="360" y="527" on="0"/>
        <pt x="369" y="536" on="0"/>
        <pt x="478" y="536" on="0"/>
        <pt x="486" y="528" on="0"/>
        <pt x="505" y="480" on="0"/>
        <pt x="505" y="462" on="1"/>
        <pt x="496" y="412" on="0"/>
        <pt x="485" y="412" on="1"/>
        <pt x="484" y="412" on="1"/>
        <pt x="476" y="415" on="0"/>
        <pt x="411" y="415" on="1"/>
        <pt x="341" y="415" on="1"/>
        <pt x="340" y="415" on="0"/>
        <pt x="319" y="436" on="0"/>
        <pt x="309" y="436" on="1"/>
        <pt x="287" y="420" on="0"/>
        <pt x="287" y="414" on="1"/>
        <pt x="283" y="380" on="0"/>
        <pt x="283" y="340" on="0"/>
        <pt x="292" y="331" on="0"/>
        <pt x="398" y="331" on="0"/>
        <pt x="407" y="340" on="0"/>
        <pt x="488" y="340" on="0"/>
        <pt x="494" y="334" on="1"/>
        <pt x="502" y="319" on="0"/>
        <pt x="502" y="296" on="1"/>
        <pt x="502" y="292" on="0"/>
        <pt x="481" y="239" on="0"/>
        <pt x="481" y="225" on="1"/>
        <pt x="467" y="220" on="0"/>
        <pt x="451" y="220" on="0"/>
        <pt x="448" y="223" on="1"/>
        <pt x="444" y="236" on="0"/>
        <pt x="408" y="235" on="0"/>
        <pt x="396" y="224" on="0"/>
        <pt x="382" y="224" on="0"/>
        <pt x="349" y="233" on="0"/>
        <pt x="348" y="233" on="1"/>
        <pt x="291" y="232" on="0"/>
        <pt x="291" y="224" on="1"/>
        <pt x="291" y="219" on="1"/>
        <pt x="291" y="179" on="0"/>
        <pt x="311" y="159" on="1"/>
        <pt x="318" y="152" on="0"/>
        <pt x="353" y="149" on="0"/>
        <pt x="358" y="144" on="1"/>
        <pt x="368" y="125" on="0"/>
        <pt x="379" y="112" on="0"/>
        <pt x="491" y="112" on="0"/>
        <pt x="509" y="123" on="1"/>
        <pt x="513" y="125" on="0"/>
        <pt x="534" y="145" on="0"/>
        <pt x="543" y="145" on="0"/>
        <pt x="578" y="124" on="0"/>
        <pt x="578" y="116" on="1"/>
        <pt x="578" y="97" on="0"/>
        <pt x="548" y="20" on="1"/>
        <pt x="537" y="-6" on="1"/>
        <pt x="524" y="-19" on="0"/>
        <pt x="465" y="-22" on="1"/>
        <pt x="445" y="-23" on="1"/>
        <pt x="439" y="-23" on="0"/>
        <pt x="422" y="-1" on="0"/>
        <pt x="416" y="-1" on="1"/>
        <pt x="406" y="-1" on="0"/>
        <pt x="386" y="-17" on="1"/>
        <pt x="381" y="-21" on="0"/>
        <pt x="245" y="-21" on="0"/>
        <pt x="205" y="-4" on="0"/>
        <pt x="154" y="62" on="0"/>
        <pt x="147" y="62" on="1"/>
        <pt x="131" y="62" on="0"/>
        <pt x="95" y="155" on="0"/>
        <pt x="95" y="171" on="1"/>
        <pt x="95" y="172" on="0"/>
        <pt x="120" y="192" on="0"/>
        <pt x="120" y="209" on="1"/>
        <pt x="120" y="216" on="0"/>
        <pt x="76" y="228" on="0"/>
        <pt x="59" y="228" on="0"/>
        <pt x="48" y="222" on="0"/>
        <pt x="16" y="222" on="0"/>
        <pt x="16" y="227" on="1"/>
        <pt x="16" y="276" on="0"/>
        <pt x="30" y="316" on="1"/>
        <pt x="34" y="330" on="1"/>
        <pt x="42" y="338" on="0"/>
        <pt x="78" y="338" on="1"/>
        <pt x="91" y="338" on="1"/>
        <pt x="94" y="423" on="1"/>
        <pt x="94" y="428" on="0"/>
        <pt x="84" y="428" on="1"/>
        <pt x="69" y="428" on="0"/>
        <pt x="34" y="420" on="1"/>
        <pt x="23" y="417" on="1"/>
        <pt x="22" y="417" on="1"/>
        <pt x="18" y="417" on="0"/>
        <pt x="5" y="440" on="1"/>
        <pt x="5" y="469" on="0"/>
        <pt x="34" y="518" on="1"/>
        <pt x="43" y="535" on="1"/>
        <pt x="46" y="537" on="0"/>
      </contour>
    </TTGlyph>
    <TTGlyph name="F" xMin="20" yMin="-14" xMax="489" yMax="767">
      <contour>
        <pt x="400" y="331" on="1"/>
        <pt x="398" y="332" on="0"/>
        <pt x="397" y="332" on="1"/>
        <pt x="363" y="346" on="0"/>
        <pt x="264" y="346" on="0"/>
        <pt x="235" y="336" on="1"/>
        <pt x="189" y="320" on="0"/>
        <pt x="189" y="294" on="1"/>
        <pt x="189" y="281" on="0"/>
        <pt x="214" y="281" on="1"/>
        <pt x="218" y="281" on="0"/>
        <pt x="232" y="283" on="1"/>
        <pt x="233" y="283" on="1"/>
        <pt x="237" y="283" on="0"/>
        <pt x="237" y="262" on="1"/>
        <pt x="236" y="239" on="1"/>
        <pt x="231" y="170" on="0"/>
        <pt x="231" y="109" on="0"/>
        <pt x="240" y="79" on="1"/>
        <pt x="249" y="49" on="1"/>
        <pt x="249" y="46" on="0"/>
        <pt x="246" y="44" on="1"/>
        <pt x="238" y="41" on="0"/>
        <pt x="213" y="25" on="1"/>
        <pt x="152" y="-14" on="0"/>
        <pt x="99" y="-14" on="0"/>
        <pt x="54" y="-1" on="0"/>
        <pt x="28" y="13" on="0"/>
        <pt x="28" y="16" on="1"/>
        <pt x="28" y="21" on="0"/>
        <pt x="49" y="78" on="0"/>
        <pt x="49" y="102" on="1"/>
        <pt x="49" y="107" on="0"/>
        <pt x="29" y="120" on="0"/>
        <pt x="29" y="138" on="0"/>
        <pt x="42" y="170" on="0"/>
        <pt x="42" y="171" on="1"/>
        <pt x="42" y="175" on="1"/>
        <pt x="41" y="225" on="1"/>
        <pt x="41" y="238" on="0"/>
        <pt x="43" y="278" on="1"/>
        <pt x="43" y="282" on="1"/>
        <pt x="44" y="300" on="1"/>
        <pt x="44" y="321" on="0"/>
        <pt x="37" y="363" on="0"/>
        <pt x="37" y="365" on="0"/>
        <pt x="69" y="393" on="0"/>
        <pt x="69" y="409" on="0"/>
        <pt x="63" y="418" on="0"/>
        <pt x="54" y="423" on="0"/>
        <pt x="50" y="425" on="1"/>
        <pt x="39" y="430" on="0"/>
        <pt x="39" y="431" on="1"/>
        <pt x="44" y="481" on="0"/>
        <pt x="44" y="500" on="1"/>
        <pt x="41" y="610" on="1"/>
        <pt x="53" y="626" on="0"/>
        <pt x="53" y="634" on="0"/>
        <pt x="44" y="643" on="1"/>
        <pt x="35" y="648" on="0"/>
        <pt x="20" y="718" on="0"/>
        <pt x="20" y="735" on="1"/>
        <pt x="20" y="742" on="0"/>
        <pt x="142" y="757" on="0"/>
        <pt x="142" y="763" on="1"/>
        <pt x="147" y="766" on="0"/>
        <pt x="163" y="766" on="0"/>
        <pt x="237" y="758" on="0"/>
        <pt x="241" y="754" on="1"/>
        <pt x="245" y="744" on="1"/>
        <pt x="249" y="735" on="0"/>
        <pt x="269" y="735" on="0"/>
        <pt x="359" y="759" on="0"/>
        <pt x="394" y="759" on="1"/>
        <pt x="433" y="767" on="1"/>
        <pt x="484" y="757" on="0"/>
        <pt x="487" y="755" on="1"/>
        <pt x="489" y="751" on="0"/>
        <pt x="489" y="720" on="0"/>
        <pt x="485" y="698" on="1"/>
        <pt x="485" y="696" on="1"/>
        <pt x="462" y="604" on="0"/>
        <pt x="440" y="582" on="0"/>
        <pt x="375" y="583" on="0"/>
        <pt x="375" y="594" on="1"/>
        <pt x="375" y="597" on="1"/>
        <pt x="375" y="622" on="0"/>
        <pt x="345" y="651" on="0"/>
        <pt x="294" y="651" on="0"/>
        <pt x="222" y="619" on="0"/>
        <pt x="222" y="610" on="1"/>
        <pt x="222" y="608" on="0"/>
        <pt x="243" y="591" on="0"/>
        <pt x="243" y="577" on="0"/>
        <pt x="239" y="572" on="1"/>
        <pt x="233" y="563" on="0"/>
        <pt x="233" y="483" on="0"/>
        <pt x="243" y="473" on="0"/>
        <pt x="274" y="473" on="1"/>
        <pt x="422" y="477" on="1"/>
        <pt x="441" y="477" on="0"/>
        <pt x="446" y="472" on="0"/>
        <pt x="446" y="418" on="0"/>
        <pt x="412" y="331" on="0"/>
        <pt x="401" y="331" on="1"/>
      </contour>
    </TTGlyph>
    <TTGlyph name="G" xMin="10" yMin="-16" xMax="529" yMax="762">
      <contour>
        <pt x="332" y="461" on="1"/>
        <pt x="359" y="460" on="1"/>
        <pt x="389" y="460" on="0"/>
        <pt x="407" y="478" on="0"/>
        <pt x="512" y="477" on="0"/>
        <pt x="529" y="460" on="0"/>
        <pt x="529" y="402" on="0"/>
        <pt x="527" y="400" on="1"/>
        <pt x="505" y="385" on="0"/>
        <pt x="499" y="363" on="0"/>
        <pt x="499" y="348" on="0"/>
        <pt x="528" y="334" on="0"/>
        <pt x="528" y="329" on="1"/>
        <pt x="528" y="314" on="0"/>
        <pt x="510" y="258" on="0"/>
        <pt x="510" y="251" on="1"/>
        <pt x="510" y="203" on="0"/>
        <pt x="519" y="120" on="0"/>
        <pt x="519" y="64" on="0"/>
        <pt x="512" y="54" on="1"/>
        <pt x="498" y="40" on="0"/>
        <pt x="452" y="20" on="0"/>
        <pt x="441" y="20" on="1"/>
        <pt x="439" y="20" on="0"/>
        <pt x="398" y="57" on="0"/>
        <pt x="380" y="57" on="0"/>
        <pt x="351" y="34" on="0"/>
        <pt x="317" y="7" on="0"/>
        <pt x="260" y="-16" on="0"/>
        <pt x="206" y="-16" on="0"/>
        <pt x="110" y="34" on="0"/>
        <pt x="97" y="47" on="1"/>
        <pt x="93" y="50" on="0"/>
        <pt x="78" y="75" on="0"/>
        <pt x="72" y="81" on="0"/>
        <pt x="43" y="94" on="0"/>
        <pt x="33" y="104" on="0"/>
        <pt x="21" y="262" on="0"/>
        <pt x="13" y="278" on="1"/>
        <pt x="13" y="279" on="1"/>
        <pt x="13" y="280" on="0"/>
        <pt x="40" y="301" on="0"/>
        <pt x="40" y="328" on="0"/>
        <pt x="25" y="347" on="0"/>
        <pt x="10" y="359" on="0"/>
        <pt x="10" y="360" on="1"/>
        <pt x="10" y="380" on="0"/>
        <pt x="31" y="424" on="1"/>
        <pt x="37" y="436" on="0"/>
        <pt x="37" y="484" on="1"/>
        <pt x="35" y="569" on="1"/>
        <pt x="35" y="595" on="0"/>
        <pt x="185" y="755" on="0"/>
        <pt x="212" y="755" on="1"/>
        <pt x="233" y="744" on="1"/>
        <pt x="236" y="744" on="0"/>
        <pt x="357" y="762" on="0"/>
        <pt x="399" y="762" on="0"/>
        <pt x="470" y="748" on="0"/>
        <pt x="480" y="738" on="0"/>
        <pt x="480" y="704" on="0"/>
        <pt x="473" y="669" on="0"/>
        <pt x="449" y="606" on="0"/>
        <pt x="438" y="594" on="0"/>
        <pt x="411" y="594" on="0"/>
        <pt x="408" y="597" on="0"/>
        <pt x="393" y="617" on="0"/>
        <pt x="386" y="624" on="1"/>
        <pt x="368" y="644" on="0"/>
        <pt x="333" y="644" on="1"/>
        <pt x="324" y="644" on="0"/>
        <pt x="268" y="620" on="0"/>
        <pt x="253" y="605" on="1"/>
        <pt x="248" y="600" on="0"/>
        <pt x="234" y="542" on="0"/>
        <pt x="234" y="519" on="1"/>
        <pt x="234" y="515" on="0"/>
        <pt x="212" y="504" on="1"/>
        <pt x="203" y="492" on="0"/>
        <pt x="203" y="481" on="0"/>
        <pt x="236" y="464" on="0"/>
        <pt x="236" y="461" on="1"/>
        <pt x="236" y="450" on="0"/>
        <pt x="223" y="424" on="1"/>
        <pt x="215" y="398" on="0"/>
        <pt x="215" y="240" on="0"/>
        <pt x="219" y="236" on="0"/>
        <pt x="226" y="231" on="1"/>
        <pt x="244" y="219" on="0"/>
        <pt x="244" y="214" on="1"/>
        <pt x="242" y="206" on="0"/>
        <pt x="242" y="195" on="1"/>
        <pt x="242" y="158" on="0"/>
        <pt x="265" y="135" on="1"/>
        <pt x="272" y="128" on="0"/>
        <pt x="293" y="128" on="1"/>
        <pt x="304" y="128" on="0"/>
        <pt x="339" y="190" on="0"/>
        <pt x="339" y="214" on="1"/>
        <pt x="339" y="216" on="0"/>
        <pt x="322" y="250" on="0"/>
        <pt x="322" y="274" on="1"/>
        <pt x="332" y="286" on="1"/>
        <pt x="341" y="297" on="0"/>
        <pt x="341" y="322" on="0"/>
        <pt x="326" y="340" on="0"/>
        <pt x="318" y="342" on="0"/>
        <pt x="313" y="342" on="1"/>
        <pt x="276" y="338" on="1"/>
        <pt x="270" y="338" on="0"/>
        <pt x="270" y="341" on="1"/>
        <pt x="270" y="371" on="0"/>
        <pt x="303" y="446" on="0"/>
        <pt x="315" y="458" on="1"/>
        <pt x="318" y="461" on="0"/>
      </contour>
    </TTGlyph>
    <TTGlyph name="H" xMin="20" yMin="-32" xMax="580" yMax="786">
      <contour>
        <pt x="530" y="603" on="1"/>
        <pt x="532" y="543" on="1"/>
        <pt x="532" y="541" on="0"/>
        <pt x="505" y="518" on="0"/>
        <pt x="505" y="500" on="0"/>
        <pt x="527" y="480" on="0"/>
        <pt x="536" y="480" on="1"/>
        <pt x="540" y="480" on="0"/>
        <pt x="540" y="435" on="0"/>
        <pt x="536" y="426" on="0"/>
        <pt x="532" y="419" on="1"/>
        <pt x="528" y="410" on="1"/>
        <pt x="528" y="396" on="1"/>
        <pt x="528" y="222" on="0"/>
        <pt x="537" y="197" on="1"/>
        <pt x="537" y="196" on="1"/>
        <pt x="537" y="194" on="0"/>
        <pt x="510" y="166" on="0"/>
        <pt x="510" y="145" on="0"/>
        <pt x="526" y="137" on="0"/>
        <pt x="543" y="135" on="0"/>
        <pt x="543" y="134" on="1"/>
        <pt x="543" y="122" on="0"/>
        <pt x="569" y="70" on="0"/>
        <pt x="580" y="58" on="0"/>
        <pt x="580" y="56" on="1"/>
        <pt x="580" y="42" on="0"/>
        <pt x="474" y="-22" on="0"/>
        <pt x="427" y="-22" on="0"/>
        <pt x="346" y="28" on="0"/>
        <pt x="342" y="34" on="1"/>
        <pt x="336" y="43" on="0"/>
        <pt x="334" y="110" on="1"/>
        <pt x="334" y="133" on="1"/>
        <pt x="352" y="144" on="1"/>
        <pt x="369" y="156" on="0"/>
        <pt x="369" y="184" on="0"/>
        <pt x="335" y="192" on="0"/>
        <pt x="335" y="195" on="0"/>
        <pt x="345" y="241" on="0"/>
        <pt x="345" y="323" on="0"/>
        <pt x="338" y="330" on="1"/>
        <pt x="333" y="333" on="0"/>
        <pt x="328" y="333" on="1"/>
        <pt x="275" y="333" on="0"/>
        <pt x="209" y="292" on="0"/>
        <pt x="209" y="271" on="1"/>
        <pt x="209" y="259" on="0"/>
        <pt x="230" y="259" on="1"/>
        <pt x="244" y="261" on="1"/>
        <pt x="247" y="260" on="0"/>
        <pt x="247" y="255" on="1"/>
        <pt x="242" y="154" on="1"/>
        <pt x="242" y="102" on="0"/>
        <pt x="255" y="50" on="0"/>
        <pt x="255" y="24" on="0"/>
        <pt x="252" y="20" on="0"/>
        <pt x="214" y="-5" on="0"/>
        <pt x="157" y="-32" on="0"/>
        <pt x="117" y="-32" on="0"/>
        <pt x="20" y="2" on="0"/>
        <pt x="20" y="14" on="1"/>
        <pt x="21" y="16" on="1"/>
        <pt x="59" y="79" on="0"/>
        <pt x="59" y="292" on="1"/>
        <pt x="54" y="392" on="1"/>
        <pt x="38" y="408" on="0"/>
        <pt x="38" y="437" on="1"/>
        <pt x="38" y="441" on="1"/>
        <pt x="38" y="442" on="0"/>
        <pt x="69" y="466" on="0"/>
        <pt x="69" y="484" on="0"/>
        <pt x="57" y="496" on="0"/>
        <pt x="46" y="504" on="0"/>
        <pt x="46" y="506" on="1"/>
        <pt x="50" y="521" on="0"/>
        <pt x="50" y="612" on="0"/>
        <pt x="34" y="684" on="1"/>
        <pt x="34" y="685" on="0"/>
        <pt x="33" y="688" on="1"/>
        <pt x="33" y="689" on="1"/>
        <pt x="33" y="700" on="0"/>
        <pt x="153" y="768" on="0"/>
        <pt x="185" y="768" on="0"/>
        <pt x="256" y="745" on="0"/>
        <pt x="256" y="732" on="0"/>
        <pt x="243" y="633" on="0"/>
        <pt x="242" y="629" on="1"/>
        <pt x="235" y="613" on="1"/>
        <pt x="235" y="604" on="0"/>
        <pt x="257" y="572" on="0"/>
        <pt x="257" y="560" on="0"/>
        <pt x="254" y="554" on="1"/>
        <pt x="242" y="532" on="0"/>
        <pt x="241" y="494" on="0"/>
        <pt x="241" y="454" on="0"/>
        <pt x="246" y="449" on="0"/>
        <pt x="264" y="449" on="1"/>
        <pt x="313" y="449" on="0"/>
        <pt x="332" y="467" on="1"/>
        <pt x="349" y="486" on="0"/>
        <pt x="349" y="677" on="0"/>
        <pt x="340" y="711" on="1"/>
        <pt x="340" y="712" on="1"/>
        <pt x="340" y="723" on="0"/>
        <pt x="434" y="786" on="0"/>
        <pt x="479" y="786" on="0"/>
        <pt x="554" y="759" on="0"/>
        <pt x="554" y="748" on="1"/>
        <pt x="554" y="747" on="1"/>
        <pt x="530" y="691" on="0"/>
      </contour>
    </TTGlyph>
    <TTGlyph name="I" xMin="20" yMin="-21" xMax="258" yMax="773">
      <contour>
        <pt x="233" y="203" on="1"/>
        <pt x="231" y="184" on="0"/>
        <pt x="231" y="90" on="0"/>
        <pt x="258" y="36" on="1"/>
        <pt x="258" y="31" on="0"/>
        <pt x="235" y="15" on="0"/>
        <pt x="225" y="8" on="0"/>
        <pt x="208" y="-6" on="0"/>
        <pt x="203" y="-10" on="1"/>
        <pt x="189" y="-21" on="0"/>
        <pt x="183" y="-21" on="1"/>
        <pt x="154" y="-21" on="0"/>
        <pt x="21" y="1" on="0"/>
        <pt x="21" y="12" on="1"/>
        <pt x="21" y="18" on="0"/>
        <pt x="31" y="106" on="0"/>
        <pt x="32" y="111" on="1"/>
        <pt x="39" y="125" on="1"/>
        <pt x="48" y="224" on="0"/>
        <pt x="48" y="286" on="0"/>
        <pt x="43" y="378" on="0"/>
        <pt x="38" y="431" on="0"/>
        <pt x="38" y="434" on="0"/>
        <pt x="46" y="439" on="1"/>
        <pt x="68" y="454" on="0"/>
        <pt x="68" y="488" on="0"/>
        <pt x="35" y="505" on="0"/>
        <pt x="35" y="508" on="1"/>
        <pt x="35" y="518" on="0"/>
        <pt x="45" y="591" on="0"/>
        <pt x="45" y="631" on="0"/>
        <pt x="20" y="703" on="0"/>
        <pt x="20" y="708" on="1"/>
        <pt x="20" y="716" on="0"/>
        <pt x="113" y="773" on="0"/>
        <pt x="152" y="773" on="0"/>
        <pt x="242" y="748" on="0"/>
        <pt x="242" y="733" on="1"/>
        <pt x="242" y="722" on="0"/>
        <pt x="220" y="634" on="0"/>
        <pt x="220" y="622" on="0"/>
        <pt x="233" y="613" on="0"/>
        <pt x="233" y="607" on="1"/>
        <pt x="222" y="493" on="0"/>
        <pt x="222" y="414" on="0"/>
        <pt x="224" y="401" on="0"/>
        <pt x="234" y="385" on="0"/>
        <pt x="234" y="377" on="1"/>
        <pt x="234" y="376" on="0"/>
        <pt x="203" y="350" on="0"/>
        <pt x="203" y="330" on="0"/>
        <pt x="237" y="302" on="0"/>
        <pt x="237" y="287" on="1"/>
        <pt x="234" y="267" on="0"/>
        <pt x="233" y="264" on="0"/>
        <pt x="203" y="243" on="0"/>
        <pt x="203" y="239" on="1"/>
        <pt x="203" y="232" on="1"/>
        <pt x="203" y="219" on="0"/>
        <pt x="223" y="212" on="1"/>
        <pt x="233" y="208" on="0"/>
      </contour>
    </TTGlyph>
    <TTGlyph name="Iacute" xMin="20" yMin="-21" xMax="258" yMax="960">
      <contour>
        <pt x="163" y="868" on="1"/>
        <pt x="165" y="853" on="1"/>
        <pt x="165" y="850" on="0"/>
        <pt x="147" y="844" on="0"/>
        <pt x="101" y="805" on="0"/>
        <pt x="92" y="795" on="0"/>
        <pt x="82" y="795" on="0"/>
        <pt x="43" y="827" on="0"/>
        <pt x="43" y="844" on="0"/>
        <pt x="93" y="907" on="0"/>
        <pt x="93" y="909" on="1"/>
        <pt x="94" y="921" on="0"/>
        <pt x="94" y="922" on="1"/>
        <pt x="118" y="952" on="0"/>
        <pt x="121" y="955" on="0"/>
        <pt x="162" y="960" on="0"/>
        <pt x="186" y="960" on="0"/>
        <pt x="235" y="926" on="0"/>
        <pt x="235" y="917" on="1"/>
        <pt x="235" y="914" on="0"/>
        <pt x="227" y="908" on="1"/>
        <pt x="196" y="887" on="0"/>
        <pt x="187" y="877" on="1"/>
        <pt x="186" y="876" on="0"/>
        <pt x="163" y="876" on="0"/>
      </contour>
      <contour>
        <pt x="233" y="203" on="1"/>
        <pt x="231" y="184" on="0"/>
        <pt x="231" y="90" on="0"/>
        <pt x="258" y="36" on="1"/>
        <pt x="258" y="31" on="0"/>
        <pt x="235" y="15" on="0"/>
        <pt x="225" y="8" on="0"/>
        <pt x="208" y="-6" on="0"/>
        <pt x="203" y="-10" on="1"/>
        <pt x="189" y="-21" on="0"/>
        <pt x="183" y="-21" on="1"/>
        <pt x="154" y="-21" on="0"/>
        <pt x="21" y="1" on="0"/>
        <pt x="21" y="12" on="1"/>
        <pt x="21" y="18" on="0"/>
        <pt x="31" y="106" on="0"/>
        <pt x="32" y="111" on="1"/>
        <pt x="39" y="125" on="1"/>
        <pt x="48" y="224" on="0"/>
        <pt x="48" y="286" on="0"/>
        <pt x="43" y="378" on="0"/>
        <pt x="38" y="431" on="0"/>
        <pt x="38" y="434" on="0"/>
        <pt x="46" y="439" on="1"/>
        <pt x="68" y="454" on="0"/>
        <pt x="68" y="488" on="0"/>
        <pt x="35" y="505" on="0"/>
        <pt x="35" y="508" on="1"/>
        <pt x="35" y="518" on="0"/>
        <pt x="45" y="591" on="0"/>
        <pt x="45" y="631" on="0"/>
        <pt x="20" y="703" on="0"/>
        <pt x="20" y="708" on="1"/>
        <pt x="20" y="716" on="0"/>
        <pt x="113" y="773" on="0"/>
        <pt x="152" y="773" on="0"/>
        <pt x="242" y="748" on="0"/>
        <pt x="242" y="733" on="1"/>
        <pt x="242" y="722" on="0"/>
        <pt x="220" y="634" on="0"/>
        <pt x="220" y="622" on="0"/>
        <pt x="233" y="613" on="0"/>
        <pt x="233" y="607" on="1"/>
        <pt x="222" y="493" on="0"/>
        <pt x="222" y="414" on="0"/>
        <pt x="224" y="401" on="0"/>
        <pt x="234" y="385" on="0"/>
        <pt x="234" y="377" on="1"/>
        <pt x="234" y="376" on="0"/>
        <pt x="203" y="350" on="0"/>
        <pt x="203" y="330" on="0"/>
        <pt x="237" y="302" on="0"/>
        <pt x="237" y="287" on="1"/>
        <pt x="234" y="267" on="0"/>
        <pt x="233" y="264" on="0"/>
        <pt x="203" y="243" on="0"/>
        <pt x="203" y="239" on="1"/>
        <pt x="203" y="232" on="1"/>
        <pt x="203" y="219" on="0"/>
        <pt x="223" y="212" on="1"/>
        <pt x="233" y="208" on="0"/>
      </contour>
    </TTGlyph>
    <TTGlyph name="Icircumflex" xMin="-18" yMin="-21" xMax="297" yMax="964">
      <contour>
        <pt x="48" y="913" on="1"/>
        <pt x="44" y="933" on="1"/>
        <pt x="62" y="962" on="0"/>
        <pt x="69" y="962" on="1"/>
        <pt x="90" y="962" on="1"/>
        <pt x="120" y="962" on="0"/>
        <pt x="122" y="959" on="1"/>
        <pt x="140" y="944" on="0"/>
        <pt x="144" y="944" on="0"/>
        <pt x="167" y="959" on="1"/>
        <pt x="170" y="964" on="0"/>
        <pt x="213" y="964" on="0"/>
        <pt x="220" y="958" on="0"/>
        <pt x="252" y="907" on="0"/>
        <pt x="252" y="903" on="1"/>
        <pt x="249" y="892" on="0"/>
        <pt x="249" y="872" on="0"/>
        <pt x="270" y="872" on="1"/>
        <pt x="297" y="838" on="0"/>
        <pt x="297" y="831" on="0"/>
        <pt x="293" y="827" on="0"/>
        <pt x="287" y="823" on="0"/>
        <pt x="276" y="812" on="0"/>
        <pt x="253" y="801" on="0"/>
        <pt x="241" y="799" on="1"/>
        <pt x="218" y="799" on="0"/>
        <pt x="218" y="803" on="1"/>
        <pt x="180" y="848" on="1"/>
        <pt x="163" y="851" on="0"/>
        <pt x="163" y="856" on="1"/>
        <pt x="163" y="869" on="0"/>
        <pt x="145" y="898" on="0"/>
        <pt x="139" y="898" on="1"/>
        <pt x="134" y="898" on="0"/>
        <pt x="112" y="870" on="1"/>
        <pt x="104" y="860" on="1"/>
        <pt x="104" y="844" on="0"/>
        <pt x="98" y="840" on="1"/>
        <pt x="82" y="840" on="0"/>
        <pt x="45" y="800" on="0"/>
        <pt x="44" y="800" on="1"/>
        <pt x="28" y="800" on="0"/>
        <pt x="-3" y="815" on="0"/>
        <pt x="-18" y="829" on="0"/>
        <pt x="-18" y="831" on="1"/>
        <pt x="2" y="862" on="1"/>
        <pt x="21" y="893" on="0"/>
        <pt x="21" y="898" on="1"/>
        <pt x="48" y="904" on="0"/>
      </contour>
      <contour>
        <pt x="233" y="203" on="1"/>
        <pt x="231" y="184" on="0"/>
        <pt x="231" y="90" on="0"/>
        <pt x="258" y="36" on="1"/>
        <pt x="258" y="31" on="0"/>
        <pt x="235" y="15" on="0"/>
        <pt x="225" y="8" on="0"/>
        <pt x="208" y="-6" on="0"/>
        <pt x="203" y="-10" on="1"/>
        <pt x="189" y="-21" on="0"/>
        <pt x="183" y="-21" on="1"/>
        <pt x="154" y="-21" on="0"/>
        <pt x="21" y="1" on="0"/>
        <pt x="21" y="12" on="1"/>
        <pt x="21" y="18" on="0"/>
        <pt x="31" y="106" on="0"/>
        <pt x="32" y="111" on="1"/>
        <pt x="39" y="125" on="1"/>
        <pt x="48" y="224" on="0"/>
        <pt x="48" y="286" on="0"/>
        <pt x="43" y="378" on="0"/>
        <pt x="38" y="431" on="0"/>
        <pt x="38" y="434" on="0"/>
        <pt x="46" y="439" on="1"/>
        <pt x="68" y="454" on="0"/>
        <pt x="68" y="488" on="0"/>
        <pt x="35" y="505" on="0"/>
        <pt x="35" y="508" on="1"/>
        <pt x="35" y="518" on="0"/>
        <pt x="45" y="591" on="0"/>
        <pt x="45" y="631" on="0"/>
        <pt x="20" y="703" on="0"/>
        <pt x="20" y="708" on="1"/>
        <pt x="20" y="716" on="0"/>
        <pt x="113" y="773" on="0"/>
        <pt x="152" y="773" on="0"/>
        <pt x="242" y="748" on="0"/>
        <pt x="242" y="733" on="1"/>
        <pt x="242" y="722" on="0"/>
        <pt x="220" y="634" on="0"/>
        <pt x="220" y="622" on="0"/>
        <pt x="233" y="613" on="0"/>
        <pt x="233" y="607" on="1"/>
        <pt x="222" y="493" on="0"/>
        <pt x="222" y="414" on="0"/>
        <pt x="224" y="401" on="0"/>
        <pt x="234" y="385" on="0"/>
        <pt x="234" y="377" on="1"/>
        <pt x="234" y="376" on="0"/>
        <pt x="203" y="350" on="0"/>
        <pt x="203" y="330" on="0"/>
        <pt x="237" y="302" on="0"/>
        <pt x="237" y="287" on="1"/>
        <pt x="234" y="267" on="0"/>
        <pt x="233" y="264" on="0"/>
        <pt x="203" y="243" on="0"/>
        <pt x="203" y="239" on="1"/>
        <pt x="203" y="232" on="1"/>
        <pt x="203" y="219" on="0"/>
        <pt x="223" y="212" on="1"/>
        <pt x="233" y="208" on="0"/>
      </contour>
    </TTGlyph>
    <TTGlyph name="Idieresis" xMin="-43" yMin="-21" xMax="321" yMax="943">
      <contour>
        <pt x="99" y="889" on="1"/>
        <pt x="99" y="869" on="0"/>
        <pt x="88" y="838" on="0"/>
        <pt x="78" y="828" on="1"/>
        <pt x="70" y="822" on="0"/>
        <pt x="30" y="809" on="0"/>
        <pt x="-7" y="809" on="0"/>
        <pt x="-15" y="817" on="1"/>
        <pt x="-16" y="818" on="0"/>
        <pt x="-16" y="828" on="1"/>
        <pt x="-16" y="843" on="0"/>
        <pt x="-27" y="843" on="1"/>
        <pt x="-33" y="843" on="1"/>
        <pt x="-37" y="843" on="0"/>
        <pt x="-43" y="848" on="0"/>
        <pt x="-43" y="897" on="0"/>
        <pt x="-40" y="902" on="0"/>
        <pt x="-19" y="924" on="0"/>
        <pt x="-8" y="930" on="1"/>
        <pt x="35" y="943" on="0"/>
        <pt x="55" y="943" on="0"/>
        <pt x="84" y="934" on="0"/>
        <pt x="84" y="930" on="1"/>
        <pt x="80" y="920" on="0"/>
        <pt x="80" y="911" on="1"/>
        <pt x="99" y="895" on="0"/>
      </contour>
      <contour>
        <pt x="321" y="876" on="1"/>
        <pt x="320" y="846" on="0"/>
        <pt x="302" y="828" on="0"/>
        <pt x="292" y="828" on="0"/>
        <pt x="262" y="801" on="0"/>
        <pt x="260" y="801" on="1"/>
        <pt x="217" y="807" on="1"/>
        <pt x="203" y="812" on="0"/>
        <pt x="174" y="837" on="1"/>
        <pt x="171" y="840" on="0"/>
        <pt x="171" y="870" on="0"/>
        <pt x="178" y="906" on="0"/>
        <pt x="182" y="906" on="1"/>
        <pt x="195" y="906" on="0"/>
        <pt x="236" y="939" on="1"/>
        <pt x="246" y="943" on="0"/>
        <pt x="254" y="943" on="1"/>
        <pt x="305" y="931" on="0"/>
        <pt x="305" y="916" on="1"/>
        <pt x="299" y="907" on="0"/>
        <pt x="299" y="896" on="0"/>
        <pt x="321" y="882" on="0"/>
      </contour>
      <contour>
        <pt x="233" y="203" on="1"/>
        <pt x="231" y="184" on="0"/>
        <pt x="231" y="90" on="0"/>
        <pt x="258" y="36" on="1"/>
        <pt x="258" y="31" on="0"/>
        <pt x="235" y="15" on="0"/>
        <pt x="225" y="8" on="0"/>
        <pt x="208" y="-6" on="0"/>
        <pt x="203" y="-10" on="1"/>
        <pt x="189" y="-21" on="0"/>
        <pt x="183" y="-21" on="1"/>
        <pt x="154" y="-21" on="0"/>
        <pt x="21" y="1" on="0"/>
        <pt x="21" y="12" on="1"/>
        <pt x="21" y="18" on="0"/>
        <pt x="31" y="106" on="0"/>
        <pt x="32" y="111" on="1"/>
        <pt x="39" y="125" on="1"/>
        <pt x="48" y="224" on="0"/>
        <pt x="48" y="286" on="0"/>
        <pt x="43" y="378" on="0"/>
        <pt x="38" y="431" on="0"/>
        <pt x="38" y="434" on="0"/>
        <pt x="46" y="439" on="1"/>
        <pt x="68" y="454" on="0"/>
        <pt x="68" y="488" on="0"/>
        <pt x="35" y="505" on="0"/>
        <pt x="35" y="508" on="1"/>
        <pt x="35" y="518" on="0"/>
        <pt x="45" y="591" on="0"/>
        <pt x="45" y="631" on="0"/>
        <pt x="20" y="703" on="0"/>
        <pt x="20" y="708" on="1"/>
        <pt x="20" y="716" on="0"/>
        <pt x="113" y="773" on="0"/>
        <pt x="152" y="773" on="0"/>
        <pt x="242" y="748" on="0"/>
        <pt x="242" y="733" on="1"/>
        <pt x="242" y="722" on="0"/>
        <pt x="220" y="634" on="0"/>
        <pt x="220" y="622" on="0"/>
        <pt x="233" y="613" on="0"/>
        <pt x="233" y="607" on="1"/>
        <pt x="222" y="493" on="0"/>
        <pt x="222" y="414" on="0"/>
        <pt x="224" y="401" on="0"/>
        <pt x="234" y="385" on="0"/>
        <pt x="234" y="377" on="1"/>
        <pt x="234" y="376" on="0"/>
        <pt x="203" y="350" on="0"/>
        <pt x="203" y="330" on="0"/>
        <pt x="237" y="302" on="0"/>
        <pt x="237" y="287" on="1"/>
        <pt x="234" y="267" on="0"/>
        <pt x="233" y="264" on="0"/>
        <pt x="203" y="243" on="0"/>
        <pt x="203" y="239" on="1"/>
        <pt x="203" y="232" on="1"/>
        <pt x="203" y="219" on="0"/>
        <pt x="223" y="212" on="1"/>
        <pt x="233" y="208" on="0"/>
      </contour>
    </TTGlyph>
    <TTGlyph name="Igrave" xMin="20" yMin="-21" xMax="258" yMax="967">
      <contour>
        <pt x="95" y="890" on="1"/>
        <pt x="81" y="889" on="1"/>
        <pt x="80" y="889" on="1"/>
        <pt x="80" y="890" on="0"/>
        <pt x="41" y="930" on="0"/>
        <pt x="41" y="932" on="1"/>
        <pt x="41" y="937" on="0"/>
        <pt x="102" y="967" on="0"/>
        <pt x="118" y="967" on="1"/>
        <pt x="173" y="956" on="0"/>
        <pt x="175" y="954" on="1"/>
        <pt x="219" y="863" on="0"/>
        <pt x="238" y="844" on="1"/>
        <pt x="238" y="843" on="1"/>
        <pt x="238" y="832" on="0"/>
        <pt x="189" y="816" on="0"/>
        <pt x="171" y="816" on="1"/>
        <pt x="166" y="816" on="0"/>
        <pt x="111" y="861" on="0"/>
        <pt x="107" y="861" on="1"/>
        <pt x="106" y="861" on="0"/>
        <pt x="106" y="866" on="1"/>
        <pt x="106" y="876" on="1"/>
        <pt x="106" y="885" on="0"/>
        <pt x="101" y="890" on="0"/>
      </contour>
      <contour>
        <pt x="233" y="203" on="1"/>
        <pt x="231" y="184" on="0"/>
        <pt x="231" y="90" on="0"/>
        <pt x="258" y="36" on="1"/>
        <pt x="258" y="31" on="0"/>
        <pt x="235" y="15" on="0"/>
        <pt x="225" y="8" on="0"/>
        <pt x="208" y="-6" on="0"/>
        <pt x="203" y="-10" on="1"/>
        <pt x="189" y="-21" on="0"/>
        <pt x="183" y="-21" on="1"/>
        <pt x="154" y="-21" on="0"/>
        <pt x="21" y="1" on="0"/>
        <pt x="21" y="12" on="1"/>
        <pt x="21" y="18" on="0"/>
        <pt x="31" y="106" on="0"/>
        <pt x="32" y="111" on="1"/>
        <pt x="39" y="125" on="1"/>
        <pt x="48" y="224" on="0"/>
        <pt x="48" y="286" on="0"/>
        <pt x="43" y="378" on="0"/>
        <pt x="38" y="431" on="0"/>
        <pt x="38" y="434" on="0"/>
        <pt x="46" y="439" on="1"/>
        <pt x="68" y="454" on="0"/>
        <pt x="68" y="488" on="0"/>
        <pt x="35" y="505" on="0"/>
        <pt x="35" y="508" on="1"/>
        <pt x="35" y="518" on="0"/>
        <pt x="45" y="591" on="0"/>
        <pt x="45" y="631" on="0"/>
        <pt x="20" y="703" on="0"/>
        <pt x="20" y="708" on="1"/>
        <pt x="20" y="716" on="0"/>
        <pt x="113" y="773" on="0"/>
        <pt x="152" y="773" on="0"/>
        <pt x="242" y="748" on="0"/>
        <pt x="242" y="733" on="1"/>
        <pt x="242" y="722" on="0"/>
        <pt x="220" y="634" on="0"/>
        <pt x="220" y="622" on="0"/>
        <pt x="233" y="613" on="0"/>
        <pt x="233" y="607" on="1"/>
        <pt x="222" y="493" on="0"/>
        <pt x="222" y="414" on="0"/>
        <pt x="224" y="401" on="0"/>
        <pt x="234" y="385" on="0"/>
        <pt x="234" y="377" on="1"/>
        <pt x="234" y="376" on="0"/>
        <pt x="203" y="350" on="0"/>
        <pt x="203" y="330" on="0"/>
        <pt x="237" y="302" on="0"/>
        <pt x="237" y="287" on="1"/>
        <pt x="234" y="267" on="0"/>
        <pt x="233" y="264" on="0"/>
        <pt x="203" y="243" on="0"/>
        <pt x="203" y="239" on="1"/>
        <pt x="203" y="232" on="1"/>
        <pt x="203" y="219" on="0"/>
        <pt x="223" y="212" on="1"/>
        <pt x="233" y="208" on="0"/>
      </contour>
    </TTGlyph>
    <TTGlyph name="J" xMin="5" yMin="-33" xMax="492" yMax="779">
      <contour>
        <pt x="467" y="298" on="1"/>
        <pt x="473" y="158" on="1"/>
        <pt x="473" y="144" on="0"/>
        <pt x="466" y="110" on="0"/>
        <pt x="413" y="32" on="0"/>
        <pt x="399" y="32" on="1"/>
        <pt x="367" y="42" on="1"/>
        <pt x="363" y="42" on="0"/>
        <pt x="348" y="24" on="0"/>
        <pt x="325" y="2" on="0"/>
        <pt x="216" y="-33" on="0"/>
        <pt x="197" y="-33" on="1"/>
        <pt x="149" y="-33" on="0"/>
        <pt x="53" y="27" on="0"/>
        <pt x="29" y="53" on="1"/>
        <pt x="28" y="54" on="0"/>
        <pt x="11" y="60" on="0"/>
        <pt x="6" y="65" on="0"/>
        <pt x="6" y="78" on="1"/>
        <pt x="6" y="105" on="0"/>
        <pt x="15" y="152" on="1"/>
        <pt x="18" y="167" on="1"/>
        <pt x="18" y="167" on="0"/>
        <pt x="5" y="220" on="1"/>
        <pt x="5" y="231" on="0"/>
        <pt x="104" y="305" on="0"/>
        <pt x="148" y="305" on="0"/>
        <pt x="170" y="298" on="1"/>
        <pt x="197" y="291" on="0"/>
        <pt x="197" y="283" on="0"/>
        <pt x="181" y="232" on="0"/>
        <pt x="181" y="209" on="0"/>
        <pt x="205" y="192" on="0"/>
        <pt x="205" y="190" on="1"/>
        <pt x="205" y="176" on="0"/>
        <pt x="183" y="140" on="0"/>
        <pt x="183" y="139" on="1"/>
        <pt x="183" y="126" on="0"/>
        <pt x="220" y="92" on="0"/>
        <pt x="230" y="92" on="1"/>
        <pt x="245" y="92" on="0"/>
        <pt x="272" y="115" on="1"/>
        <pt x="287" y="130" on="0"/>
        <pt x="287" y="225" on="0"/>
        <pt x="277" y="235" on="0"/>
        <pt x="277" y="267" on="1"/>
        <pt x="277" y="275" on="1"/>
        <pt x="277" y="277" on="0"/>
        <pt x="307" y="298" on="0"/>
        <pt x="307" y="322" on="0"/>
        <pt x="280" y="338" on="0"/>
        <pt x="280" y="339" on="1"/>
        <pt x="281" y="360" on="1"/>
        <pt x="283" y="402" on="0"/>
        <pt x="283" y="557" on="0"/>
        <pt x="276" y="579" on="1"/>
        <pt x="276" y="580" on="1"/>
        <pt x="276" y="586" on="0"/>
        <pt x="310" y="613" on="0"/>
        <pt x="310" y="614" on="1"/>
        <pt x="310" y="623" on="0"/>
        <pt x="296" y="639" on="0"/>
        <pt x="268" y="639" on="0"/>
        <pt x="238" y="619" on="0"/>
        <pt x="223" y="599" on="0"/>
        <pt x="215" y="599" on="0"/>
        <pt x="181" y="627" on="0"/>
        <pt x="181" y="643" on="0"/>
        <pt x="202" y="724" on="0"/>
        <pt x="207" y="730" on="1"/>
        <pt x="217" y="739" on="0"/>
        <pt x="348" y="779" on="0"/>
        <pt x="389" y="779" on="1"/>
        <pt x="396" y="774" on="0"/>
        <pt x="400" y="768" on="0"/>
        <pt x="402" y="768" on="1"/>
        <pt x="471" y="775" on="1"/>
        <pt x="483" y="775" on="0"/>
        <pt x="492" y="766" on="0"/>
        <pt x="492" y="705" on="1"/>
        <pt x="492" y="690" on="0"/>
        <pt x="460" y="619" on="0"/>
        <pt x="460" y="608" on="0"/>
        <pt x="484" y="587" on="0"/>
        <pt x="484" y="575" on="0"/>
        <pt x="456" y="548" on="0"/>
        <pt x="456" y="531" on="0"/>
        <pt x="486" y="492" on="0"/>
        <pt x="486" y="486" on="0"/>
        <pt x="485" y="486" on="0"/>
        <pt x="485" y="485" on="1"/>
        <pt x="467" y="453" on="0"/>
        <pt x="467" y="368" on="1"/>
      </contour>
    </TTGlyph>
    <TTGlyph name="K" xMin="20" yMin="-24" xMax="564" yMax="792">
      <contour>
        <pt x="233" y="755" on="1"/>
        <pt x="218" y="657" on="1"/>
        <pt x="227" y="653" on="0"/>
        <pt x="227" y="647" on="1"/>
        <pt x="227" y="641" on="1"/>
        <pt x="215" y="567" on="1"/>
        <pt x="215" y="566" on="0"/>
        <pt x="214" y="564" on="1"/>
        <pt x="214" y="542" on="1"/>
        <pt x="216" y="510" on="0"/>
        <pt x="220" y="506" on="1"/>
        <pt x="234" y="493" on="0"/>
        <pt x="242" y="493" on="0"/>
        <pt x="242" y="494" on="0"/>
        <pt x="246" y="497" on="0"/>
        <pt x="281" y="592" on="0"/>
        <pt x="289" y="599" on="0"/>
        <pt x="316" y="601" on="0"/>
        <pt x="320" y="605" on="1"/>
        <pt x="326" y="616" on="0"/>
        <pt x="326" y="623" on="1"/>
        <pt x="317" y="649" on="1"/>
        <pt x="317" y="650" on="0"/>
        <pt x="318" y="650" on="0"/>
        <pt x="318" y="651" on="1"/>
        <pt x="355" y="718" on="0"/>
        <pt x="362" y="751" on="1"/>
        <pt x="363" y="756" on="0"/>
        <pt x="465" y="792" on="0"/>
        <pt x="477" y="792" on="0"/>
        <pt x="488" y="782" on="0"/>
        <pt x="493" y="782" on="1"/>
        <pt x="517" y="785" on="1"/>
        <pt x="521" y="785" on="0"/>
        <pt x="564" y="758" on="0"/>
        <pt x="564" y="750" on="0"/>
        <pt x="527" y="712" on="0"/>
        <pt x="525" y="708" on="1"/>
        <pt x="513" y="684" on="0"/>
        <pt x="501" y="684" on="1"/>
        <pt x="490" y="687" on="0"/>
        <pt x="488" y="687" on="1"/>
        <pt x="467" y="676" on="0"/>
        <pt x="467" y="660" on="0"/>
        <pt x="478" y="644" on="0"/>
        <pt x="478" y="639" on="0"/>
        <pt x="466" y="626" on="1"/>
        <pt x="427" y="581" on="0"/>
        <pt x="415" y="562" on="1"/>
        <pt x="365" y="483" on="0"/>
        <pt x="365" y="473" on="1"/>
        <pt x="365" y="469" on="0"/>
        <pt x="424" y="444" on="1"/>
        <pt x="447" y="434" on="0"/>
        <pt x="484" y="387" on="0"/>
        <pt x="484" y="356" on="1"/>
        <pt x="484" y="345" on="0"/>
        <pt x="492" y="314" on="0"/>
        <pt x="492" y="297" on="0"/>
        <pt x="483" y="288" on="1"/>
        <pt x="474" y="271" on="0"/>
        <pt x="474" y="264" on="1"/>
        <pt x="474" y="253" on="0"/>
        <pt x="506" y="244" on="1"/>
        <pt x="510" y="239" on="0"/>
        <pt x="516" y="148" on="0"/>
        <pt x="516" y="122" on="1"/>
        <pt x="560" y="61" on="0"/>
        <pt x="560" y="49" on="1"/>
        <pt x="560" y="39" on="0"/>
        <pt x="443" y="-11" on="0"/>
        <pt x="415" y="-11" on="0"/>
        <pt x="351" y="11" on="0"/>
        <pt x="344" y="17" on="1"/>
        <pt x="334" y="27" on="0"/>
        <pt x="328" y="86" on="1"/>
        <pt x="326" y="106" on="1"/>
        <pt x="326" y="107" on="1"/>
        <pt x="326" y="108" on="0"/>
        <pt x="350" y="126" on="0"/>
        <pt x="350" y="156" on="0"/>
        <pt x="324" y="156" on="1"/>
        <pt x="322" y="156" on="1"/>
        <pt x="316" y="156" on="0"/>
        <pt x="316" y="180" on="1"/>
        <pt x="316" y="184" on="1"/>
        <pt x="309" y="274" on="1"/>
        <pt x="309" y="287" on="0"/>
        <pt x="311" y="292" on="1"/>
        <pt x="311" y="295" on="1"/>
        <pt x="311" y="311" on="0"/>
        <pt x="267" y="359" on="0"/>
        <pt x="242" y="359" on="1"/>
        <pt x="236" y="359" on="0"/>
        <pt x="216" y="329" on="0"/>
        <pt x="216" y="320" on="0"/>
        <pt x="241" y="299" on="0"/>
        <pt x="241" y="288" on="0"/>
        <pt x="233" y="270" on="0"/>
        <pt x="233" y="240" on="1"/>
        <pt x="233" y="236" on="1"/>
        <pt x="233" y="224" on="0"/>
        <pt x="247" y="209" on="0"/>
        <pt x="247" y="201" on="0"/>
        <pt x="238" y="188" on="0"/>
        <pt x="230" y="183" on="1"/>
        <pt x="223" y="176" on="0"/>
        <pt x="223" y="162" on="1"/>
        <pt x="223" y="158" on="1"/>
        <pt x="223" y="156" on="0"/>
        <pt x="240" y="143" on="0"/>
        <pt x="240" y="139" on="1"/>
        <pt x="240" y="138" on="1"/>
        <pt x="238" y="126" on="0"/>
        <pt x="238" y="110" on="1"/>
        <pt x="242" y="31" on="1"/>
        <pt x="242" y="22" on="0"/>
        <pt x="186" y="4" on="0"/>
        <pt x="140" y="-24" on="0"/>
        <pt x="98" y="-24" on="0"/>
        <pt x="24" y="9" on="0"/>
        <pt x="24" y="20" on="1"/>
        <pt x="37" y="134" on="1"/>
        <pt x="38" y="143" on="0"/>
        <pt x="38" y="163" on="1"/>
        <pt x="35" y="249" on="1"/>
        <pt x="35" y="253" on="0"/>
        <pt x="68" y="272" on="0"/>
        <pt x="68" y="294" on="0"/>
        <pt x="30" y="319" on="0"/>
        <pt x="30" y="322" on="1"/>
        <pt x="30" y="392" on="0"/>
        <pt x="39" y="467" on="1"/>
        <pt x="42" y="492" on="1"/>
        <pt x="30" y="511" on="0"/>
        <pt x="30" y="580" on="1"/>
        <pt x="30" y="581" on="0"/>
        <pt x="45" y="588" on="0"/>
        <pt x="45" y="595" on="1"/>
        <pt x="45" y="628" on="0"/>
        <pt x="20" y="696" on="0"/>
        <pt x="20" y="715" on="0"/>
        <pt x="113" y="771" on="0"/>
        <pt x="132" y="771" on="1"/>
        <pt x="188" y="769" on="1"/>
        <pt x="233" y="763" on="0"/>
      </contour>
    </TTGlyph>
    <TTGlyph name="L" xMin="20" yMin="-1" xMax="510" yMax="775">
      <contour>
        <pt x="485" y="133" on="1"/>
        <pt x="488" y="114" on="1"/>
        <pt x="488" y="100" on="0"/>
        <pt x="455" y="25" on="0"/>
        <pt x="452" y="21" on="1"/>
        <pt x="441" y="11" on="0"/>
        <pt x="401" y="11" on="1"/>
        <pt x="325" y="11" on="0"/>
        <pt x="262" y="19" on="1"/>
        <pt x="239" y="22" on="1"/>
        <pt x="222" y="22" on="0"/>
        <pt x="198" y="-1" on="0"/>
        <pt x="174" y="-1" on="1"/>
        <pt x="84" y="5" on="1"/>
        <pt x="34" y="5" on="0"/>
        <pt x="34" y="17" on="1"/>
        <pt x="34" y="19" on="1"/>
        <pt x="39" y="36" on="0"/>
        <pt x="39" y="73" on="1"/>
        <pt x="34" y="157" on="1"/>
        <pt x="34" y="158" on="1"/>
        <pt x="34" y="163" on="0"/>
        <pt x="72" y="191" on="0"/>
        <pt x="72" y="213" on="0"/>
        <pt x="54" y="233" on="0"/>
        <pt x="35" y="239" on="1"/>
        <pt x="33" y="245" on="0"/>
        <pt x="33" y="251" on="1"/>
        <pt x="39" y="291" on="1"/>
        <pt x="41" y="305" on="0"/>
        <pt x="41" y="317" on="1"/>
        <pt x="32" y="477" on="1"/>
        <pt x="32" y="480" on="0"/>
        <pt x="40" y="486" on="1"/>
        <pt x="55" y="497" on="0"/>
        <pt x="55" y="505" on="1"/>
        <pt x="50" y="527" on="1"/>
        <pt x="44" y="533" on="0"/>
        <pt x="35" y="537" on="1"/>
        <pt x="20" y="542" on="0"/>
        <pt x="20" y="553" on="0"/>
        <pt x="43" y="609" on="0"/>
        <pt x="43" y="616" on="1"/>
        <pt x="26" y="704" on="1"/>
        <pt x="26" y="712" on="0"/>
        <pt x="112" y="775" on="0"/>
        <pt x="169" y="775" on="0"/>
        <pt x="258" y="761" on="0"/>
        <pt x="258" y="754" on="1"/>
        <pt x="258" y="742" on="0"/>
        <pt x="243" y="639" on="0"/>
        <pt x="238" y="636" on="1"/>
        <pt x="214" y="624" on="0"/>
        <pt x="214" y="597" on="0"/>
        <pt x="245" y="570" on="0"/>
        <pt x="245" y="566" on="1"/>
        <pt x="245" y="565" on="1"/>
        <pt x="237" y="454" on="0"/>
        <pt x="237" y="371" on="0"/>
        <pt x="240" y="358" on="0"/>
        <pt x="257" y="340" on="0"/>
        <pt x="257" y="330" on="0"/>
        <pt x="236" y="299" on="0"/>
        <pt x="236" y="286" on="1"/>
        <pt x="239" y="255" on="0"/>
        <pt x="239" y="220" on="0"/>
        <pt x="237" y="218" on="1"/>
        <pt x="202" y="183" on="0"/>
        <pt x="202" y="158" on="1"/>
        <pt x="202" y="153" on="0"/>
        <pt x="212" y="135" on="0"/>
        <pt x="219" y="135" on="0"/>
        <pt x="257" y="164" on="0"/>
        <pt x="267" y="164" on="1"/>
        <pt x="270" y="164" on="1"/>
        <pt x="304" y="157" on="0"/>
        <pt x="364" y="157" on="0"/>
        <pt x="373" y="166" on="1"/>
        <pt x="407" y="200" on="0"/>
        <pt x="427" y="246" on="1"/>
        <pt x="432" y="258" on="0"/>
        <pt x="435" y="258" on="1"/>
        <pt x="463" y="258" on="0"/>
        <pt x="510" y="210" on="0"/>
        <pt x="510" y="194" on="1"/>
        <pt x="504" y="163" on="0"/>
        <pt x="485" y="140" on="0"/>
      </contour>
    </TTGlyph>
    <TTGlyph name="Lslash" xMin="-27" yMin="-1" xMax="510" yMax="775">
      <contour>
        <pt x="43" y="616" on="1"/>
        <pt x="26" y="704" on="1"/>
        <pt x="26" y="712" on="0"/>
        <pt x="112" y="775" on="0"/>
        <pt x="169" y="775" on="0"/>
        <pt x="258" y="761" on="0"/>
        <pt x="258" y="754" on="1"/>
        <pt x="258" y="742" on="0"/>
        <pt x="243" y="639" on="0"/>
        <pt x="238" y="636" on="1"/>
        <pt x="214" y="624" on="0"/>
        <pt x="214" y="597" on="0"/>
        <pt x="245" y="570" on="0"/>
        <pt x="245" y="566" on="1"/>
        <pt x="245" y="565" on="1"/>
        <pt x="243" y="549" on="0"/>
        <pt x="242" y="531" on="1"/>
        <pt x="250" y="534" on="0"/>
        <pt x="250" y="542" on="0"/>
        <pt x="261" y="547" on="0"/>
        <pt x="284" y="552" on="0"/>
        <pt x="290" y="554" on="1"/>
        <pt x="300" y="545" on="0"/>
        <pt x="307" y="528" on="1"/>
        <pt x="313" y="504" on="0"/>
        <pt x="313" y="461" on="1"/>
        <pt x="288" y="461" on="0"/>
        <pt x="288" y="454" on="1"/>
        <pt x="288" y="451" on="0"/>
        <pt x="239" y="435" on="0"/>
        <pt x="239" y="432" on="1"/>
        <pt x="238" y="436" on="1"/>
        <pt x="237" y="417" on="0"/>
        <pt x="237" y="371" on="0"/>
        <pt x="240" y="358" on="0"/>
        <pt x="257" y="340" on="0"/>
        <pt x="257" y="330" on="0"/>
        <pt x="236" y="299" on="0"/>
        <pt x="236" y="286" on="1"/>
        <pt x="239" y="255" on="0"/>
        <pt x="239" y="220" on="0"/>
        <pt x="237" y="218" on="1"/>
        <pt x="202" y="183" on="0"/>
        <pt x="202" y="158" on="1"/>
        <pt x="202" y="153" on="0"/>
        <pt x="212" y="135" on="0"/>
        <pt x="219" y="135" on="0"/>
        <pt x="257" y="164" on="0"/>
        <pt x="267" y="164" on="1"/>
        <pt x="270" y="164" on="1"/>
        <pt x="304" y="157" on="0"/>
        <pt x="364" y="157" on="0"/>
        <pt x="373" y="166" on="1"/>
        <pt x="407" y="200" on="0"/>
        <pt x="427" y="246" on="1"/>
        <pt x="432" y="258" on="0"/>
        <pt x="435" y="258" on="1"/>
        <pt x="463" y="258" on="0"/>
        <pt x="510" y="210" on="0"/>
        <pt x="510" y="194" on="1"/>
        <pt x="504" y="163" on="0"/>
        <pt x="485" y="140" on="0"/>
        <pt x="485" y="133" on="1"/>
        <pt x="488" y="114" on="1"/>
        <pt x="488" y="100" on="0"/>
        <pt x="455" y="25" on="0"/>
        <pt x="452" y="21" on="1"/>
        <pt x="441" y="11" on="0"/>
        <pt x="401" y="11" on="1"/>
        <pt x="325" y="11" on="0"/>
        <pt x="262" y="19" on="1"/>
        <pt x="239" y="22" on="1"/>
        <pt x="222" y="22" on="0"/>
        <pt x="198" y="-1" on="0"/>
        <pt x="174" y="-1" on="1"/>
        <pt x="84" y="5" on="1"/>
        <pt x="34" y="5" on="0"/>
        <pt x="34" y="17" on="1"/>
        <pt x="34" y="19" on="1"/>
        <pt x="39" y="36" on="0"/>
        <pt x="39" y="73" on="1"/>
        <pt x="34" y="157" on="1"/>
        <pt x="34" y="158" on="1"/>
        <pt x="34" y="163" on="0"/>
        <pt x="72" y="191" on="0"/>
        <pt x="72" y="213" on="0"/>
        <pt x="54" y="233" on="0"/>
        <pt x="35" y="239" on="1"/>
        <pt x="33" y="245" on="0"/>
        <pt x="33" y="251" on="1"/>
        <pt x="39" y="291" on="1"/>
        <pt x="41" y="305" on="0"/>
        <pt x="41" y="326" on="0"/>
        <pt x="38" y="358" on="0"/>
        <pt x="38" y="368" on="1"/>
        <pt x="20" y="363" on="0"/>
        <pt x="17" y="360" on="1"/>
        <pt x="7" y="347" on="0"/>
        <pt x="-10" y="347" on="1"/>
        <pt x="-13" y="347" on="0"/>
        <pt x="-13" y="348" on="1"/>
        <pt x="-27" y="385" on="0"/>
        <pt x="-27" y="433" on="1"/>
        <pt x="-27" y="437" on="1"/>
        <pt x="-23" y="445" on="0"/>
        <pt x="13" y="459" on="1"/>
        <pt x="22" y="461" on="0"/>
        <pt x="32" y="464" on="1"/>
        <pt x="32" y="477" on="1"/>
        <pt x="32" y="480" on="0"/>
        <pt x="40" y="486" on="1"/>
        <pt x="55" y="497" on="0"/>
        <pt x="55" y="505" on="1"/>
        <pt x="50" y="527" on="1"/>
        <pt x="44" y="533" on="0"/>
        <pt x="35" y="537" on="1"/>
        <pt x="20" y="542" on="0"/>
        <pt x="20" y="553" on="0"/>
        <pt x="43" y="609" on="0"/>
      </contour>
    </TTGlyph>
    <TTGlyph name="M" xMin="20" yMin="-21" xMax="791" yMax="784">
      <contour>
        <pt x="49" y="655" on="1"/>
        <pt x="45" y="730" on="1"/>
        <pt x="45" y="736" on="0"/>
        <pt x="144" y="775" on="0"/>
        <pt x="151" y="775" on="1"/>
        <pt x="176" y="764" on="1"/>
        <pt x="182" y="764" on="0"/>
        <pt x="203" y="765" on="0"/>
        <pt x="225" y="766" on="1"/>
        <pt x="275" y="767" on="0"/>
        <pt x="274" y="768" on="1"/>
        <pt x="345" y="754" on="0"/>
        <pt x="345" y="741" on="1"/>
        <pt x="345" y="714" on="0"/>
        <pt x="357" y="617" on="0"/>
        <pt x="369" y="604" on="1"/>
        <pt x="369" y="602" on="0"/>
        <pt x="343" y="568" on="0"/>
        <pt x="343" y="553" on="1"/>
        <pt x="343" y="548" on="0"/>
        <pt x="371" y="536" on="0"/>
        <pt x="371" y="533" on="1"/>
        <pt x="381" y="432" on="0"/>
        <pt x="392" y="414" on="0"/>
        <pt x="407" y="414" on="1"/>
        <pt x="411" y="414" on="0"/>
        <pt x="414" y="426" on="1"/>
        <pt x="425" y="472" on="0"/>
        <pt x="431" y="478" on="1"/>
        <pt x="442" y="588" on="0"/>
        <pt x="449" y="596" on="1"/>
        <pt x="479" y="612" on="0"/>
        <pt x="479" y="628" on="1"/>
        <pt x="479" y="637" on="0"/>
        <pt x="459" y="658" on="0"/>
        <pt x="459" y="663" on="0"/>
        <pt x="483" y="738" on="0"/>
        <pt x="494" y="749" on="0"/>
        <pt x="636" y="784" on="0"/>
        <pt x="654" y="784" on="1"/>
        <pt x="777" y="779" on="0"/>
        <pt x="777" y="762" on="1"/>
        <pt x="758" y="689" on="0"/>
        <pt x="758" y="667" on="0"/>
        <pt x="759" y="667" on="1"/>
        <pt x="768" y="667" on="0"/>
        <pt x="768" y="562" on="1"/>
        <pt x="768" y="544" on="1"/>
        <pt x="768" y="542" on="0"/>
        <pt x="760" y="538" on="1"/>
        <pt x="735" y="523" on="0"/>
        <pt x="735" y="501" on="1"/>
        <pt x="735" y="500" on="0"/>
        <pt x="765" y="477" on="0"/>
        <pt x="765" y="471" on="1"/>
        <pt x="765" y="470" on="1"/>
        <pt x="755" y="424" on="0"/>
        <pt x="755" y="287" on="1"/>
        <pt x="756" y="223" on="1"/>
        <pt x="761" y="212" on="0"/>
        <pt x="761" y="186" on="1"/>
        <pt x="761" y="175" on="1"/>
        <pt x="761" y="172" on="0"/>
        <pt x="734" y="144" on="0"/>
        <pt x="734" y="138" on="1"/>
        <pt x="734" y="125" on="0"/>
        <pt x="763" y="121" on="1"/>
        <pt x="763" y="98" on="0"/>
        <pt x="784" y="47" on="1"/>
        <pt x="791" y="30" on="1"/>
        <pt x="791" y="21" on="0"/>
        <pt x="676" y="-21" on="0"/>
        <pt x="642" y="-21" on="1"/>
        <pt x="630" y="-21" on="0"/>
        <pt x="550" y="12" on="0"/>
        <pt x="550" y="20" on="1"/>
        <pt x="566" y="106" on="1"/>
        <pt x="562" y="232" on="1"/>
        <pt x="562" y="233" on="0"/>
        <pt x="587" y="260" on="0"/>
        <pt x="587" y="279" on="0"/>
        <pt x="576" y="292" on="0"/>
        <pt x="564" y="297" on="0"/>
        <pt x="564" y="298" on="1"/>
        <pt x="564" y="310" on="0"/>
        <pt x="576" y="338" on="1"/>
        <pt x="576" y="364" on="0"/>
        <pt x="569" y="493" on="0"/>
        <pt x="565" y="493" on="1"/>
        <pt x="548" y="485" on="1"/>
        <pt x="545" y="482" on="0"/>
        <pt x="497" y="281" on="0"/>
        <pt x="497" y="271" on="0"/>
        <pt x="507" y="247" on="0"/>
        <pt x="507" y="238" on="0"/>
        <pt x="496" y="227" on="0"/>
        <pt x="480" y="215" on="0"/>
        <pt x="478" y="213" on="1"/>
        <pt x="473" y="197" on="1"/>
        <pt x="473" y="190" on="0"/>
        <pt x="491" y="171" on="0"/>
        <pt x="491" y="166" on="0"/>
        <pt x="462" y="125" on="0"/>
        <pt x="411" y="81" on="0"/>
        <pt x="372" y="81" on="0"/>
        <pt x="276" y="110" on="0"/>
        <pt x="276" y="118" on="1"/>
        <pt x="267" y="165" on="1"/>
        <pt x="267" y="166" on="0"/>
        <pt x="274" y="169" on="1"/>
        <pt x="296" y="178" on="0"/>
        <pt x="296" y="194" on="1"/>
        <pt x="296" y="205" on="0"/>
        <pt x="255" y="213" on="0"/>
        <pt x="255" y="219" on="1"/>
        <pt x="255" y="285" on="0"/>
        <pt x="220" y="428" on="1"/>
        <pt x="209" y="475" on="1"/>
        <pt x="208" y="475" on="0"/>
        <pt x="208" y="476" on="0"/>
        <pt x="207" y="476" on="1"/>
        <pt x="195" y="470" on="1"/>
        <pt x="188" y="463" on="0"/>
        <pt x="188" y="371" on="1"/>
        <pt x="191" y="224" on="1"/>
        <pt x="202" y="190" on="0"/>
        <pt x="202" y="169" on="0"/>
        <pt x="201" y="168" on="1"/>
        <pt x="177" y="151" on="0"/>
        <pt x="177" y="132" on="1"/>
        <pt x="177" y="128" on="1"/>
        <pt x="177" y="123" on="0"/>
        <pt x="194" y="114" on="0"/>
        <pt x="196" y="112" on="1"/>
        <pt x="198" y="108" on="0"/>
        <pt x="198" y="102" on="1"/>
        <pt x="197" y="77" on="1"/>
        <pt x="202" y="37" on="1"/>
        <pt x="202" y="24" on="0"/>
        <pt x="196" y="23" on="1"/>
        <pt x="158" y="6" on="1"/>
        <pt x="119" y="-11" on="0"/>
        <pt x="99" y="-11" on="0"/>
        <pt x="20" y="17" on="0"/>
        <pt x="20" y="25" on="1"/>
        <pt x="20" y="27" on="0"/>
        <pt x="27" y="53" on="1"/>
        <pt x="49" y="135" on="0"/>
        <pt x="49" y="197" on="1"/>
        <pt x="49" y="198" on="0"/>
        <pt x="27" y="210" on="0"/>
        <pt x="27" y="213" on="1"/>
        <pt x="48" y="318" on="1"/>
        <pt x="45" y="335" on="0"/>
        <pt x="45" y="480" on="1"/>
        <pt x="45" y="529" on="1"/>
        <pt x="45" y="530" on="0"/>
        <pt x="52" y="534" on="1"/>
        <pt x="71" y="548" on="0"/>
        <pt x="71" y="569" on="0"/>
        <pt x="65" y="581" on="0"/>
        <pt x="56" y="589" on="0"/>
        <pt x="47" y="595" on="0"/>
        <pt x="42" y="598" on="0"/>
        <pt x="49" y="616" on="0"/>
      </contour>
    </TTGlyph>
    <TTGlyph name="N" xMin="20" yMin="-23" xMax="594" yMax="800">
      <contour>
        <pt x="565" y="520" on="1"/>
        <pt x="571" y="493" on="1"/>
        <pt x="568" y="405" on="0"/>
        <pt x="568" y="278" on="0"/>
        <pt x="571" y="261" on="1"/>
        <pt x="546" y="236" on="0"/>
        <pt x="546" y="218" on="1"/>
        <pt x="580" y="196" on="0"/>
        <pt x="580" y="183" on="1"/>
        <pt x="580" y="180" on="0"/>
        <pt x="569" y="169" on="0"/>
        <pt x="569" y="132" on="0"/>
        <pt x="580" y="79" on="0"/>
        <pt x="586" y="66" on="1"/>
        <pt x="592" y="52" on="1"/>
        <pt x="592" y="51" on="1"/>
        <pt x="592" y="46" on="0"/>
        <pt x="544" y="16" on="0"/>
        <pt x="473" y="-11" on="0"/>
        <pt x="437" y="-11" on="0"/>
        <pt x="322" y="9" on="0"/>
        <pt x="322" y="16" on="1"/>
        <pt x="322" y="44" on="0"/>
        <pt x="304" y="130" on="0"/>
        <pt x="295" y="152" on="1"/>
        <pt x="289" y="163" on="1"/>
        <pt x="289" y="164" on="0"/>
        <pt x="292" y="168" on="1"/>
        <pt x="304" y="183" on="0"/>
        <pt x="304" y="204" on="0"/>
        <pt x="291" y="214" on="0"/>
        <pt x="274" y="222" on="0"/>
        <pt x="272" y="224" on="1"/>
        <pt x="272" y="255" on="0"/>
        <pt x="240" y="362" on="1"/>
        <pt x="230" y="397" on="1"/>
        <pt x="224" y="403" on="0"/>
        <pt x="205" y="405" on="1"/>
        <pt x="201" y="401" on="0"/>
        <pt x="201" y="339" on="1"/>
        <pt x="203" y="187" on="1"/>
        <pt x="202" y="172" on="1"/>
        <pt x="195" y="165" on="0"/>
        <pt x="184" y="139" on="0"/>
        <pt x="184" y="135" on="1"/>
        <pt x="184" y="123" on="0"/>
        <pt x="215" y="121" on="1"/>
        <pt x="215" y="105" on="0"/>
        <pt x="229" y="39" on="0"/>
        <pt x="229" y="36" on="1"/>
        <pt x="229" y="27" on="0"/>
        <pt x="216" y="22" on="1"/>
        <pt x="173" y="2" on="0"/>
        <pt x="144" y="-13" on="1"/>
        <pt x="127" y="-22" on="1"/>
        <pt x="126" y="-23" on="0"/>
        <pt x="107" y="-23" on="0"/>
        <pt x="31" y="4" on="0"/>
        <pt x="31" y="9" on="1"/>
        <pt x="31" y="61" on="0"/>
        <pt x="49" y="116" on="1"/>
        <pt x="55" y="135" on="1"/>
        <pt x="54" y="136" on="0"/>
        <pt x="54" y="145" on="1"/>
        <pt x="58" y="269" on="1"/>
        <pt x="58" y="298" on="0"/>
        <pt x="52" y="304" on="0"/>
        <pt x="52" y="329" on="1"/>
        <pt x="53" y="361" on="1"/>
        <pt x="53" y="362" on="0"/>
        <pt x="59" y="366" on="1"/>
        <pt x="77" y="378" on="0"/>
        <pt x="77" y="396" on="1"/>
        <pt x="77" y="403" on="0"/>
        <pt x="57" y="421" on="1"/>
        <pt x="48" y="429" on="1"/>
        <pt x="46" y="431" on="0"/>
        <pt x="46" y="441" on="1"/>
        <pt x="51" y="497" on="1"/>
        <pt x="42" y="558" on="1"/>
        <pt x="42" y="559" on="0"/>
        <pt x="58" y="579" on="0"/>
        <pt x="58" y="595" on="0"/>
        <pt x="20" y="714" on="0"/>
        <pt x="20" y="723" on="0"/>
        <pt x="82" y="762" on="0"/>
        <pt x="91" y="762" on="1"/>
        <pt x="96" y="762" on="1"/>
        <pt x="151" y="762" on="0"/>
        <pt x="162" y="770" on="1"/>
        <pt x="176" y="771" on="0"/>
        <pt x="196" y="771" on="1"/>
        <pt x="300" y="771" on="0"/>
        <pt x="317" y="754" on="1"/>
        <pt x="335" y="689" on="0"/>
        <pt x="335" y="676" on="1"/>
        <pt x="335" y="674" on="1"/>
        <pt x="315" y="658" on="0"/>
        <pt x="315" y="633" on="1"/>
        <pt x="315" y="629" on="0"/>
        <pt x="362" y="617" on="0"/>
        <pt x="362" y="606" on="1"/>
        <pt x="358" y="571" on="1"/>
        <pt x="358" y="558" on="0"/>
        <pt x="411" y="412" on="0"/>
        <pt x="416" y="407" on="1"/>
        <pt x="424" y="402" on="0"/>
        <pt x="435" y="402" on="0"/>
        <pt x="435" y="407" on="1"/>
        <pt x="435" y="416" on="1"/>
        <pt x="435" y="565" on="0"/>
        <pt x="419" y="583" on="1"/>
        <pt x="419" y="587" on="0"/>
        <pt x="439" y="614" on="0"/>
        <pt x="439" y="619" on="1"/>
        <pt x="433" y="641" on="0"/>
        <pt x="414" y="660" on="1"/>
        <pt x="412" y="662" on="0"/>
        <pt x="412" y="672" on="0"/>
        <pt x="427" y="701" on="0"/>
        <pt x="427" y="705" on="1"/>
        <pt x="416" y="750" on="1"/>
        <pt x="416" y="752" on="0"/>
        <pt x="436" y="764" on="1"/>
        <pt x="494" y="800" on="0"/>
        <pt x="529" y="800" on="1"/>
        <pt x="594" y="798" on="0"/>
        <pt x="594" y="788" on="1"/>
        <pt x="572" y="645" on="0"/>
        <pt x="572" y="588" on="1"/>
        <pt x="592" y="566" on="0"/>
        <pt x="592" y="550" on="0"/>
        <pt x="565" y="522" on="0"/>
      </contour>
    </TTGlyph>
    <TTGlyph name="Ntilde" xMin="20" yMin="-23" xMax="594" yMax="902">
      <contour>
        <pt x="469" y="843" on="1"/>
        <pt x="469" y="836" on="0"/>
        <pt x="400" y="793" on="0"/>
        <pt x="380" y="793" on="0"/>
        <pt x="311" y="829" on="0"/>
        <pt x="295" y="829" on="0"/>
        <pt x="225" y="807" on="0"/>
        <pt x="220" y="807" on="0"/>
        <pt x="207" y="846" on="0"/>
        <pt x="207" y="856" on="1"/>
        <pt x="272" y="902" on="0"/>
        <pt x="297" y="902" on="0"/>
        <pt x="389" y="869" on="0"/>
        <pt x="398" y="869" on="0"/>
        <pt x="449" y="891" on="0"/>
        <pt x="455" y="891" on="0"/>
        <pt x="469" y="859" on="0"/>
      </contour>
      <contour>
        <pt x="203" y="187" on="1"/>
        <pt x="201" y="339" on="1"/>
        <pt x="201" y="401" on="0"/>
        <pt x="205" y="405" on="1"/>
        <pt x="224" y="403" on="0"/>
        <pt x="230" y="397" on="1"/>
        <pt x="272" y="259" on="0"/>
        <pt x="272" y="224" on="1"/>
        <pt x="274" y="222" on="0"/>
        <pt x="282" y="218" on="1"/>
        <pt x="304" y="208" on="0"/>
        <pt x="304" y="189" on="0"/>
        <pt x="296" y="173" on="0"/>
        <pt x="289" y="164" on="0"/>
        <pt x="289" y="163" on="1"/>
        <pt x="295" y="152" on="1"/>
        <pt x="304" y="130" on="0"/>
        <pt x="322" y="44" on="0"/>
        <pt x="322" y="16" on="1"/>
        <pt x="322" y="9" on="0"/>
        <pt x="437" y="-11" on="0"/>
        <pt x="473" y="-11" on="0"/>
        <pt x="544" y="16" on="0"/>
        <pt x="592" y="46" on="0"/>
        <pt x="592" y="51" on="1"/>
        <pt x="592" y="52" on="1"/>
        <pt x="569" y="99" on="0"/>
        <pt x="569" y="158" on="1"/>
        <pt x="569" y="167" on="0"/>
        <pt x="580" y="180" on="0"/>
        <pt x="580" y="184" on="1"/>
        <pt x="580" y="194" on="0"/>
        <pt x="554" y="212" on="1"/>
        <pt x="546" y="218" on="1"/>
        <pt x="546" y="236" on="0"/>
        <pt x="571" y="261" on="1"/>
        <pt x="568" y="278" on="0"/>
        <pt x="568" y="336" on="1"/>
        <pt x="571" y="493" on="1"/>
        <pt x="565" y="520" on="1"/>
        <pt x="565" y="522" on="0"/>
        <pt x="592" y="550" on="0"/>
        <pt x="592" y="564" on="0"/>
        <pt x="572" y="588" on="1"/>
        <pt x="572" y="638" on="0"/>
        <pt x="588" y="750" on="1"/>
        <pt x="594" y="788" on="1"/>
        <pt x="594" y="796" on="0"/>
        <pt x="546" y="799" on="1"/>
        <pt x="529" y="800" on="1"/>
        <pt x="494" y="800" on="0"/>
        <pt x="436" y="764" on="1"/>
        <pt x="416" y="752" on="0"/>
        <pt x="416" y="750" on="1"/>
        <pt x="427" y="705" on="1"/>
        <pt x="427" y="701" on="0"/>
        <pt x="412" y="672" on="0"/>
        <pt x="412" y="662" on="0"/>
        <pt x="417" y="657" on="1"/>
        <pt x="431" y="643" on="0"/>
        <pt x="439" y="619" on="1"/>
        <pt x="439" y="614" on="0"/>
        <pt x="419" y="587" on="0"/>
        <pt x="419" y="583" on="1"/>
        <pt x="435" y="565" on="0"/>
        <pt x="435" y="416" on="1"/>
        <pt x="435" y="407" on="1"/>
        <pt x="435" y="402" on="0"/>
        <pt x="430" y="402" on="1"/>
        <pt x="416" y="407" on="1"/>
        <pt x="411" y="412" on="0"/>
        <pt x="358" y="558" on="0"/>
        <pt x="358" y="571" on="1"/>
        <pt x="362" y="606" on="1"/>
        <pt x="362" y="617" on="0"/>
        <pt x="315" y="629" on="0"/>
        <pt x="315" y="633" on="1"/>
        <pt x="315" y="656" on="0"/>
        <pt x="335" y="674" on="1"/>
        <pt x="335" y="676" on="1"/>
        <pt x="317" y="754" on="1"/>
        <pt x="300" y="771" on="0"/>
        <pt x="196" y="771" on="1"/>
        <pt x="162" y="770" on="1"/>
        <pt x="151" y="762" on="0"/>
        <pt x="96" y="762" on="1"/>
        <pt x="91" y="762" on="1"/>
        <pt x="82" y="762" on="0"/>
        <pt x="20" y="723" on="0"/>
        <pt x="20" y="714" on="0"/>
        <pt x="58" y="595" on="0"/>
        <pt x="58" y="579" on="0"/>
        <pt x="42" y="559" on="0"/>
        <pt x="42" y="558" on="1"/>
        <pt x="51" y="511" on="0"/>
        <pt x="51" y="497" on="1"/>
        <pt x="46" y="461" on="0"/>
        <pt x="46" y="431" on="0"/>
        <pt x="48" y="429" on="1"/>
        <pt x="57" y="421" on="1"/>
        <pt x="77" y="403" on="0"/>
        <pt x="77" y="386" on="0"/>
        <pt x="65" y="370" on="0"/>
        <pt x="53" y="362" on="0"/>
        <pt x="53" y="361" on="1"/>
        <pt x="52" y="345" on="0"/>
        <pt x="52" y="304" on="0"/>
        <pt x="58" y="298" on="0"/>
        <pt x="58" y="269" on="1"/>
        <pt x="54" y="145" on="1"/>
        <pt x="54" y="136" on="0"/>
        <pt x="55" y="135" on="1"/>
        <pt x="31" y="67" on="0"/>
        <pt x="31" y="9" on="1"/>
        <pt x="31" y="4" on="0"/>
        <pt x="107" y="-23" on="0"/>
        <pt x="126" y="-23" on="0"/>
        <pt x="127" y="-22" on="1"/>
        <pt x="192" y="13" on="0"/>
        <pt x="213" y="19" on="1"/>
        <pt x="229" y="26" on="0"/>
        <pt x="229" y="36" on="1"/>
        <pt x="229" y="39" on="0"/>
        <pt x="215" y="105" on="0"/>
        <pt x="215" y="121" on="1"/>
        <pt x="184" y="121" on="0"/>
        <pt x="184" y="135" on="1"/>
        <pt x="184" y="139" on="0"/>
        <pt x="195" y="165" on="0"/>
        <pt x="202" y="172" on="1"/>
        <pt x="203" y="178" on="0"/>
      </contour>
    </TTGlyph>
    <TTGlyph name="O" xMin="10" yMin="-19" xMax="580" yMax="777">
      <contour>
        <pt x="248" y="585" on="1"/>
        <pt x="264" y="539" on="1"/>
        <pt x="264" y="537" on="0"/>
        <pt x="234" y="501" on="0"/>
        <pt x="234" y="484" on="0"/>
        <pt x="261" y="462" on="0"/>
        <pt x="261" y="456" on="1"/>
        <pt x="238" y="344" on="0"/>
        <pt x="238" y="294" on="1"/>
        <pt x="238" y="283" on="0"/>
        <pt x="262" y="259" on="1"/>
        <pt x="264" y="257" on="0"/>
        <pt x="264" y="246" on="0"/>
        <pt x="245" y="203" on="0"/>
        <pt x="245" y="199" on="1"/>
        <pt x="245" y="172" on="0"/>
        <pt x="293" y="116" on="0"/>
        <pt x="314" y="116" on="1"/>
        <pt x="327" y="116" on="0"/>
        <pt x="346" y="137" on="0"/>
        <pt x="354" y="147" on="1"/>
        <pt x="363" y="157" on="1"/>
        <pt x="364" y="158" on="0"/>
        <pt x="364" y="162" on="0"/>
        <pt x="341" y="199" on="0"/>
        <pt x="341" y="213" on="0"/>
        <pt x="362" y="276" on="0"/>
        <pt x="362" y="290" on="1"/>
        <pt x="346" y="306" on="1"/>
        <pt x="345" y="307" on="0"/>
        <pt x="345" y="312" on="1"/>
        <pt x="345" y="314" on="1"/>
        <pt x="345" y="331" on="0"/>
        <pt x="338" y="338" on="1"/>
        <pt x="337" y="341" on="1"/>
        <pt x="339" y="351" on="0"/>
        <pt x="361" y="377" on="1"/>
        <pt x="366" y="382" on="0"/>
        <pt x="366" y="418" on="1"/>
        <pt x="361" y="515" on="1"/>
        <pt x="361" y="524" on="0"/>
        <pt x="330" y="548" on="0"/>
        <pt x="330" y="551" on="1"/>
        <pt x="330" y="577" on="0"/>
        <pt x="344" y="610" on="1"/>
        <pt x="349" y="621" on="1"/>
        <pt x="349" y="633" on="0"/>
        <pt x="322" y="648" on="1"/>
        <pt x="313" y="653" on="1"/>
        <pt x="296" y="653" on="0"/>
        <pt x="248" y="604" on="0"/>
      </contour>
      <contour>
        <pt x="532" y="227" on="1"/>
        <pt x="532" y="207" on="0"/>
        <pt x="552" y="189" on="1"/>
        <pt x="552" y="167" on="0"/>
        <pt x="522" y="100" on="0"/>
        <pt x="489" y="54" on="0"/>
        <pt x="484" y="54" on="1"/>
        <pt x="461" y="54" on="0"/>
        <pt x="400" y="28" on="0"/>
        <pt x="381" y="15" on="1"/>
        <pt x="362" y="2" on="1"/>
        <pt x="352" y="-7" on="0"/>
        <pt x="270" y="-16" on="1"/>
        <pt x="243" y="-19" on="1"/>
        <pt x="201" y="-19" on="0"/>
        <pt x="111" y="52" on="0"/>
        <pt x="64" y="118" on="0"/>
        <pt x="64" y="126" on="0"/>
        <pt x="73" y="152" on="0"/>
        <pt x="73" y="164" on="1"/>
        <pt x="73" y="188" on="0"/>
        <pt x="42" y="188" on="1"/>
        <pt x="34" y="187" on="1"/>
        <pt x="26" y="187" on="0"/>
        <pt x="14" y="294" on="1"/>
        <pt x="10" y="329" on="1"/>
        <pt x="22" y="465" on="1"/>
        <pt x="22" y="468" on="0"/>
        <pt x="46" y="502" on="0"/>
        <pt x="46" y="506" on="1"/>
        <pt x="44" y="592" on="1"/>
        <pt x="44" y="631" on="0"/>
        <pt x="47" y="635" on="1"/>
        <pt x="60" y="653" on="0"/>
        <pt x="200" y="757" on="0"/>
        <pt x="235" y="757" on="1"/>
        <pt x="242" y="774" on="0"/>
        <pt x="250" y="774" on="1"/>
        <pt x="300" y="777" on="0"/>
        <pt x="433" y="777" on="0"/>
        <pt x="444" y="766" on="1"/>
        <pt x="445" y="765" on="0"/>
        <pt x="489" y="725" on="0"/>
        <pt x="519" y="695" on="0"/>
        <pt x="548" y="651" on="0"/>
        <pt x="548" y="636" on="1"/>
        <pt x="528" y="611" on="1"/>
        <pt x="539" y="588" on="0"/>
        <pt x="580" y="441" on="0"/>
        <pt x="580" y="409" on="1"/>
        <pt x="576" y="253" on="0"/>
        <pt x="565" y="253" on="1"/>
        <pt x="532" y="240" on="0"/>
      </contour>
    </TTGlyph>
    <TTGlyph name="OE" xMin="10" yMin="-20" xMax="844" yMax="779">
      <contour>
        <pt x="247" y="584" on="1"/>
        <pt x="263" y="537" on="1"/>
        <pt x="263" y="535" on="0"/>
        <pt x="234" y="500" on="0"/>
        <pt x="234" y="482" on="0"/>
        <pt x="261" y="460" on="0"/>
        <pt x="261" y="454" on="1"/>
        <pt x="238" y="343" on="0"/>
        <pt x="238" y="292" on="1"/>
        <pt x="238" y="281" on="0"/>
        <pt x="249" y="270" on="1"/>
        <pt x="262" y="257" on="1"/>
        <pt x="264" y="255" on="0"/>
        <pt x="264" y="245" on="0"/>
        <pt x="245" y="201" on="0"/>
        <pt x="245" y="198" on="1"/>
        <pt x="245" y="171" on="0"/>
        <pt x="293" y="114" on="0"/>
        <pt x="314" y="114" on="1"/>
        <pt x="325" y="114" on="0"/>
        <pt x="364" y="154" on="0"/>
        <pt x="364" y="162" on="0"/>
        <pt x="346" y="203" on="0"/>
        <pt x="346" y="217" on="0"/>
        <pt x="367" y="280" on="0"/>
        <pt x="367" y="295" on="0"/>
        <pt x="362" y="300" on="0"/>
        <pt x="358" y="304" on="1"/>
        <pt x="350" y="309" on="0"/>
        <pt x="350" y="315" on="1"/>
        <pt x="350" y="317" on="1"/>
        <pt x="350" y="333" on="0"/>
        <pt x="342" y="344" on="1"/>
        <pt x="342" y="353" on="0"/>
        <pt x="366" y="381" on="1"/>
        <pt x="371" y="386" on="0"/>
        <pt x="371" y="422" on="1"/>
        <pt x="366" y="519" on="1"/>
        <pt x="366" y="528" on="0"/>
        <pt x="335" y="551" on="0"/>
        <pt x="335" y="554" on="1"/>
        <pt x="335" y="582" on="0"/>
        <pt x="346" y="610" on="1"/>
        <pt x="349" y="620" on="1"/>
        <pt x="349" y="632" on="0"/>
        <pt x="322" y="647" on="1"/>
        <pt x="313" y="652" on="1"/>
        <pt x="296" y="652" on="0"/>
        <pt x="247" y="602" on="0"/>
      </contour>
      <contour>
        <pt x="572" y="1" on="1"/>
        <pt x="531" y="6" on="1"/>
        <pt x="490" y="6" on="0"/>
        <pt x="420" y="-8" on="0"/>
        <pt x="411" y="-8" on="0"/>
        <pt x="373" y="9" on="0"/>
        <pt x="369" y="10" on="1"/>
        <pt x="355" y="-6" on="0"/>
        <pt x="271" y="-16" on="1"/>
        <pt x="243" y="-20" on="1"/>
        <pt x="172" y="-20" on="0"/>
        <pt x="100" y="70" on="1"/>
        <pt x="64" y="113" on="0"/>
        <pt x="64" y="123" on="1"/>
        <pt x="64" y="125" on="0"/>
        <pt x="73" y="151" on="0"/>
        <pt x="73" y="163" on="1"/>
        <pt x="73" y="186" on="0"/>
        <pt x="44" y="186" on="1"/>
        <pt x="34" y="185" on="1"/>
        <pt x="26" y="185" on="0"/>
        <pt x="14" y="292" on="1"/>
        <pt x="10" y="327" on="1"/>
        <pt x="22" y="463" on="1"/>
        <pt x="22" y="467" on="0"/>
        <pt x="46" y="500" on="0"/>
        <pt x="46" y="504" on="1"/>
        <pt x="44" y="591" on="1"/>
        <pt x="44" y="629" on="0"/>
        <pt x="47" y="633" on="1"/>
        <pt x="60" y="651" on="0"/>
        <pt x="200" y="756" on="0"/>
        <pt x="235" y="756" on="1"/>
        <pt x="242" y="772" on="0"/>
        <pt x="250" y="772" on="1"/>
        <pt x="307" y="779" on="0"/>
        <pt x="442" y="779" on="0"/>
        <pt x="461" y="760" on="1"/>
        <pt x="500" y="770" on="0"/>
        <pt x="567" y="770" on="1"/>
        <pt x="580" y="770" on="0"/>
        <pt x="598" y="749" on="0"/>
        <pt x="611" y="749" on="0"/>
        <pt x="716" y="768" on="0"/>
        <pt x="818" y="768" on="0"/>
        <pt x="818" y="752" on="1"/>
        <pt x="818" y="723" on="0"/>
        <pt x="795" y="626" on="0"/>
        <pt x="777" y="608" on="0"/>
        <pt x="739" y="608" on="1"/>
        <pt x="735" y="608" on="0"/>
        <pt x="722" y="637" on="0"/>
        <pt x="687" y="666" on="0"/>
        <pt x="646" y="666" on="0"/>
        <pt x="597" y="649" on="0"/>
        <pt x="585" y="638" on="0"/>
        <pt x="585" y="548" on="0"/>
        <pt x="590" y="526" on="1"/>
        <pt x="590" y="524" on="1"/>
        <pt x="590" y="516" on="0"/>
        <pt x="576" y="512" on="1"/>
        <pt x="549" y="505" on="0"/>
        <pt x="549" y="471" on="1"/>
        <pt x="549" y="465" on="0"/>
        <pt x="582" y="465" on="1"/>
        <pt x="743" y="474" on="1"/>
        <pt x="774" y="474" on="0"/>
        <pt x="774" y="466" on="1"/>
        <pt x="774" y="439" on="0"/>
        <pt x="727" y="333" on="0"/>
        <pt x="714" y="333" on="1"/>
        <pt x="712" y="333" on="0"/>
        <pt x="706" y="338" on="1"/>
        <pt x="686" y="351" on="0"/>
        <pt x="662" y="351" on="1"/>
        <pt x="589" y="351" on="0"/>
        <pt x="577" y="339" on="0"/>
        <pt x="577" y="162" on="0"/>
        <pt x="609" y="130" on="0"/>
        <pt x="710" y="130" on="0"/>
        <pt x="737" y="157" on="0"/>
        <pt x="766" y="203" on="0"/>
        <pt x="784" y="236" on="0"/>
        <pt x="785" y="236" on="1"/>
        <pt x="794" y="236" on="0"/>
        <pt x="844" y="185" on="0"/>
        <pt x="844" y="163" on="0"/>
        <pt x="802" y="21" on="0"/>
        <pt x="793" y="12" on="1"/>
        <pt x="789" y="10" on="0"/>
        <pt x="786" y="10" on="1"/>
        <pt x="728" y="16" on="1"/>
        <pt x="692" y="16" on="0"/>
        <pt x="644" y="12" on="0"/>
        <pt x="637" y="12" on="0"/>
        <pt x="612" y="24" on="0"/>
        <pt x="600" y="24" on="0"/>
        <pt x="594" y="18" on="0"/>
        <pt x="590" y="13" on="1"/>
        <pt x="582" y="1" on="0"/>
      </contour>
    </TTGlyph>
    <TTGlyph name="Oacute" xMin="10" yMin="-19" xMax="580" yMax="960">
      <contour>
        <pt x="329" y="868" on="1"/>
        <pt x="331" y="853" on="1"/>
        <pt x="331" y="850" on="0"/>
        <pt x="313" y="844" on="0"/>
        <pt x="267" y="805" on="0"/>
        <pt x="258" y="795" on="0"/>
        <pt x="248" y="795" on="0"/>
        <pt x="209" y="827" on="0"/>
        <pt x="209" y="844" on="0"/>
        <pt x="259" y="907" on="0"/>
        <pt x="259" y="909" on="1"/>
        <pt x="260" y="921" on="0"/>
        <pt x="260" y="922" on="1"/>
        <pt x="284" y="952" on="0"/>
        <pt x="287" y="955" on="0"/>
        <pt x="328" y="960" on="0"/>
        <pt x="352" y="960" on="0"/>
        <pt x="401" y="926" on="0"/>
        <pt x="401" y="917" on="1"/>
        <pt x="401" y="914" on="0"/>
        <pt x="393" y="908" on="1"/>
        <pt x="362" y="887" on="0"/>
        <pt x="353" y="877" on="1"/>
        <pt x="352" y="876" on="0"/>
        <pt x="329" y="876" on="0"/>
      </contour>
      <contour>
        <pt x="248" y="585" on="1"/>
        <pt x="264" y="539" on="1"/>
        <pt x="264" y="537" on="0"/>
        <pt x="234" y="501" on="0"/>
        <pt x="234" y="484" on="0"/>
        <pt x="261" y="462" on="0"/>
        <pt x="261" y="456" on="1"/>
        <pt x="238" y="344" on="0"/>
        <pt x="238" y="294" on="1"/>
        <pt x="238" y="283" on="0"/>
        <pt x="262" y="259" on="1"/>
        <pt x="264" y="257" on="0"/>
        <pt x="264" y="246" on="0"/>
        <pt x="245" y="203" on="0"/>
        <pt x="245" y="199" on="1"/>
        <pt x="245" y="172" on="0"/>
        <pt x="293" y="116" on="0"/>
        <pt x="314" y="116" on="1"/>
        <pt x="327" y="116" on="0"/>
        <pt x="346" y="137" on="0"/>
        <pt x="354" y="147" on="1"/>
        <pt x="363" y="157" on="1"/>
        <pt x="364" y="158" on="0"/>
        <pt x="364" y="162" on="0"/>
        <pt x="341" y="199" on="0"/>
        <pt x="341" y="213" on="0"/>
        <pt x="362" y="276" on="0"/>
        <pt x="362" y="290" on="1"/>
        <pt x="346" y="306" on="1"/>
        <pt x="345" y="307" on="0"/>
        <pt x="345" y="312" on="1"/>
        <pt x="345" y="314" on="1"/>
        <pt x="345" y="331" on="0"/>
        <pt x="338" y="338" on="1"/>
        <pt x="337" y="341" on="1"/>
        <pt x="339" y="351" on="0"/>
        <pt x="361" y="377" on="1"/>
        <pt x="366" y="382" on="0"/>
        <pt x="366" y="418" on="1"/>
        <pt x="361" y="515" on="1"/>
        <pt x="361" y="524" on="0"/>
        <pt x="330" y="548" on="0"/>
        <pt x="330" y="551" on="1"/>
        <pt x="330" y="577" on="0"/>
        <pt x="344" y="610" on="1"/>
        <pt x="349" y="621" on="1"/>
        <pt x="349" y="633" on="0"/>
        <pt x="322" y="648" on="1"/>
        <pt x="313" y="653" on="1"/>
        <pt x="296" y="653" on="0"/>
        <pt x="248" y="604" on="0"/>
      </contour>
      <contour>
        <pt x="532" y="227" on="1"/>
        <pt x="532" y="207" on="0"/>
        <pt x="552" y="189" on="1"/>
        <pt x="552" y="167" on="0"/>
        <pt x="522" y="100" on="0"/>
        <pt x="489" y="54" on="0"/>
        <pt x="484" y="54" on="1"/>
        <pt x="461" y="54" on="0"/>
        <pt x="400" y="28" on="0"/>
        <pt x="381" y="15" on="1"/>
        <pt x="362" y="2" on="1"/>
        <pt x="352" y="-7" on="0"/>
        <pt x="270" y="-16" on="1"/>
        <pt x="243" y="-19" on="1"/>
        <pt x="201" y="-19" on="0"/>
        <pt x="111" y="52" on="0"/>
        <pt x="64" y="118" on="0"/>
        <pt x="64" y="126" on="0"/>
        <pt x="73" y="152" on="0"/>
        <pt x="73" y="164" on="1"/>
        <pt x="73" y="188" on="0"/>
        <pt x="42" y="188" on="1"/>
        <pt x="34" y="187" on="1"/>
        <pt x="26" y="187" on="0"/>
        <pt x="14" y="294" on="1"/>
        <pt x="10" y="329" on="1"/>
        <pt x="22" y="465" on="1"/>
        <pt x="22" y="468" on="0"/>
        <pt x="46" y="502" on="0"/>
        <pt x="46" y="506" on="1"/>
        <pt x="44" y="592" on="1"/>
        <pt x="44" y="631" on="0"/>
        <pt x="47" y="635" on="1"/>
        <pt x="60" y="653" on="0"/>
        <pt x="200" y="757" on="0"/>
        <pt x="235" y="757" on="1"/>
        <pt x="242" y="774" on="0"/>
        <pt x="250" y="774" on="1"/>
        <pt x="300" y="777" on="0"/>
        <pt x="433" y="777" on="0"/>
        <pt x="444" y="766" on="1"/>
        <pt x="445" y="765" on="0"/>
        <pt x="489" y="725" on="0"/>
        <pt x="519" y="695" on="0"/>
        <pt x="548" y="651" on="0"/>
        <pt x="548" y="636" on="1"/>
        <pt x="528" y="611" on="1"/>
        <pt x="539" y="588" on="0"/>
        <pt x="580" y="441" on="0"/>
        <pt x="580" y="409" on="1"/>
        <pt x="576" y="253" on="0"/>
        <pt x="565" y="253" on="1"/>
        <pt x="532" y="240" on="0"/>
      </contour>
    </TTGlyph>
    <TTGlyph name="Ocircumflex" xMin="10" yMin="-19" xMax="580" yMax="964">
      <contour>
        <pt x="213" y="913" on="1"/>
        <pt x="209" y="933" on="1"/>
        <pt x="227" y="962" on="0"/>
        <pt x="234" y="962" on="1"/>
        <pt x="255" y="962" on="1"/>
        <pt x="285" y="962" on="0"/>
        <pt x="287" y="959" on="1"/>
        <pt x="305" y="944" on="0"/>
        <pt x="310" y="944" on="0"/>
        <pt x="332" y="959" on="1"/>
        <pt x="334" y="964" on="0"/>
        <pt x="378" y="964" on="0"/>
        <pt x="385" y="958" on="0"/>
        <pt x="417" y="907" on="0"/>
        <pt x="417" y="903" on="1"/>
        <pt x="414" y="892" on="0"/>
        <pt x="414" y="872" on="0"/>
        <pt x="435" y="872" on="1"/>
        <pt x="462" y="838" on="0"/>
        <pt x="462" y="831" on="0"/>
        <pt x="458" y="827" on="0"/>
        <pt x="452" y="823" on="0"/>
        <pt x="441" y="812" on="0"/>
        <pt x="418" y="801" on="0"/>
        <pt x="406" y="799" on="1"/>
        <pt x="383" y="799" on="0"/>
        <pt x="383" y="803" on="1"/>
        <pt x="345" y="848" on="1"/>
        <pt x="328" y="851" on="0"/>
        <pt x="328" y="856" on="1"/>
        <pt x="328" y="869" on="0"/>
        <pt x="310" y="898" on="0"/>
        <pt x="304" y="898" on="1"/>
        <pt x="299" y="898" on="0"/>
        <pt x="276" y="870" on="1"/>
        <pt x="269" y="860" on="1"/>
        <pt x="269" y="844" on="0"/>
        <pt x="263" y="840" on="1"/>
        <pt x="247" y="840" on="0"/>
        <pt x="210" y="800" on="0"/>
        <pt x="209" y="800" on="1"/>
        <pt x="193" y="800" on="0"/>
        <pt x="162" y="815" on="0"/>
        <pt x="147" y="829" on="0"/>
        <pt x="147" y="831" on="1"/>
        <pt x="166" y="862" on="1"/>
        <pt x="186" y="893" on="0"/>
        <pt x="186" y="898" on="1"/>
        <pt x="213" y="904" on="0"/>
      </contour>
      <contour>
        <pt x="248" y="585" on="1"/>
        <pt x="264" y="539" on="1"/>
        <pt x="264" y="537" on="0"/>
        <pt x="234" y="501" on="0"/>
        <pt x="234" y="484" on="0"/>
        <pt x="261" y="462" on="0"/>
        <pt x="261" y="456" on="1"/>
        <pt x="238" y="344" on="0"/>
        <pt x="238" y="294" on="1"/>
        <pt x="238" y="283" on="0"/>
        <pt x="262" y="259" on="1"/>
        <pt x="264" y="257" on="0"/>
        <pt x="264" y="246" on="0"/>
        <pt x="245" y="203" on="0"/>
        <pt x="245" y="199" on="1"/>
        <pt x="245" y="172" on="0"/>
        <pt x="293" y="116" on="0"/>
        <pt x="314" y="116" on="1"/>
        <pt x="327" y="116" on="0"/>
        <pt x="346" y="137" on="0"/>
        <pt x="354" y="147" on="1"/>
        <pt x="363" y="157" on="1"/>
        <pt x="364" y="158" on="0"/>
        <pt x="364" y="162" on="0"/>
        <pt x="341" y="199" on="0"/>
        <pt x="341" y="213" on="0"/>
        <pt x="362" y="276" on="0"/>
        <pt x="362" y="290" on="1"/>
        <pt x="346" y="306" on="1"/>
        <pt x="345" y="307" on="0"/>
        <pt x="345" y="312" on="1"/>
        <pt x="345" y="314" on="1"/>
        <pt x="345" y="331" on="0"/>
        <pt x="338" y="338" on="1"/>
        <pt x="337" y="341" on="1"/>
        <pt x="339" y="351" on="0"/>
        <pt x="361" y="377" on="1"/>
        <pt x="366" y="382" on="0"/>
        <pt x="366" y="418" on="1"/>
        <pt x="361" y="515" on="1"/>
        <pt x="361" y="524" on="0"/>
        <pt x="330" y="548" on="0"/>
        <pt x="330" y="551" on="1"/>
        <pt x="330" y="577" on="0"/>
        <pt x="344" y="610" on="1"/>
        <pt x="349" y="621" on="1"/>
        <pt x="349" y="633" on="0"/>
        <pt x="322" y="648" on="1"/>
        <pt x="313" y="653" on="1"/>
        <pt x="296" y="653" on="0"/>
        <pt x="248" y="604" on="0"/>
      </contour>
      <contour>
        <pt x="532" y="227" on="1"/>
        <pt x="532" y="207" on="0"/>
        <pt x="552" y="189" on="1"/>
        <pt x="552" y="167" on="0"/>
        <pt x="522" y="100" on="0"/>
        <pt x="489" y="54" on="0"/>
        <pt x="484" y="54" on="1"/>
        <pt x="461" y="54" on="0"/>
        <pt x="400" y="28" on="0"/>
        <pt x="381" y="15" on="1"/>
        <pt x="362" y="2" on="1"/>
        <pt x="352" y="-7" on="0"/>
        <pt x="270" y="-16" on="1"/>
        <pt x="243" y="-19" on="1"/>
        <pt x="201" y="-19" on="0"/>
        <pt x="111" y="52" on="0"/>
        <pt x="64" y="118" on="0"/>
        <pt x="64" y="126" on="0"/>
        <pt x="73" y="152" on="0"/>
        <pt x="73" y="164" on="1"/>
        <pt x="73" y="188" on="0"/>
        <pt x="42" y="188" on="1"/>
        <pt x="34" y="187" on="1"/>
        <pt x="26" y="187" on="0"/>
        <pt x="14" y="294" on="1"/>
        <pt x="10" y="329" on="1"/>
        <pt x="22" y="465" on="1"/>
        <pt x="22" y="468" on="0"/>
        <pt x="46" y="502" on="0"/>
        <pt x="46" y="506" on="1"/>
        <pt x="44" y="592" on="1"/>
        <pt x="44" y="631" on="0"/>
        <pt x="47" y="635" on="1"/>
        <pt x="60" y="653" on="0"/>
        <pt x="200" y="757" on="0"/>
        <pt x="235" y="757" on="1"/>
        <pt x="242" y="774" on="0"/>
        <pt x="250" y="774" on="1"/>
        <pt x="300" y="777" on="0"/>
        <pt x="433" y="777" on="0"/>
        <pt x="444" y="766" on="1"/>
        <pt x="445" y="765" on="0"/>
        <pt x="489" y="725" on="0"/>
        <pt x="519" y="695" on="0"/>
        <pt x="548" y="651" on="0"/>
        <pt x="548" y="636" on="1"/>
        <pt x="528" y="611" on="1"/>
        <pt x="539" y="588" on="0"/>
        <pt x="580" y="441" on="0"/>
        <pt x="580" y="409" on="1"/>
        <pt x="576" y="253" on="0"/>
        <pt x="565" y="253" on="1"/>
        <pt x="532" y="240" on="0"/>
      </contour>
    </TTGlyph>
    <TTGlyph name="Odieresis" xMin="10" yMin="-19" xMax="580" yMax="943">
      <contour>
        <pt x="265" y="889" on="1"/>
        <pt x="265" y="869" on="0"/>
        <pt x="254" y="838" on="0"/>
        <pt x="244" y="828" on="1"/>
        <pt x="236" y="822" on="0"/>
        <pt x="196" y="809" on="0"/>
        <pt x="159" y="809" on="0"/>
        <pt x="151" y="817" on="1"/>
        <pt x="150" y="818" on="0"/>
        <pt x="150" y="828" on="1"/>
        <pt x="150" y="843" on="0"/>
        <pt x="139" y="843" on="1"/>
        <pt x="133" y="843" on="1"/>
        <pt x="129" y="843" on="0"/>
        <pt x="123" y="848" on="0"/>
        <pt x="123" y="897" on="0"/>
        <pt x="126" y="902" on="0"/>
        <pt x="147" y="924" on="0"/>
        <pt x="158" y="930" on="1"/>
        <pt x="201" y="943" on="0"/>
        <pt x="221" y="943" on="0"/>
        <pt x="250" y="934" on="0"/>
        <pt x="250" y="930" on="1"/>
        <pt x="246" y="920" on="0"/>
        <pt x="246" y="911" on="1"/>
        <pt x="265" y="895" on="0"/>
      </contour>
      <contour>
        <pt x="487" y="876" on="1"/>
        <pt x="486" y="846" on="0"/>
        <pt x="468" y="828" on="0"/>
        <pt x="458" y="828" on="0"/>
        <pt x="428" y="801" on="0"/>
        <pt x="426" y="801" on="1"/>
        <pt x="383" y="807" on="1"/>
        <pt x="369" y="812" on="0"/>
        <pt x="340" y="837" on="1"/>
        <pt x="337" y="840" on="0"/>
        <pt x="337" y="870" on="0"/>
        <pt x="344" y="906" on="0"/>
        <pt x="348" y="906" on="1"/>
        <pt x="361" y="906" on="0"/>
        <pt x="402" y="939" on="1"/>
        <pt x="412" y="943" on="0"/>
        <pt x="420" y="943" on="1"/>
        <pt x="471" y="931" on="0"/>
        <pt x="471" y="916" on="1"/>
        <pt x="465" y="907" on="0"/>
        <pt x="465" y="896" on="0"/>
        <pt x="487" y="882" on="0"/>
      </contour>
      <contour>
        <pt x="248" y="585" on="1"/>
        <pt x="264" y="539" on="1"/>
        <pt x="264" y="537" on="0"/>
        <pt x="234" y="501" on="0"/>
        <pt x="234" y="484" on="0"/>
        <pt x="261" y="462" on="0"/>
        <pt x="261" y="456" on="1"/>
        <pt x="238" y="344" on="0"/>
        <pt x="238" y="294" on="1"/>
        <pt x="238" y="283" on="0"/>
        <pt x="262" y="259" on="1"/>
        <pt x="264" y="257" on="0"/>
        <pt x="264" y="246" on="0"/>
        <pt x="245" y="203" on="0"/>
        <pt x="245" y="199" on="1"/>
        <pt x="245" y="172" on="0"/>
        <pt x="293" y="116" on="0"/>
        <pt x="314" y="116" on="1"/>
        <pt x="327" y="116" on="0"/>
        <pt x="346" y="137" on="0"/>
        <pt x="354" y="147" on="1"/>
        <pt x="363" y="157" on="1"/>
        <pt x="364" y="158" on="0"/>
        <pt x="364" y="162" on="0"/>
        <pt x="341" y="199" on="0"/>
        <pt x="341" y="213" on="0"/>
        <pt x="362" y="276" on="0"/>
        <pt x="362" y="290" on="1"/>
        <pt x="346" y="306" on="1"/>
        <pt x="345" y="307" on="0"/>
        <pt x="345" y="312" on="1"/>
        <pt x="345" y="314" on="1"/>
        <pt x="345" y="331" on="0"/>
        <pt x="338" y="338" on="1"/>
        <pt x="337" y="341" on="1"/>
        <pt x="339" y="351" on="0"/>
        <pt x="361" y="377" on="1"/>
        <pt x="366" y="382" on="0"/>
        <pt x="366" y="418" on="1"/>
        <pt x="361" y="515" on="1"/>
        <pt x="361" y="524" on="0"/>
        <pt x="330" y="548" on="0"/>
        <pt x="330" y="551" on="1"/>
        <pt x="330" y="577" on="0"/>
        <pt x="344" y="610" on="1"/>
        <pt x="349" y="621" on="1"/>
        <pt x="349" y="633" on="0"/>
        <pt x="322" y="648" on="1"/>
        <pt x="313" y="653" on="1"/>
        <pt x="296" y="653" on="0"/>
        <pt x="248" y="604" on="0"/>
      </contour>
      <contour>
        <pt x="532" y="227" on="1"/>
        <pt x="532" y="207" on="0"/>
        <pt x="552" y="189" on="1"/>
        <pt x="552" y="167" on="0"/>
        <pt x="522" y="100" on="0"/>
        <pt x="489" y="54" on="0"/>
        <pt x="484" y="54" on="1"/>
        <pt x="461" y="54" on="0"/>
        <pt x="400" y="28" on="0"/>
        <pt x="381" y="15" on="1"/>
        <pt x="362" y="2" on="1"/>
        <pt x="352" y="-7" on="0"/>
        <pt x="270" y="-16" on="1"/>
        <pt x="243" y="-19" on="1"/>
        <pt x="201" y="-19" on="0"/>
        <pt x="111" y="52" on="0"/>
        <pt x="64" y="118" on="0"/>
        <pt x="64" y="126" on="0"/>
        <pt x="73" y="152" on="0"/>
        <pt x="73" y="164" on="1"/>
        <pt x="73" y="188" on="0"/>
        <pt x="42" y="188" on="1"/>
        <pt x="34" y="187" on="1"/>
        <pt x="26" y="187" on="0"/>
        <pt x="14" y="294" on="1"/>
        <pt x="10" y="329" on="1"/>
        <pt x="22" y="465" on="1"/>
        <pt x="22" y="468" on="0"/>
        <pt x="46" y="502" on="0"/>
        <pt x="46" y="506" on="1"/>
        <pt x="44" y="592" on="1"/>
        <pt x="44" y="631" on="0"/>
        <pt x="47" y="635" on="1"/>
        <pt x="60" y="653" on="0"/>
        <pt x="200" y="757" on="0"/>
        <pt x="235" y="757" on="1"/>
        <pt x="242" y="774" on="0"/>
        <pt x="250" y="774" on="1"/>
        <pt x="300" y="777" on="0"/>
        <pt x="433" y="777" on="0"/>
        <pt x="444" y="766" on="1"/>
        <pt x="445" y="765" on="0"/>
        <pt x="489" y="725" on="0"/>
        <pt x="519" y="695" on="0"/>
        <pt x="548" y="651" on="0"/>
        <pt x="548" y="636" on="1"/>
        <pt x="528" y="611" on="1"/>
        <pt x="539" y="588" on="0"/>
        <pt x="580" y="441" on="0"/>
        <pt x="580" y="409" on="1"/>
        <pt x="576" y="253" on="0"/>
        <pt x="565" y="253" on="1"/>
        <pt x="532" y="240" on="0"/>
      </contour>
    </TTGlyph>
    <TTGlyph name="Ograve" xMin="10" yMin="-19" xMax="580" yMax="958">
      <contour>
        <pt x="250" y="881" on="1"/>
        <pt x="236" y="880" on="1"/>
        <pt x="235" y="880" on="1"/>
        <pt x="235" y="881" on="0"/>
        <pt x="196" y="921" on="0"/>
        <pt x="196" y="923" on="1"/>
        <pt x="196" y="928" on="0"/>
        <pt x="257" y="958" on="0"/>
        <pt x="273" y="958" on="1"/>
        <pt x="328" y="947" on="0"/>
        <pt x="330" y="945" on="1"/>
        <pt x="374" y="854" on="0"/>
        <pt x="393" y="835" on="1"/>
        <pt x="393" y="834" on="1"/>
        <pt x="393" y="823" on="0"/>
        <pt x="344" y="807" on="0"/>
        <pt x="326" y="807" on="1"/>
        <pt x="321" y="807" on="0"/>
        <pt x="266" y="852" on="0"/>
        <pt x="262" y="852" on="1"/>
        <pt x="261" y="852" on="0"/>
        <pt x="261" y="857" on="1"/>
        <pt x="261" y="867" on="1"/>
        <pt x="261" y="876" on="0"/>
        <pt x="256" y="881" on="0"/>
      </contour>
      <contour>
        <pt x="248" y="585" on="1"/>
        <pt x="264" y="539" on="1"/>
        <pt x="264" y="537" on="0"/>
        <pt x="234" y="501" on="0"/>
        <pt x="234" y="484" on="0"/>
        <pt x="261" y="462" on="0"/>
        <pt x="261" y="456" on="1"/>
        <pt x="238" y="344" on="0"/>
        <pt x="238" y="294" on="1"/>
        <pt x="238" y="283" on="0"/>
        <pt x="262" y="259" on="1"/>
        <pt x="264" y="257" on="0"/>
        <pt x="264" y="246" on="0"/>
        <pt x="245" y="203" on="0"/>
        <pt x="245" y="199" on="1"/>
        <pt x="245" y="172" on="0"/>
        <pt x="293" y="116" on="0"/>
        <pt x="314" y="116" on="1"/>
        <pt x="327" y="116" on="0"/>
        <pt x="346" y="137" on="0"/>
        <pt x="354" y="147" on="1"/>
        <pt x="363" y="157" on="1"/>
        <pt x="364" y="158" on="0"/>
        <pt x="364" y="162" on="0"/>
        <pt x="341" y="199" on="0"/>
        <pt x="341" y="213" on="0"/>
        <pt x="362" y="276" on="0"/>
        <pt x="362" y="290" on="1"/>
        <pt x="346" y="306" on="1"/>
        <pt x="345" y="307" on="0"/>
        <pt x="345" y="312" on="1"/>
        <pt x="345" y="314" on="1"/>
        <pt x="345" y="331" on="0"/>
        <pt x="338" y="338" on="1"/>
        <pt x="337" y="341" on="1"/>
        <pt x="339" y="351" on="0"/>
        <pt x="361" y="377" on="1"/>
        <pt x="366" y="382" on="0"/>
        <pt x="366" y="418" on="1"/>
        <pt x="361" y="515" on="1"/>
        <pt x="361" y="524" on="0"/>
        <pt x="330" y="548" on="0"/>
        <pt x="330" y="551" on="1"/>
        <pt x="330" y="577" on="0"/>
        <pt x="344" y="610" on="1"/>
        <pt x="349" y="621" on="1"/>
        <pt x="349" y="633" on="0"/>
        <pt x="322" y="648" on="1"/>
        <pt x="313" y="653" on="1"/>
        <pt x="296" y="653" on="0"/>
        <pt x="248" y="604" on="0"/>
      </contour>
      <contour>
        <pt x="532" y="227" on="1"/>
        <pt x="532" y="207" on="0"/>
        <pt x="552" y="189" on="1"/>
        <pt x="552" y="167" on="0"/>
        <pt x="522" y="100" on="0"/>
        <pt x="489" y="54" on="0"/>
        <pt x="484" y="54" on="1"/>
        <pt x="461" y="54" on="0"/>
        <pt x="400" y="28" on="0"/>
        <pt x="381" y="15" on="1"/>
        <pt x="362" y="2" on="1"/>
        <pt x="352" y="-7" on="0"/>
        <pt x="270" y="-16" on="1"/>
        <pt x="243" y="-19" on="1"/>
        <pt x="201" y="-19" on="0"/>
        <pt x="111" y="52" on="0"/>
        <pt x="64" y="118" on="0"/>
        <pt x="64" y="126" on="0"/>
        <pt x="73" y="152" on="0"/>
        <pt x="73" y="164" on="1"/>
        <pt x="73" y="188" on="0"/>
        <pt x="42" y="188" on="1"/>
        <pt x="34" y="187" on="1"/>
        <pt x="26" y="187" on="0"/>
        <pt x="14" y="294" on="1"/>
        <pt x="10" y="329" on="1"/>
        <pt x="22" y="465" on="1"/>
        <pt x="22" y="468" on="0"/>
        <pt x="46" y="502" on="0"/>
        <pt x="46" y="506" on="1"/>
        <pt x="44" y="592" on="1"/>
        <pt x="44" y="631" on="0"/>
        <pt x="47" y="635" on="1"/>
        <pt x="60" y="653" on="0"/>
        <pt x="200" y="757" on="0"/>
        <pt x="235" y="757" on="1"/>
        <pt x="242" y="774" on="0"/>
        <pt x="250" y="774" on="1"/>
        <pt x="300" y="777" on="0"/>
        <pt x="433" y="777" on="0"/>
        <pt x="444" y="766" on="1"/>
        <pt x="445" y="765" on="0"/>
        <pt x="489" y="725" on="0"/>
        <pt x="519" y="695" on="0"/>
        <pt x="548" y="651" on="0"/>
        <pt x="548" y="636" on="1"/>
        <pt x="528" y="611" on="1"/>
        <pt x="539" y="588" on="0"/>
        <pt x="580" y="441" on="0"/>
        <pt x="580" y="409" on="1"/>
        <pt x="576" y="253" on="0"/>
        <pt x="565" y="253" on="1"/>
        <pt x="532" y="240" on="0"/>
      </contour>
    </TTGlyph>
    <TTGlyph name="Oslash" xMin="10" yMin="-37" xMax="599" yMax="777">
      <contour>
        <pt x="284" y="252" on="1"/>
        <pt x="286" y="246" on="1"/>
        <pt x="286" y="241" on="0"/>
        <pt x="248" y="181" on="1"/>
        <pt x="255" y="156" on="0"/>
        <pt x="297" y="116" on="0"/>
        <pt x="320" y="116" on="0"/>
        <pt x="328" y="122" on="1"/>
        <pt x="338" y="128" on="0"/>
        <pt x="354" y="147" on="1"/>
        <pt x="363" y="157" on="1"/>
        <pt x="364" y="158" on="0"/>
        <pt x="364" y="162" on="0"/>
        <pt x="341" y="199" on="0"/>
        <pt x="341" y="213" on="0"/>
        <pt x="362" y="276" on="0"/>
        <pt x="362" y="290" on="1"/>
        <pt x="346" y="306" on="1"/>
        <pt x="345" y="307" on="0"/>
        <pt x="345" y="312" on="1"/>
        <pt x="345" y="314" on="1"/>
        <pt x="345" y="331" on="0"/>
        <pt x="338" y="338" on="1"/>
        <pt x="284" y="271" on="0"/>
      </contour>
      <contour>
        <pt x="248" y="585" on="1"/>
        <pt x="264" y="539" on="1"/>
        <pt x="264" y="537" on="0"/>
        <pt x="234" y="501" on="0"/>
        <pt x="234" y="484" on="0"/>
        <pt x="261" y="462" on="0"/>
        <pt x="261" y="456" on="1"/>
        <pt x="246" y="383" on="0"/>
        <pt x="240" y="328" on="1"/>
        <pt x="261" y="359" on="0"/>
        <pt x="262" y="359" on="1"/>
        <pt x="263" y="359" on="1"/>
        <pt x="269" y="368" on="0"/>
        <pt x="296" y="419" on="0"/>
        <pt x="315" y="449" on="0"/>
        <pt x="323" y="449" on="0"/>
        <pt x="334" y="467" on="0"/>
        <pt x="347" y="495" on="0"/>
        <pt x="351" y="501" on="1"/>
        <pt x="360" y="519" on="1"/>
        <pt x="358" y="526" on="0"/>
        <pt x="330" y="547" on="0"/>
        <pt x="330" y="551" on="1"/>
        <pt x="330" y="577" on="0"/>
        <pt x="344" y="610" on="1"/>
        <pt x="349" y="621" on="1"/>
        <pt x="349" y="633" on="0"/>
        <pt x="322" y="648" on="1"/>
        <pt x="313" y="653" on="1"/>
        <pt x="296" y="653" on="0"/>
        <pt x="248" y="604" on="0"/>
      </contour>
      <contour>
        <pt x="532" y="227" on="1"/>
        <pt x="532" y="207" on="0"/>
        <pt x="552" y="189" on="1"/>
        <pt x="552" y="167" on="0"/>
        <pt x="522" y="100" on="0"/>
        <pt x="489" y="54" on="0"/>
        <pt x="484" y="54" on="1"/>
        <pt x="461" y="54" on="0"/>
        <pt x="400" y="28" on="0"/>
        <pt x="381" y="15" on="1"/>
        <pt x="362" y="2" on="1"/>
        <pt x="352" y="-7" on="0"/>
        <pt x="270" y="-16" on="1"/>
        <pt x="243" y="-19" on="1"/>
        <pt x="198" y="-19" on="0"/>
        <pt x="150" y="20" on="1"/>
        <pt x="134" y="-4" on="0"/>
        <pt x="134" y="-5" on="1"/>
        <pt x="134" y="-16" on="0"/>
        <pt x="118" y="-32" on="1"/>
        <pt x="113" y="-37" on="0"/>
        <pt x="85" y="-37" on="1"/>
        <pt x="24" y="-37" on="0"/>
        <pt x="24" y="-22" on="1"/>
        <pt x="24" y="-13" on="0"/>
        <pt x="48" y="20" on="1"/>
        <pt x="56" y="31" on="1"/>
        <pt x="77" y="69" on="0"/>
        <pt x="83" y="78" on="0"/>
        <pt x="85" y="89" on="1"/>
        <pt x="64" y="120" on="0"/>
        <pt x="64" y="126" on="0"/>
        <pt x="73" y="152" on="0"/>
        <pt x="73" y="164" on="1"/>
        <pt x="73" y="188" on="0"/>
        <pt x="42" y="188" on="1"/>
        <pt x="34" y="187" on="1"/>
        <pt x="26" y="187" on="0"/>
        <pt x="14" y="294" on="1"/>
        <pt x="10" y="329" on="1"/>
        <pt x="22" y="465" on="1"/>
        <pt x="22" y="468" on="0"/>
        <pt x="46" y="502" on="0"/>
        <pt x="46" y="506" on="1"/>
        <pt x="44" y="592" on="1"/>
        <pt x="44" y="631" on="0"/>
        <pt x="47" y="635" on="1"/>
        <pt x="60" y="653" on="0"/>
        <pt x="200" y="757" on="0"/>
        <pt x="235" y="757" on="1"/>
        <pt x="242" y="774" on="0"/>
        <pt x="250" y="774" on="1"/>
        <pt x="300" y="777" on="0"/>
        <pt x="433" y="777" on="0"/>
        <pt x="444" y="766" on="1"/>
        <pt x="446" y="763" on="0"/>
        <pt x="451" y="759" on="1"/>
        <pt x="466" y="747" on="0"/>
        <pt x="476" y="737" on="1"/>
        <pt x="482" y="754" on="0"/>
        <pt x="501" y="771" on="1"/>
        <pt x="507" y="777" on="0"/>
        <pt x="599" y="777" on="0"/>
        <pt x="599" y="766" on="1"/>
        <pt x="588" y="735" on="0"/>
        <pt x="581" y="733" on="1"/>
        <pt x="569" y="730" on="0"/>
        <pt x="566" y="726" on="1"/>
        <pt x="566" y="719" on="1"/>
        <pt x="566" y="709" on="0"/>
        <pt x="567" y="705" on="1"/>
        <pt x="567" y="704" on="1"/>
        <pt x="567" y="699" on="0"/>
        <pt x="554" y="686" on="1"/>
        <pt x="542" y="672" on="1"/>
        <pt x="538" y="666" on="1"/>
        <pt x="548" y="649" on="0"/>
        <pt x="548" y="636" on="1"/>
        <pt x="528" y="611" on="1"/>
        <pt x="539" y="588" on="0"/>
        <pt x="580" y="441" on="0"/>
        <pt x="580" y="409" on="1"/>
        <pt x="576" y="253" on="0"/>
        <pt x="565" y="253" on="1"/>
        <pt x="532" y="240" on="0"/>
      </contour>
    </TTGlyph>
    <TTGlyph name="Otilde" xMin="10" yMin="-19" xMax="580" yMax="902">
      <contour>
        <pt x="248" y="585" on="1"/>
        <pt x="264" y="539" on="1"/>
        <pt x="264" y="537" on="0"/>
        <pt x="234" y="501" on="0"/>
        <pt x="234" y="484" on="0"/>
        <pt x="261" y="462" on="0"/>
        <pt x="261" y="456" on="1"/>
        <pt x="238" y="344" on="0"/>
        <pt x="238" y="294" on="1"/>
        <pt x="238" y="283" on="0"/>
        <pt x="262" y="259" on="1"/>
        <pt x="264" y="257" on="0"/>
        <pt x="264" y="246" on="0"/>
        <pt x="245" y="203" on="0"/>
        <pt x="245" y="199" on="1"/>
        <pt x="245" y="172" on="0"/>
        <pt x="293" y="116" on="0"/>
        <pt x="314" y="116" on="1"/>
        <pt x="327" y="116" on="0"/>
        <pt x="346" y="137" on="0"/>
        <pt x="354" y="147" on="1"/>
        <pt x="363" y="157" on="1"/>
        <pt x="364" y="158" on="0"/>
        <pt x="364" y="162" on="0"/>
        <pt x="341" y="199" on="0"/>
        <pt x="341" y="213" on="0"/>
        <pt x="362" y="276" on="0"/>
        <pt x="362" y="290" on="1"/>
        <pt x="346" y="306" on="1"/>
        <pt x="345" y="307" on="0"/>
        <pt x="345" y="312" on="1"/>
        <pt x="345" y="314" on="1"/>
        <pt x="345" y="331" on="0"/>
        <pt x="338" y="338" on="1"/>
        <pt x="337" y="341" on="1"/>
        <pt x="339" y="351" on="0"/>
        <pt x="361" y="377" on="1"/>
        <pt x="366" y="382" on="0"/>
        <pt x="366" y="418" on="1"/>
        <pt x="361" y="515" on="1"/>
        <pt x="361" y="524" on="0"/>
        <pt x="330" y="548" on="0"/>
        <pt x="330" y="551" on="1"/>
        <pt x="330" y="577" on="0"/>
        <pt x="344" y="610" on="1"/>
        <pt x="349" y="621" on="1"/>
        <pt x="349" y="633" on="0"/>
        <pt x="322" y="648" on="1"/>
        <pt x="313" y="653" on="1"/>
        <pt x="296" y="653" on="0"/>
        <pt x="248" y="604" on="0"/>
      </contour>
      <contour>
        <pt x="532" y="227" on="1"/>
        <pt x="532" y="207" on="0"/>
        <pt x="552" y="189" on="1"/>
        <pt x="552" y="167" on="0"/>
        <pt x="522" y="100" on="0"/>
        <pt x="489" y="54" on="0"/>
        <pt x="484" y="54" on="1"/>
        <pt x="461" y="54" on="0"/>
        <pt x="400" y="28" on="0"/>
        <pt x="381" y="15" on="1"/>
        <pt x="362" y="2" on="1"/>
        <pt x="352" y="-7" on="0"/>
        <pt x="270" y="-16" on="1"/>
        <pt x="243" y="-19" on="1"/>
        <pt x="201" y="-19" on="0"/>
        <pt x="111" y="52" on="0"/>
        <pt x="64" y="118" on="0"/>
        <pt x="64" y="126" on="0"/>
        <pt x="73" y="152" on="0"/>
        <pt x="73" y="164" on="1"/>
        <pt x="73" y="188" on="0"/>
        <pt x="42" y="188" on="1"/>
        <pt x="34" y="187" on="1"/>
        <pt x="26" y="187" on="0"/>
        <pt x="14" y="294" on="1"/>
        <pt x="10" y="329" on="1"/>
        <pt x="22" y="465" on="1"/>
        <pt x="22" y="468" on="0"/>
        <pt x="46" y="502" on="0"/>
        <pt x="46" y="506" on="1"/>
        <pt x="44" y="592" on="1"/>
        <pt x="44" y="631" on="0"/>
        <pt x="47" y="635" on="1"/>
        <pt x="60" y="653" on="0"/>
        <pt x="200" y="757" on="0"/>
        <pt x="235" y="757" on="1"/>
        <pt x="242" y="774" on="0"/>
        <pt x="250" y="774" on="1"/>
        <pt x="300" y="777" on="0"/>
        <pt x="433" y="777" on="0"/>
        <pt x="444" y="766" on="1"/>
        <pt x="445" y="765" on="0"/>
        <pt x="489" y="725" on="0"/>
        <pt x="519" y="695" on="0"/>
        <pt x="548" y="651" on="0"/>
        <pt x="548" y="636" on="1"/>
        <pt x="528" y="611" on="1"/>
        <pt x="539" y="588" on="0"/>
        <pt x="580" y="441" on="0"/>
        <pt x="580" y="409" on="1"/>
        <pt x="576" y="253" on="0"/>
        <pt x="565" y="253" on="1"/>
        <pt x="532" y="240" on="0"/>
      </contour>
      <contour>
        <pt x="459" y="843" on="1"/>
        <pt x="459" y="836" on="0"/>
        <pt x="390" y="793" on="0"/>
        <pt x="370" y="793" on="0"/>
        <pt x="301" y="829" on="0"/>
        <pt x="285" y="829" on="0"/>
        <pt x="215" y="807" on="0"/>
        <pt x="210" y="807" on="0"/>
        <pt x="197" y="846" on="0"/>
        <pt x="197" y="856" on="1"/>
        <pt x="262" y="902" on="0"/>
        <pt x="287" y="902" on="0"/>
        <pt x="379" y="869" on="0"/>
        <pt x="388" y="869" on="0"/>
        <pt x="439" y="891" on="0"/>
        <pt x="445" y="891" on="0"/>
        <pt x="459" y="859" on="0"/>
      </contour>
    </TTGlyph>
    <TTGlyph name="P" xMin="14" yMin="-21" xMax="514" yMax="780">
      <contour>
        <pt x="314" y="383" on="1"/>
        <pt x="302" y="402" on="1"/>
        <pt x="302" y="403" on="0"/>
        <pt x="307" y="408" on="0"/>
        <pt x="314" y="422" on="0"/>
        <pt x="318" y="433" on="1"/>
        <pt x="327" y="458" on="0"/>
        <pt x="327" y="513" on="1"/>
        <pt x="327" y="514" on="0"/>
        <pt x="301" y="535" on="0"/>
        <pt x="301" y="540" on="1"/>
        <pt x="301" y="549" on="0"/>
        <pt x="318" y="587" on="1"/>
        <pt x="324" y="599" on="1"/>
        <pt x="324" y="611" on="0"/>
        <pt x="300" y="633" on="0"/>
        <pt x="288" y="638" on="1"/>
        <pt x="277" y="643" on="1"/>
        <pt x="235" y="608" on="0"/>
        <pt x="235" y="591" on="1"/>
        <pt x="241" y="525" on="1"/>
        <pt x="222" y="508" on="0"/>
        <pt x="222" y="492" on="0"/>
        <pt x="224" y="490" on="1"/>
        <pt x="239" y="476" on="0"/>
        <pt x="239" y="463" on="0"/>
        <pt x="234" y="458" on="0"/>
        <pt x="234" y="444" on="1"/>
        <pt x="235" y="400" on="1"/>
        <pt x="235" y="378" on="0"/>
        <pt x="232" y="372" on="1"/>
        <pt x="247" y="355" on="0"/>
        <pt x="270" y="355" on="0"/>
        <pt x="314" y="375" on="0"/>
      </contour>
      <contour>
        <pt x="514" y="524" on="1"/>
        <pt x="511" y="459" on="1"/>
        <pt x="511" y="442" on="0"/>
        <pt x="514" y="432" on="1"/>
        <pt x="514" y="429" on="1"/>
        <pt x="514" y="409" on="0"/>
        <pt x="434" y="300" on="0"/>
        <pt x="411" y="300" on="0"/>
        <pt x="340" y="247" on="0"/>
        <pt x="340" y="239" on="1"/>
        <pt x="340" y="233" on="0"/>
        <pt x="233" y="216" on="0"/>
        <pt x="233" y="214" on="1"/>
        <pt x="233" y="115" on="0"/>
        <pt x="249" y="56" on="1"/>
        <pt x="254" y="37" on="1"/>
        <pt x="254" y="30" on="0"/>
        <pt x="193" y="1" on="0"/>
        <pt x="188" y="-4" on="1"/>
        <pt x="177" y="-15" on="0"/>
        <pt x="141" y="-21" on="1"/>
        <pt x="123" y="-21" on="0"/>
        <pt x="19" y="5" on="0"/>
        <pt x="19" y="15" on="1"/>
        <pt x="30" y="38" on="0"/>
        <pt x="38" y="124" on="1"/>
        <pt x="40" y="154" on="1"/>
        <pt x="40" y="155" on="0"/>
        <pt x="44" y="158" on="1"/>
        <pt x="58" y="165" on="0"/>
        <pt x="58" y="194" on="0"/>
        <pt x="23" y="217" on="0"/>
        <pt x="23" y="219" on="1"/>
        <pt x="23" y="231" on="0"/>
        <pt x="37" y="256" on="1"/>
        <pt x="42" y="265" on="1"/>
        <pt x="44" y="334" on="1"/>
        <pt x="44" y="368" on="0"/>
        <pt x="38" y="374" on="0"/>
        <pt x="38" y="378" on="1"/>
        <pt x="50" y="428" on="1"/>
        <pt x="52" y="442" on="0"/>
        <pt x="52" y="460" on="1"/>
        <pt x="52" y="512" on="0"/>
        <pt x="40" y="590" on="1"/>
        <pt x="35" y="618" on="1"/>
        <pt x="49" y="641" on="1"/>
        <pt x="49" y="659" on="0"/>
        <pt x="23" y="712" on="1"/>
        <pt x="14" y="731" on="1"/>
        <pt x="70" y="780" on="0"/>
        <pt x="117" y="780" on="1"/>
        <pt x="182" y="773" on="0"/>
        <pt x="186" y="768" on="1"/>
        <pt x="196" y="757" on="0"/>
        <pt x="207" y="720" on="1"/>
        <pt x="211" y="707" on="1"/>
        <pt x="218" y="702" on="0"/>
        <pt x="226" y="702" on="0"/>
        <pt x="227" y="704" on="1"/>
        <pt x="256" y="745" on="0"/>
        <pt x="263" y="764" on="1"/>
        <pt x="320" y="767" on="0"/>
        <pt x="346" y="767" on="1"/>
        <pt x="357" y="766" on="1"/>
        <pt x="359" y="766" on="1"/>
        <pt x="372" y="764" on="0"/>
        <pt x="430" y="745" on="0"/>
        <pt x="436" y="739" on="1"/>
        <pt x="467" y="708" on="0"/>
        <pt x="496" y="642" on="1"/>
        <pt x="506" y="620" on="0"/>
        <pt x="509" y="618" on="1"/>
        <pt x="509" y="617" on="1"/>
        <pt x="509" y="614" on="0"/>
        <pt x="478" y="579" on="0"/>
        <pt x="478" y="574" on="1"/>
        <pt x="478" y="573" on="1"/>
        <pt x="478" y="563" on="0"/>
        <pt x="494" y="550" on="0"/>
        <pt x="505" y="550" on="1"/>
        <pt x="514" y="550" on="0"/>
      </contour>
    </TTGlyph>
</ttFont>
